<svg xmlns="http://www.w3.org/2000/svg" width="48.318" height="12.877" viewBox="0 0 48.318 12.877">
  <path id="Path_5732" data-name="Path 5732" d="M63.286,219.76q1.71-.829,3.42-1.657c.421-.2.862-.367,1.269-.593a.777.777,0,0,0,.441-1.066c-.233-.487-.675-.473-1.109-.3-.689.273-1.381.542-2.051.855-2.084.974-4.159,1.967-6.236,2.956a4.5,4.5,0,0,0-.718.392.931.931,0,0,0-.069,1.576,4.523,4.523,0,0,0,.7.423c2.123,1.239,4.249,2.472,6.368,3.718.767.451,1.258.483,1.562.055.329-.461.135-.989-.656-1.511-1.009-.666-2.054-1.278-3.084-1.912-.324-.2-.65-.394-1.061-.642.176-.116.256-.212.338-.215,4.248-.159,8.5-.379,12.746-.445a124.743,124.743,0,0,1,20.388,1.594c2.929.438,5.846.965,8.768,1.453.844.141,1.265-.009,1.357-.5.087-.463-.259-.875-1.055-1.02-3.8-.69-7.587-1.43-11.4-1.993a126.284,126.284,0,0,0-21.584-1.259c-2.418.06-4.835.2-7.252.305-.333.014-.667,0-1,0Z" transform="translate(-69.058 -210.207) rotate(-3)" fill="#c2bebe"/>
</svg>
