<svg xmlns="http://www.w3.org/2000/svg" width="15.956" height="13.962" viewBox="0 0 15.956 13.962">
  <path id="Icon_awesome-camera" data-name="Icon awesome-camera" d="M15.956,5.74v8.975a1.5,1.5,0,0,1-1.5,1.5H1.5a1.5,1.5,0,0,1-1.5-1.5V5.74a1.5,1.5,0,0,1,1.5-1.5H4.238l.383-1.025a1.494,1.494,0,0,1,1.4-.969H9.932a1.494,1.494,0,0,1,1.4.969l.386,1.025H14.46A1.5,1.5,0,0,1,15.956,5.74Zm-4.238,4.488a3.74,3.74,0,1,0-3.74,3.74A3.743,3.743,0,0,0,11.718,10.228Zm-1,0A2.742,2.742,0,1,1,7.978,7.486,2.747,2.747,0,0,1,10.721,10.228Z" transform="translate(0 -2.25)" fill="#fff" opacity="0.77"/>
</svg>
