<svg xmlns="http://www.w3.org/2000/svg" width="58.854" height="46.837" viewBox="0 0 58.854 46.837">
  <g id="Group_12594" data-name="Group 12594" transform="translate(-3435.657 1278.457)">
    <ellipse id="Ellipse_101" data-name="Ellipse 101" cx="21.482" cy="21.482" rx="21.482" ry="21.482" transform="translate(3435.657 -1278.255)" fill="#e43427" opacity="0.57"/>
    <g id="noun-free-shipping-1355348" transform="translate(3444.553 -1278.457)">
      <path id="Path_5468" data-name="Path 5468" d="M123.3,42.137l-2.151-1.386L118.6,33.787a4.179,4.179,0,0,0-3.925-2.722h-6.959V25.911A3.518,3.518,0,0,0,104.2,22.4H79.113A3.518,3.518,0,0,0,75.6,25.911V61.366A2.839,2.839,0,0,0,78.435,64.2h3.411a5.944,5.944,0,0,0,11.725,0h14.023a5.842,5.842,0,0,0,11.572,0h3.568a2.839,2.839,0,0,0,2.824-2.834V46.271a4.9,4.9,0,0,0-2.258-4.135Zm-8.626-8.523a1.621,1.621,0,0,1,1.529,1.06l2.707,7.367a1.281,1.281,0,0,0,.51.632l2.513,1.616h0a2.36,2.36,0,0,1,1.075,1.988v6.2H107.716V33.614ZM79.113,24.947H104.2a.968.968,0,0,1,.963.964V52.476H78.149V25.911a.968.968,0,0,1,.963-.964Zm8.6,41.731a3.41,3.41,0,1,1,2.406-1,3.405,3.405,0,0,1-2.406,1Zm25.662,0a3.29,3.29,0,1,1,.005,0Zm9.35-5.026h-3.752a5.852,5.852,0,0,0-11.184,0H93.443a5.944,5.944,0,0,0-11.445,0H78.43a.285.285,0,0,1-.28-.286V55.025H123.01v6.342a.286.286,0,0,1-.285.286Z" transform="translate(-75.601 -22.398)" fill="#557dbe"/>
      <path id="Path_5469" data-name="Path 5469" d="M176.319,124.469a1.274,1.274,0,0,0,1.784-.24l10.838-14.166a1.275,1.275,0,0,0-2.039-1.529L176.079,122.66a1.274,1.274,0,0,0,.24,1.81Z" transform="translate(-166.684 -100.229)" fill="#557dbe"/>
      <path id="Path_5470" data-name="Path 5470" d="M266,205.678v1.02a4.078,4.078,0,0,0,8.157,0v-1.02a4.078,4.078,0,1,0-8.157,0Zm5.608,0v1.02a1.529,1.529,0,0,1-3.059,0v-1.02a1.529,1.529,0,0,1,3.059,0Z" transform="translate(-248.668 -185.287)" fill="#557dbe"/>
      <path id="Path_5471" data-name="Path 5471" d="M146.878,104.376a4.078,4.078,0,0,0,4.078-4.078V99.278a4.078,4.078,0,1,0-8.156,0V100.3a4.078,4.078,0,0,0,4.078,4.078Zm-1.529-5.1a1.529,1.529,0,1,1,3.058,0V100.3a1.529,1.529,0,1,1-3.058,0Z" transform="translate(-136.683 -88.573)" fill="#557dbe"/>
    </g>
  </g>
</svg>
