<svg xmlns="http://www.w3.org/2000/svg" width="37.308" height="44.906" viewBox="0 0 37.308 44.906">
  <g id="noun-customer-service-3547228_1_" data-name="noun-customer-service-3547228 (1)" transform="translate(0.5 -1.5)">
    <path id="Path_5668" data-name="Path 5668" d="M240.48,68.275a8.878,8.878,0,1,0-2.6,6.277A8.878,8.878,0,0,0,240.48,68.275Zm-16.572,0a7.694,7.694,0,1,1,2.254,5.441,7.694,7.694,0,0,1-2.254-5.441Z" transform="translate(-213.449 -52.18)" fill="#557dbe" stroke="#557dbe" stroke-width="1"/>
    <path id="Path_5669" data-name="Path 5669" d="M155.206,18.864h-1.647a15.464,15.464,0,0,0-28.979,0h-1.647a2.017,2.017,0,0,0-2.017,2.017v4.034a2.016,2.016,0,0,0,2.017,2.017h4.034a.672.672,0,0,0,.672-.672V19.536a.672.672,0,0,0-.672-.672h-.948a14.12,14.12,0,0,1,26.1,0h-.948a.672.672,0,0,0-.672.672v6.724a.672.672,0,0,0,.672.672h.672a8.068,8.068,0,0,1-8.068,7.4h-4.034a.672.672,0,0,0,0,1.345h4.034a9.414,9.414,0,0,0,9.413-8.741h2.017a2.016,2.016,0,0,0,2.017-2.017V20.881a2.017,2.017,0,0,0-2.017-2.017Zm-28.912,6.724h-3.362a.672.672,0,0,1-.672-.672V20.881a.672.672,0,0,1,.672-.672h3.362Zm29.584-.672a.672.672,0,0,1-.672.672h-3.362V20.208h3.362a.672.672,0,0,1,.672.672Z" transform="translate(-120.915 -6.803)" fill="#557dbe" stroke="#557dbe" stroke-width="1"/>
    <path id="Path_5670" data-name="Path 5670" d="M150.243,364.85h-6.724A14.12,14.12,0,0,0,129.4,378.97a.672.672,0,0,0,.672.672h33.618a.672.672,0,0,0,.672-.672,14.12,14.12,0,0,0-14.119-14.12Zm-19.5,13.448a12.775,12.775,0,0,1,12.775-12.1h6.724a12.775,12.775,0,0,1,12.775,12.1Z" transform="translate(-128.728 -333.737)" fill="#557dbe" stroke="#557dbe" stroke-width="1"/>
  </g>
</svg>
