<svg id="noun-electricity-4967411" xmlns="http://www.w3.org/2000/svg" width="34.578" height="34.578" viewBox="0 0 34.578 34.578">
  <path id="Path_5463" data-name="Path 5463" d="M142.426,60.322V56.864a.864.864,0,0,1,1.729,0v3.458a.864.864,0,0,1-1.729,0Zm-8.915,4.409a.864.864,0,1,0,1.222-1.222l-2.445-2.445a.864.864,0,1,0-1.222,1.222Zm-3.187,7.693h-3.458a.864.864,0,1,0,0,1.729h3.458a.864.864,0,1,0,0-1.729Zm22.135-7.44a.861.861,0,0,0,.611-.253l2.445-2.445a.864.864,0,1,0-1.222-1.222l-2.445,2.445a.864.864,0,0,0,.611,1.476Zm7.256,7.44h-3.458a.864.864,0,0,0,0,1.729h3.458a.864.864,0,1,0,0-1.729ZM142.426,90.578h1.729a4.329,4.329,0,0,0,4.235-3.458h-10.2a4.329,4.329,0,0,0,4.235,3.458ZM138.1,85.392h10.373V83.663H138.1Zm15.56-12.1a10.412,10.412,0,0,1-4.213,8.337,2.239,2.239,0,0,0-.321.307H137.444a2.411,2.411,0,0,0-.352-.336,10.369,10.369,0,1,1,16.571-8.309Zm-7.871-.387a.865.865,0,0,0-.773-.478H143.29l1.556-2.075a.864.864,0,0,0-1.383-1.038L140.87,72.77a.864.864,0,0,0,.691,1.383h1.729l-1.556,2.075a.865.865,0,1,0,1.383,1.037l2.594-3.458a.865.865,0,0,0,.081-.905Z" transform="translate(-126.001 -56)" fill="#557dbe"/>
</svg>
