<svg xmlns="http://www.w3.org/2000/svg" width="22.875" height="22.875" viewBox="0 0 22.875 22.875">
  <path id="Icon_awesome-exclamation-circle" data-name="Icon awesome-exclamation-circle" d="M23.438,12A11.438,11.438,0,1,1,12,.563,11.437,11.437,0,0,1,23.438,12ZM12,14.306a2.121,2.121,0,1,0,2.121,2.121A2.121,2.121,0,0,0,12,14.306ZM9.986,6.68l.342,6.272a.553.553,0,0,0,.553.523h2.239a.553.553,0,0,0,.553-.523l.342-6.272a.553.553,0,0,0-.553-.584H10.538A.553.553,0,0,0,9.986,6.68Z" transform="translate(-0.563 -0.563)" fill="#e43427"/>
</svg>
