<svg id="Group_12588" data-name="Group 12588" xmlns="http://www.w3.org/2000/svg" width="33.117" height="35.174" viewBox="0 0 33.117 35.174">
  <path id="Path_5292" data-name="Path 5292" d="M40.1,20.707a1,1,0,0,1-.216.326l-2.912,2.912a1,1,0,1,1-1.409-1.408l1.213-1.212H26.562a1,1,0,0,1,0-1.992H36.776L35.563,18.12a1,1,0,1,1,1.409-1.408l2.911,2.913a1,1,0,0,1,.216.326l0,.015a.964.964,0,0,1,0,.726Zm-7.382,4.6a1,1,0,0,0-1,1v5.856a1,1,0,0,1-1,1H23.59V14.426a3,3,0,0,0-1.746-2.715L12.629,7.5h18.1a1,1,0,0,1,1,1v5.856a1,1,0,1,0,1.992,0V8.5A2.992,2.992,0,0,0,30.727,5.51H10.046A2.963,2.963,0,0,0,7.066,8.332c-.007.08-.007.139-.007.166V32.159a1.5,1.5,0,0,0,.007.173,3,3,0,0,0,.04.352c.013.073.027.146.046.219v.007a4.307,4.307,0,0,0,2.43,3.034l9.779,4.468a3.013,3.013,0,0,0,1.242.272,2.953,2.953,0,0,0,1.613-.478A2.988,2.988,0,0,0,23.59,37.69V35.148h7.136a2.988,2.988,0,0,0,2.988-2.988V26.305a1,1,0,0,0-1-1Z" transform="translate(-7.059 -5.51)" fill="#557dbe"/>
</svg>
