<svg id="Group_12595" data-name="Group 12595" xmlns="http://www.w3.org/2000/svg" width="21.333" height="21.333" viewBox="0 0 21.333 21.333">
  <path id="Path_5409" data-name="Path 5409" d="M277.011,101.447h0a10.666,10.666,0,0,1-10.666-10.666h0a10.666,10.666,0,0,1,10.666-10.667h0a10.667,10.667,0,0,1,10.667,10.667h0A10.667,10.667,0,0,1,277.011,101.447Z" transform="translate(-266.345 -80.114)" fill="#557dbe"/>
  <path id="Path_5410" data-name="Path 5410" d="M293.554,107.195h2.6v-6.5h1.812l.193-2.177h-2v-1.24c0-.513.1-.716.6-.716h1.405V94.3h-1.8c-1.932,0-2.8.851-2.8,2.48v1.736H292.2v2.2h1.351Z" transform="translate(-284.512 -90.081)" fill="#fff"/>
</svg>
