<?xml version="1.0" encoding="UTF-8"?>
<svg xmlns="http://www.w3.org/2000/svg" xmlns:xlink="http://www.w3.org/1999/xlink" width="375pt" height="375pt" viewBox="0 0 375 375" version="1.1">
<g id="surface923">
<path style=" stroke:none;fill-rule:nonzero;fill:rgb(1.176471%,60.784316%,89.803922%);fill-opacity:1;" d="M 187.5 39.0625 C 105.519531 39.0625 39.0625 105.519531 39.0625 187.5 C 39.0625 269.480469 105.519531 335.9375 187.5 335.9375 C 269.480469 335.9375 335.9375 269.480469 335.9375 187.5 C 335.9375 105.519531 269.480469 39.0625 187.5 39.0625 Z M 187.5 39.0625 "/>
<path style=" stroke:none;fill-rule:nonzero;fill:rgb(100%,100%,100%);fill-opacity:1;" d="M 207.59375 226.84375 L 246.007812 226.84375 L 252.039062 187.820312 L 207.585938 187.820312 L 207.585938 166.492188 C 207.585938 150.28125 212.882812 135.90625 228.046875 135.90625 L 252.414062 135.90625 L 252.414062 101.851562 C 248.132812 101.273438 239.078125 100.007812 221.96875 100.007812 C 186.242188 100.007812 165.296875 118.875 165.296875 161.859375 L 165.296875 187.820312 L 128.570312 187.820312 L 128.570312 226.84375 L 165.296875 226.84375 L 165.296875 334.101562 C 172.570312 335.195312 179.9375 335.9375 187.5 335.9375 C 194.335938 335.9375 201.007812 335.3125 207.59375 334.421875 Z M 207.59375 226.84375 "/>
</g>
</svg>
