<?xml version="1.0" encoding="UTF-8"?>
<svg xmlns="http://www.w3.org/2000/svg" xmlns:xlink="http://www.w3.org/1999/xlink" width="375pt" height="375pt" viewBox="0 0 375 375" version="1.1">
<g id="surface1712">
<path style=" stroke:none;fill-rule:nonzero;fill:rgb(100%,75.686276%,2.745098%);fill-opacity:1;" d="M 340.710938 156.898438 L 328.125 156.898438 L 328.125 156.25 L 187.5 156.25 L 187.5 218.75 L 275.804688 218.75 C 262.921875 255.132812 228.304688 281.25 187.5 281.25 C 135.726562 281.25 93.75 239.273438 93.75 187.5 C 93.75 135.726562 135.726562 93.75 187.5 93.75 C 211.398438 93.75 233.140625 102.765625 249.695312 117.492188 L 293.890625 73.296875 C 265.984375 47.289062 228.65625 31.25 187.5 31.25 C 101.210938 31.25 31.25 101.210938 31.25 187.5 C 31.25 273.789062 101.210938 343.75 187.5 343.75 C 273.789062 343.75 343.75 273.789062 343.75 187.5 C 343.75 177.023438 342.671875 166.796875 340.710938 156.898438 Z M 340.710938 156.898438 "/>
<path style=" stroke:none;fill-rule:nonzero;fill:rgb(100%,23.921569%,0%);fill-opacity:1;" d="M 49.265625 114.773438 L 100.601562 152.421875 C 114.492188 118.03125 148.132812 93.75 187.5 93.75 C 211.398438 93.75 233.140625 102.765625 249.695312 117.492188 L 293.890625 73.296875 C 265.984375 47.289062 228.65625 31.25 187.5 31.25 C 127.484375 31.25 75.4375 65.132812 49.265625 114.773438 Z M 49.265625 114.773438 "/>
<path style=" stroke:none;fill-rule:nonzero;fill:rgb(29.803923%,68.627453%,31.37255%);fill-opacity:1;" d="M 187.5 343.75 C 227.859375 343.75 264.53125 328.304688 292.257812 303.1875 L 243.898438 262.265625 C 228.210938 274.148438 208.710938 281.25 187.5 281.25 C 146.859375 281.25 112.351562 255.335938 99.351562 219.171875 L 48.398438 258.429688 C 74.257812 309.03125 126.773438 343.75 187.5 343.75 Z M 187.5 343.75 "/>
<path style=" stroke:none;fill-rule:nonzero;fill:rgb(9.803922%,46.27451%,82.352942%);fill-opacity:1;" d="M 340.710938 156.898438 L 328.125 156.898438 L 328.125 156.25 L 187.5 156.25 L 187.5 218.75 L 275.804688 218.75 C 269.617188 236.226562 258.375 251.296875 243.875 262.273438 C 243.882812 262.265625 243.890625 262.265625 243.898438 262.257812 L 292.257812 303.179688 C 288.835938 306.289062 343.75 265.625 343.75 187.5 C 343.75 177.023438 342.671875 166.796875 340.710938 156.898438 Z M 340.710938 156.898438 "/>
</g>
</svg>
