<svg id="Group_12589" data-name="Group 12589" xmlns="http://www.w3.org/2000/svg" width="199.036" height="34.586" viewBox="0 0 199.036 34.586">
  <g id="Group_4188" data-name="Group 4188" transform="translate(0 0)">
    <rect id="Rectangle_2392" data-name="Rectangle 2392" width="35.372" height="33.898" rx="16.949" transform="translate(163.664 0.344)" fill="#3e5c9a"/>
    <rect id="Rectangle_17621" data-name="Rectangle 17621" width="36.846" height="33.898" rx="16.949" transform="translate(82.602 0.344)" fill="#df4b38"/>
    <rect id="Rectangle_17623" data-name="Rectangle 17623" width="35.372" height="33.898" rx="16.949" transform="translate(41.334 0.344)" fill="#4d93c8"/>
    <path id="Path_5605" data-name="Path 5605" d="M17.293,0h.935a17.293,17.293,0,0,1,0,34.586h-.935A17.293,17.293,0,1,1,17.293,0Z" transform="translate(0)" fill="#fe3a3a"/>
    <rect id="Rectangle_17622" data-name="Rectangle 17622" width="35.372" height="33.898" rx="16.949" transform="translate(123.87 0.344)" fill="#29a9e1"/>
    <path id="Path_5386" data-name="Path 5386" d="M294.053,111.966h3.557v-8.908h2.482l.264-2.983h-2.746v-1.7c0-.7.141-.981.821-.981h1.925V94.3h-2.463c-2.647,0-3.84,1.166-3.84,3.4v2.378H292.2v3.02h1.85Z" transform="translate(-114.938 -85.84)" fill="#fff"/>
    <path id="Path_5602" data-name="Path 5602" d="M74.222,115.973a12.572,12.572,0,0,0,19.341-11.163,8.952,8.952,0,0,0,2.206-2.288,8.809,8.809,0,0,1-2.538.7,4.428,4.428,0,0,0,1.943-2.445,8.866,8.866,0,0,1-2.807,1.073,4.423,4.423,0,0,0-7.533,4.032,12.546,12.546,0,0,1-9.111-4.619,4.426,4.426,0,0,0,1.368,5.9,4.416,4.416,0,0,1-2-.553A4.426,4.426,0,0,0,78.633,111a4.426,4.426,0,0,1-2,.076,4.422,4.422,0,0,0,4.129,3.07A8.883,8.883,0,0,1,74.222,115.973Z" transform="translate(56.152 -91.911)" fill="#fff"/>
    <path id="Path_5601" data-name="Path 5601" d="M191.582,109.505h-9.011l.011,2.581h6.076c-.719,3.143-2.937,5.07-5.913,5.07a7.069,7.069,0,1,1,4.806-12.252l1.994-1.718a9.689,9.689,0,1,0-6.8,16.591c5.139,0,8.853-3.92,8.853-9.271Z" transform="translate(-81.373 -93.729)" fill="#fff"/>
    <path id="Icon_awesome-share-alt" data-name="Icon awesome-share-alt" d="M3.312,11.041a3.3,3.3,0,0,1,2.063.721l3.536-2.21a3.331,3.331,0,0,1,0-1.438L5.375,5.9A3.306,3.306,0,1,1,6.546,4.032l3.536,2.21a3.312,3.312,0,1,1,0,5.183l-3.536,2.21a3.313,3.313,0,1,1-3.234-2.593Z" transform="translate(51.16 8.46)" fill="#fff"/>
    <g id="Icon_ionic-ios-mail" data-name="Icon ionic-ios-mail" transform="translate(7.997 10.533)">
      <path id="Path_5603" data-name="Path 5603" d="M22.743,10.343l-5.051,5.145a.091.091,0,0,0,0,.131l3.535,3.765a.609.609,0,0,1,0,.864.612.612,0,0,1-.864,0L16.842,16.5a.1.1,0,0,0-.136,0l-.859.873a3.779,3.779,0,0,1-2.694,1.136A3.855,3.855,0,0,1,10.4,17.337l-.826-.84a.1.1,0,0,0-.136,0L5.919,20.247a.612.612,0,0,1-.864,0,.609.609,0,0,1,0-.864L8.59,15.619a.1.1,0,0,0,0-.131L3.535,10.343a.093.093,0,0,0-.16.066V20.7a1.507,1.507,0,0,0,1.5,1.5H21.4a1.507,1.507,0,0,0,1.5-1.5V10.408A.094.094,0,0,0,22.743,10.343Z" transform="translate(-3.375 -8.686)" fill="#fff"/>
      <path id="Path_5604" data-name="Path 5604" d="M13.422,16.47a2.552,2.552,0,0,0,1.835-.77l7.365-7.5a1.475,1.475,0,0,0-.929-.329H5.155a1.466,1.466,0,0,0-.929.329l7.365,7.5A2.552,2.552,0,0,0,13.422,16.47Z" transform="translate(-3.658 -7.875)" fill="#fff"/>
    </g>
  </g>
</svg>
