<svg id="Iconly_Light_Home" data-name="Iconly/Light/Home" xmlns="http://www.w3.org/2000/svg" width="22.156" height="21.722" viewBox="0 0 22.156 21.722">
  <g id="Home">
    <g id="Home-2" data-name="Home" fill="#557dbe" stroke-linecap="round" stroke-linejoin="round" stroke-miterlimit="10">
      <path d="M7.7,19.763l.141-3.073a1.415,1.415,0,0,1,.14-.552,1.519,1.519,0,0,1,.335-.452,1.581,1.581,0,0,1,.481-.306,1.564,1.564,0,0,1,.578-.115h2.979a1.484,1.484,0,0,1,.571.112,1.393,1.393,0,0,1,.456.305,1.329,1.329,0,0,1,.385,1.007h0l-.147,3.083a1.139,1.139,0,0,0,.32.853,1.192,1.192,0,0,0,.381.263,1.27,1.27,0,0,0,.479.1H16.78a3.792,3.792,0,0,0,1.406-.27,3.842,3.842,0,0,0,1.174-.737,3.693,3.693,0,0,0,.821-1.094,3.434,3.434,0,0,0,.348-1.341h0l.436-8.771a2.348,2.348,0,0,0-.046-.553,2.3,2.3,0,0,0-.459-.98,2.34,2.34,0,0,0-.4-.389L13.506,1.552a3.111,3.111,0,0,0-.95-.521A3.3,3.3,0,0,0,11.494.858a3.448,3.448,0,0,0-1.078.174,3.491,3.491,0,0,0-1,.521L2.394,6.867a2.669,2.669,0,0,0-.433.388,2.6,2.6,0,0,0-.331.462,2.506,2.506,0,0,0-.219.518,2.413,2.413,0,0,0-.1.554L.933,17.549a3.226,3.226,0,0,0,.942,2.436,3.386,3.386,0,0,0,1.105.737,3.6,3.6,0,0,0,1.381.27H6.343a1.36,1.36,0,0,0,.921-.36,1.312,1.312,0,0,0,.292-.391,1.222,1.222,0,0,0,.122-.479h0" stroke="none"/>
      <path d="M 16.74410247802734 21.72159004211426 L 14.76227378845215 21.72159004211426 C 14.76082229614258 21.72159004211426 14.75937175750732 21.72158432006836 14.75792121887207 21.72157669067383 C 14.75647068023682 21.7215690612793 14.75502014160156 21.7215576171875 14.75356864929199 21.7215404510498 C 14.75211811065674 21.72152328491211 14.7506685256958 21.72150230407715 14.74921894073486 21.72147941589355 C 14.74776744842529 21.72145462036133 14.74631690979004 21.72142601013184 14.74486827850342 21.72139549255371 C 14.47326374053955 21.71526718139648 14.21688270568848 21.65605735778809 13.98586559295654 21.55428504943848 C 13.75483417510986 21.45250701904297 13.54915809631348 21.30815505981445 13.37898731231689 21.13174629211426 C 13.20880031585693 20.9553165435791 13.07411861419678 20.7468147277832 12.98510646820068 20.51675987243652 C 12.89608287811279 20.28667449951172 12.85273838043213 20.03502464294434 12.86524677276611 19.77233695983887 L 13.01115226745605 16.68952369689941 C 13.01566982269287 16.59405899047852 12.99959564208984 16.50304222106934 12.9666748046875 16.42021179199219 C 12.93375492095947 16.33737564086914 12.88398838043213 16.26272773742676 12.82112693786621 16.20001029968262 C 12.75826358795166 16.13729286193848 12.68230533599854 16.08650970458984 12.59700298309326 16.05140686035156 C 12.51169967651367 16.01630210876465 12.41705322265625 15.99687671661377 12.31681823730469 15.99687671661377 L 9.338771820068359 15.99687671661377 C 9.240435600280762 15.99751853942871 9.145540237426758 16.01742362976074 9.058238983154297 16.05284690856934 C 8.970938682556152 16.08827018737793 8.891236305236816 16.13921356201172 8.823281288146973 16.20193099975586 C 8.755328178405762 16.2646427154541 8.699124336242676 16.33913040161133 8.658819198608398 16.4216480255127 C 8.618515968322754 16.5041561126709 8.594110488891602 16.59469223022461 8.589753150939941 16.68951606750488 L 8.448513984680176 19.76301002502441 C 8.447678565979004 19.78117942810059 8.446168899536133 19.7991943359375 8.444005012512207 19.81702995300293 C 8.441840171813965 19.83486747741699 8.439024925231934 19.85252380371094 8.435583114624023 19.8699836730957 C 8.43213939666748 19.8874397277832 8.428071022033691 19.90469551086426 8.423398017883301 19.92172813415527 C 8.418726921081543 19.93875885009766 8.4134521484375 19.95556831359863 8.407599449157715 19.97212600708008 C 8.369199752807617 20.21773910522461 8.284214973449707 20.44990539550781 8.162003517150879 20.65998649597168 C 8.03980827331543 20.87004280090332 7.880393028259277 21.05802345275879 7.693108081817627 21.21530342102051 C 7.50584077835083 21.3725643157959 7.290702342987061 21.4991397857666 7.057033538818359 21.58639526367188 C 6.823376655578613 21.67364692687988 6.57118034362793 21.72159004211426 6.309775829315186 21.72159004211426 L 4.327949047088623 21.72159004211426 C 3.731353044509888 21.72159004211426 3.167744398117065 21.6047534942627 2.659456729888916 21.39357376098633 C 2.151102542877197 21.18236923217773 1.698023796081543 20.87676811218262 1.322603464126587 20.49925422668457 C 0.9470947980880737 20.12165260314941 0.6492475271224976 19.67206954956055 0.4514962136745453 19.17299461364746 C 0.2536835670471191 18.67376518249512 0.1560170650482178 18.12498092651367 0.1809788793325424 17.54916763305664 L 0.5607778429985046 8.788039207458496 C 0.5608041286468506 8.787435531616211 0.5608308911323547 8.786829948425293 0.5608584880828857 8.786225318908691 C 0.5608859062194824 8.78562068939209 0.5609138607978821 8.785015106201172 0.5609427690505981 8.78441047668457 C 0.5609714388847351 8.783804893493652 0.5610007047653198 8.783201217651367 0.5610307455062866 8.782595634460449 C 0.5610607862472534 8.781991004943848 0.5610914826393127 8.78138542175293 0.5611225962638855 8.780780792236328 C 0.574288010597229 8.534652709960938 0.6158716082572937 8.293294906616211 0.6838563084602356 8.06031608581543 C 0.7518509030342102 7.827305793762207 0.8462535738945007 7.602680206298828 0.9650452733039856 7.390054702758789 C 1.083852410316467 7.177400588989258 1.22705352306366 6.976752281188965 1.392626285552979 6.791725635528564 C 1.558218121528625 6.606678009033203 1.746183633804321 6.437259197235107 1.954497814178467 6.287087440490723 L 8.971126556396484 0.9761519432067871 C 9.156105041503906 0.8377934694290161 9.351520538330078 0.7150606513023376 9.554821014404297 0.6087868213653564 C 9.758133888244629 0.5025059580802917 9.969327926635742 0.4126884043216705 10.18584728240967 0.3401669263839722 C 10.40237712860107 0.2676421701908112 10.62422657012939 0.212416484951973 10.84884262084961 0.1753216236829758 C 11.07346343994141 0.1382258981466293 11.30084419250488 0.1192627772688866 11.52842617034912 0.1192627772688866 C 11.75600814819336 0.1192627772688866 11.98161792755127 0.1382258981466293 12.20272636413574 0.1752783954143524 C 12.42382621765137 0.2123299688100815 12.64041805267334 0.2674691677093506 12.8499698638916 0.339821070432663 C 13.0595121383667 0.4121696650981903 13.26200866699219 0.501727819442749 13.45493030548096 0.6076197028160095 C 13.64783954620361 0.7135045528411865 13.83116817474365 0.8357188701629639 14.00238990783691 0.9733860492706299 L 20.55724143981934 6.277286052703857 C 20.75061416625977 6.427649974822998 20.92208480834961 6.597163677215576 21.06996726989746 6.782205581665039 C 21.21783256530762 6.967225074768066 21.34211349487305 7.167766094207764 21.44112396240234 7.380208015441895 C 21.54011535644531 7.592621326446533 21.61384582519531 7.816929340362549 21.66062355041504 8.049515724182129 C 21.70739555358887 8.282066345214844 21.72722053527832 8.522889137268066 21.71842384338379 8.768370628356934 C 21.7183952331543 8.769211769104004 21.71836090087891 8.770050048828125 21.71832847595215 8.770889282226562 C 21.71829414367676 8.771728515625 21.71825790405273 8.772566795349121 21.71822166442871 8.773405075073242 C 21.71818733215332 8.77424430847168 21.71814918518066 8.775083541870117 21.71811103820801 8.775922775268555 C 21.71807289123535 8.776762008666992 21.71803092956543 8.777600288391113 21.71798896789551 8.778439521789551 L 21.28021049499512 17.54916763305664 C 21.25146675109863 18.12498092651367 21.10261917114258 18.67376518249512 20.85824584960938 19.17299461364746 C 20.61395072937012 19.67206954956055 20.27417182922363 20.12165260314941 19.86344528198242 20.49925422668457 C 19.45281791687012 20.87676811218262 18.97123718261719 21.18236923217773 18.44318580627441 21.39357376098633 C 17.91520500183105 21.6047534942627 17.3406982421875 21.72159004211426 16.74410247802734 21.72159004211426 Z M 14.84286403656006 20.26338195800781 L 16.81491851806641 20.26338195800781 C 17.20474243164062 20.26338195800781 17.58010101318359 20.18734359741211 17.9250316619873 20.04991149902344 C 18.26999282836914 19.9124698638916 18.58454322814941 19.71361351013184 18.85269737243652 19.46798133850098 C 19.12088966369629 19.22230911254883 19.34268188476562 18.92983436584473 19.50206184387207 18.60519599914551 C 19.66147804260254 18.28049087524414 19.75845909118652 17.92359352111816 19.77697372436523 17.54916763305664 L 20.21037864685059 8.783985137939453 C 20.2147045135498 8.651755332946777 20.20355415344238 8.522014617919922 20.17784118652344 8.396714210510254 C 20.15212440490723 8.271402359008789 20.11184692382812 8.150533676147461 20.05791473388672 8.03605842590332 C 20.00398063659668 7.92157506942749 19.93639373779297 7.813487529754639 19.85607147216797 7.713749408721924 C 19.7757396697998 7.61400318145752 19.68267440795898 7.522608757019043 19.57778930664062 7.441518783569336 C 19.5767765045166 7.440739631652832 19.57577133178711 7.439957141876221 19.57476615905762 7.43917179107666 C 19.57376098632812 7.438385963439941 19.5727596282959 7.437597274780273 19.57175827026367 7.436805725097656 C 19.57075881958008 7.436013698577881 19.56975936889648 7.435218811035156 19.56875991821289 7.434421539306641 C 19.56776428222656 7.433623313903809 19.56677055358887 7.432822704315186 19.56577491760254 7.432018756866455 L 13.00762176513672 2.128655910491943 C 12.89622116088867 2.039142370223999 12.77851676940918 1.960808157920837 12.65594863891602 1.893657922744751 C 12.53337287902832 1.826504707336426 12.4059362411499 1.770537614822388 12.27507591247559 1.725760102272034 C 12.14421272277832 1.680981397628784 12.00992870330811 1.647393822669983 11.87366199493408 1.625000596046448 C 11.73739433288574 1.602607250213623 11.59914875030518 1.591408967971802 11.46036243438721 1.591408967971802 C 11.32144069671631 1.591408967971802 11.18198204040527 1.602628469467163 11.04342842102051 1.625069737434387 C 10.90487575531006 1.647510647773743 10.76723289489746 1.681173086166382 10.63194179534912 1.726059079170227 C 10.49665451049805 1.770943880081177 10.36371898651123 1.827050685882568 10.23457908630371 1.894381642341614 C 10.10544681549072 1.96170961856842 9.980111122131348 2.040259599685669 9.860017776489258 2.130033016204834 L 2.840395927429199 7.440244197845459 C 2.838986873626709 7.441309928894043 2.837574005126953 7.442371368408203 2.83615779876709 7.443428516387939 C 2.834741830825806 7.444484710693359 2.833321809768677 7.445535659790039 2.831898212432861 7.446582794189453 C 2.830475091934204 7.447630405426025 2.829047679901123 7.448672294616699 2.827617406845093 7.449710845947266 C 2.826186656951904 7.450748920440674 2.824752569198608 7.4517822265625 2.823315382003784 7.452811717987061 C 2.710660219192505 7.533432960510254 2.608970403671265 7.624398231506348 2.519341707229614 7.723755359649658 C 2.429718732833862 7.823108196258545 2.352156162261963 7.930850505828857 2.287749528884888 8.045035362243652 C 2.223347663879395 8.159211158752441 2.172100067138672 8.279826164245605 2.135101556777954 8.404932975769043 C 2.098105907440186 8.530028343200684 2.075356960296631 8.659614562988281 2.067949295043945 8.791739463806152 L 1.684215545654297 17.54916763305664 C 1.667809009552002 17.92359352111816 1.731504559516907 18.28049087524414 1.860633730888367 18.60519599914551 C 1.989737153053284 18.92983436584473 2.184252977371216 19.22230911254883 2.429533243179321 19.46798133850098 C 2.67477560043335 19.71361351013184 2.970781326293945 19.9124698638916 3.302923679351807 20.04991149902344 C 3.635037660598755 20.18734359741211 4.003307342529297 20.26338195800781 4.393128395080566 20.26338195800781 L 6.375855445861816 20.26338195800781 C 6.448623180389404 20.26338195800781 6.518635749816895 20.24935722351074 6.582918167114258 20.22400283813477 C 6.647202014923096 20.19865036010742 6.705756664276123 20.16197395324707 6.755608081817627 20.11667251586914 C 6.805460929870605 20.07137489318848 6.846611022949219 20.0174503326416 6.876081943511963 19.95760917663574 C 6.905553340911865 19.89776229858398 6.923346519470215 19.83199501037598 6.926484107971191 19.76301002502441 C 6.927138328552246 19.74862098693848 6.928216934204102 19.73432731628418 6.929707527160645 19.72014236450195 C 6.931198596954346 19.70595932006836 6.933102607727051 19.69188690185547 6.935405254364014 19.67792892456055 C 6.937707424163818 19.66397285461426 6.940410614013672 19.65013885498047 6.943500995635986 19.63643646240234 C 6.946590423583984 19.62273216247559 6.950068950653076 19.60915946960449 6.953921794891357 19.59572792053223 L 7.086114406585693 16.68952369689941 C 7.099530696868896 16.39446067810059 7.17447566986084 16.11269760131836 7.298460960388184 15.85588932037354 C 7.422464847564697 15.59903812408447 7.595521450042725 15.36715984344482 7.805126190185547 15.17191791534424 C 8.014755249023438 14.97664833068848 8.260932922363281 14.81803226470947 8.531142234802246 14.70773410797119 C 8.801370620727539 14.59743118286133 9.095617294311523 14.5354585647583 9.401351928710938 14.53348159790039 L 12.38574886322021 14.53346252441406 C 12.69344425201416 14.53346252441406 12.98393821716309 14.59395217895508 13.24570560455322 14.70326900482178 C 13.50745677947998 14.81257915496826 13.74047088623047 14.97070217132568 13.93323707580566 15.16597175598145 C 14.12598037719727 15.3612174987793 14.27847862243652 15.59359455108643 14.37923431396484 15.85143280029297 C 14.4799747467041 16.10923385620117 14.52898979187012 16.39248275756836 14.51479148864746 16.68952369689941 L 14.36743354797363 19.77254295349121 C 14.36427783966064 19.83816146850586 14.37520790100098 19.90104675292969 14.39767932891846 19.95861434936523 C 14.42014980316162 20.01618003845215 14.45416164398193 20.06842803955078 14.49717044830322 20.1127758026123 C 14.54018020629883 20.1571216583252 14.59218692779541 20.19356727600098 14.65065002441406 20.21953010559082 C 14.7091121673584 20.2454948425293 14.77402973175049 20.26097106933594 14.84286403656006 20.26338195800781 Z" stroke="none" fill="#557dbe"/>
    </g>
  </g>
</svg>
