<svg id="Iconly_Light_Home" data-name="Iconly/Light/Home" xmlns="http://www.w3.org/2000/svg" width="22.156" height="21.722" viewBox="0 0 22.156 21.722">
  <g id="Home">
    <g id="Home-2" data-name="Home" fill="none" stroke-linecap="round" stroke-linejoin="round" stroke-miterlimit="10">
      <path d="M7.7,19.763l.141-3.073a1.415,1.415,0,0,1,.14-.552,1.519,1.519,0,0,1,.335-.452,1.581,1.581,0,0,1,.481-.306,1.564,1.564,0,0,1,.578-.115h2.979a1.484,1.484,0,0,1,.571.112,1.393,1.393,0,0,1,.456.305,1.329,1.329,0,0,1,.385,1.007h0l-.147,3.083a1.139,1.139,0,0,0,.32.853,1.192,1.192,0,0,0,.381.263,1.27,1.27,0,0,0,.479.1h1.982a3.792,3.792,0,0,0,1.406-.27,3.842,3.842,0,0,0,1.174-.737,3.693,3.693,0,0,0,.821-1.094,3.434,3.434,0,0,0,.348-1.341h0l.436-8.771a2.348,2.348,0,0,0-.046-.553,2.3,2.3,0,0,0-.459-.98,2.34,2.34,0,0,0-.4-.389L13.506,1.552a3.111,3.111,0,0,0-.95-.521A3.3,3.3,0,0,0,11.494.858a3.448,3.448,0,0,0-1.078.174,3.491,3.491,0,0,0-1,.521L2.393,6.867a2.669,2.669,0,0,0-.433.388,2.6,2.6,0,0,0-.331.462,2.506,2.506,0,0,0-.219.518,2.413,2.413,0,0,0-.1.554L.932,17.549a3.226,3.226,0,0,0,.942,2.436,3.386,3.386,0,0,0,1.105.737,3.6,3.6,0,0,0,1.381.27H6.343a1.36,1.36,0,0,0,.921-.36,1.312,1.312,0,0,0,.292-.391,1.222,1.222,0,0,0,.122-.479h0" stroke="none"/>
      <path d="M 16.74385833740234 21.72171211242676 L 14.76202964782715 21.72171211242676 C 14.76057815551758 21.72171211242676 14.75912666320801 21.72170639038086 14.75767707824707 21.72169876098633 C 14.75622653961182 21.7216911315918 14.75477504730225 21.7216796875 14.75332450866699 21.7216625213623 C 14.75187397003174 21.72164535522461 14.7504243850708 21.72162437438965 14.74897384643555 21.72160148620605 C 14.74752330780029 21.72157669067383 14.74607276916504 21.72154808044434 14.7446231842041 21.72151756286621 C 14.47301864624023 21.71538925170898 14.21663856506348 21.65617942810059 13.98562049865723 21.55440711975098 C 13.75459003448486 21.45262908935547 13.54891395568848 21.30827713012695 13.37874317169189 21.13186836242676 C 13.20855522155762 20.9554386138916 13.07387351989746 20.7469367980957 12.98486137390137 20.51688194274902 C 12.89583778381348 20.28679847717285 12.85249328613281 20.03514671325684 12.8650016784668 19.77245903015137 L 13.01090812683105 16.68964576721191 C 13.01542472839355 16.59418296813965 12.99935150146484 16.50316429138184 12.96642971038818 16.42033386230469 C 12.93350982666016 16.33749771118164 12.88374328613281 16.26284980773926 12.82088279724121 16.20013236999512 C 12.75801849365234 16.13741493225098 12.68206119537354 16.08663177490234 12.59675884246826 16.05152893066406 C 12.51145553588867 16.01642608642578 12.41680812835693 15.99699878692627 12.31657314300537 15.99699878692627 L 9.338527679443359 15.99699878692627 C 9.240191459655762 15.99764156341553 9.145295143127441 16.01754760742188 9.05799388885498 16.05296897888184 C 8.970694541931152 16.08839416503906 8.8909912109375 16.13933563232422 8.823036193847656 16.20205307006836 C 8.755084037780762 16.2647647857666 8.698879241943359 16.33925247192383 8.658575057983398 16.4217700958252 C 8.618271827697754 16.5042781829834 8.593866348266602 16.59481430053711 8.589509010314941 16.68963813781738 L 8.448269844055176 19.76313209533691 C 8.447434425354004 19.78130149841309 8.445923805236816 19.79931640625 8.443759918212891 19.81715393066406 C 8.441596031188965 19.83498954772949 8.438780784606934 19.85264587402344 8.435338973999023 19.8701057434082 C 8.43189525604248 19.8875617980957 8.427826881408691 19.90481758117676 8.423152923583984 19.92185020446777 C 8.418481826782227 19.93888092041016 8.413207054138184 19.95569038391113 8.407355308532715 19.97224807739258 C 8.368955612182617 20.21786117553711 8.283970832824707 20.45002746582031 8.161758422851562 20.66010856628418 C 8.03956413269043 20.87016487121582 7.880148887634277 21.05814552307129 7.692863941192627 21.21542549133301 C 7.50559663772583 21.3726863861084 7.290457725524902 21.4992618560791 7.056788921356201 21.58651924133301 C 6.823132514953613 21.67376899719238 6.570935726165771 21.72171211242676 6.309531688690186 21.72171211242676 L 4.327704429626465 21.72171211242676 C 3.731108665466309 21.72171211242676 3.167500019073486 21.6048755645752 2.659212350845337 21.39369583129883 C 2.150858163833618 21.18249130249023 1.697779417037964 20.87689018249512 1.322358965873718 20.49937629699707 C 0.9468503594398499 20.12177467346191 0.6490030288696289 19.67219161987305 0.4512516558170319 19.17311668395996 C 0.2534389793872833 18.67388916015625 0.1557724475860596 18.12510299682617 0.1807342022657394 17.54928970336914 L 0.5605325102806091 8.788161277770996 C 0.5605587959289551 8.787557601928711 0.5605855584144592 8.786952018737793 0.5606131553649902 8.786348342895508 C 0.5606405735015869 8.785743713378906 0.5606685280799866 8.785138130187988 0.5606974363327026 8.784533500671387 C 0.5607261061668396 8.783927917480469 0.5607553720474243 8.783324241638184 0.5607854127883911 8.782718658447266 C 0.5608154535293579 8.782114028930664 0.5608461499214172 8.781508445739746 0.56087726354599 8.780903816223145 C 0.5740426778793335 8.534775733947754 0.6156262159347534 8.293417930603027 0.6836109161376953 8.060439109802246 C 0.7516055107116699 7.827428817749023 0.8460081815719604 7.602802753448486 0.9647998213768005 7.390177249908447 C 1.083606958389282 7.177523136138916 1.226808071136475 6.976874828338623 1.392380833625793 6.791848659515381 C 1.55797266960144 6.606800556182861 1.745938062667847 6.437381744384766 1.954252362251282 6.287210464477539 L 8.970881462097168 0.9762749075889587 C 9.155858993530273 0.8379164338111877 9.351274490356445 0.7151836156845093 9.554574966430664 0.6089097857475281 C 9.757887840270996 0.5026289224624634 9.969081878662109 0.4128113985061646 10.18560123443604 0.3402899205684662 C 10.40213108062744 0.2677651643753052 10.62398052215576 0.212539479136467 10.84859752655029 0.1754446178674698 C 11.07321739196777 0.1383488923311234 11.30059814453125 0.1193857714533806 11.52818012237549 0.1193857714533806 C 11.75576210021973 0.1193857714533806 11.98137187957764 0.1383488923311234 12.20248031616211 0.1754013895988464 C 12.42358016967773 0.2124529629945755 12.64017200469971 0.2675921618938446 12.84972381591797 0.339944064617157 C 13.05926609039307 0.4122926592826843 13.26176357269287 0.5018507838249207 13.45468425750732 0.6077426671981812 C 13.64759349822998 0.7136275768280029 13.83092212677002 0.8358418345451355 14.00214385986328 0.9735090136528015 L 20.5569953918457 6.277409076690674 C 20.75036811828613 6.427772998809814 20.92183876037598 6.597286224365234 21.06972122192383 6.782328128814697 C 21.21758651733398 6.967347621917725 21.34186744689941 7.167888641357422 21.44087791442871 7.380330562591553 C 21.53986930847168 7.59274435043335 21.61359977722168 7.817052364349365 21.66037750244141 8.049637794494629 C 21.70714950561523 8.282188415527344 21.72697639465332 8.523012161254883 21.71817779541016 8.768492698669434 C 21.71814918518066 8.76933479309082 21.71811485290527 8.770173072814941 21.71808433532715 8.771012306213379 C 21.71805000305176 8.771851539611816 21.71801376342773 8.772689819335938 21.71797752380371 8.773528099060059 C 21.71794128417969 8.774367332458496 21.71790313720703 8.775205612182617 21.71786499023438 8.776044845581055 C 21.71782875061035 8.776884078979492 21.71778678894043 8.777722358703613 21.71774482727051 8.778562545776367 L 21.27996444702148 17.54928970336914 C 21.25122261047363 18.12510299682617 21.10237312316895 18.67388916015625 20.85800170898438 19.17311668395996 C 20.61370468139648 19.67219161987305 20.27392578125 20.12177467346191 19.86320114135742 20.49937629699707 C 19.45257186889648 20.87689018249512 18.97099113464355 21.18249130249023 18.44294166564941 21.39369583129883 C 17.91496086120605 21.6048755645752 17.3404541015625 21.72171211242676 16.74385833740234 21.72171211242676 Z M 14.84261894226074 20.26350402832031 L 16.81467437744141 20.26350402832031 C 17.20449829101562 20.26350402832031 17.57985687255859 20.18746566772461 17.9247875213623 20.05003356933594 C 18.26974868774414 19.9125919342041 18.58429908752441 19.71373558044434 18.85245132446289 19.46810340881348 C 19.12064552307129 19.22243118286133 19.34243774414062 18.92995643615723 19.50181770324707 18.60531806945801 C 19.66123390197754 18.28061294555664 19.75821495056152 17.9237174987793 19.7767276763916 17.54928970336914 L 20.21013259887695 8.78410816192627 C 20.21445846557617 8.651877403259277 20.20330810546875 8.522136688232422 20.1775951385498 8.396836280822754 C 20.15188026428223 8.271525382995605 20.11160087585449 8.150656700134277 20.05766868591309 8.036181449890137 C 20.00373458862305 7.921697616577148 19.93614768981934 7.813610553741455 19.85582542419434 7.713871955871582 C 19.77549362182617 7.614126205444336 19.68242835998535 7.522731781005859 19.57754325866699 7.441641330718994 C 19.5765323638916 7.44086217880249 19.57552528381348 7.440079689025879 19.57452201843262 7.439294338226318 C 19.57351493835449 7.4385085105896 19.57251358032227 7.437719821929932 19.57151412963867 7.436928272247314 C 19.57051277160645 7.436136722564697 19.56951332092285 7.435341835021973 19.56851577758789 7.434544086456299 C 19.56751823425293 7.433745861053467 19.56652450561523 7.432945251464844 19.56553077697754 7.432141304016113 L 13.0073766708374 2.12877893447876 C 12.89597606658936 2.039265155792236 12.77827072143555 1.960931062698364 12.65570259094238 1.893780827522278 C 12.53312683105469 1.826627612113953 12.40569114685059 1.770660519599915 12.27482986450195 1.725883007049561 C 12.14396667480469 1.681104421615601 12.00968265533447 1.64751672744751 11.87341690063477 1.625123620033264 C 11.73714923858643 1.602730274200439 11.59890270233154 1.591531872749329 11.46011638641357 1.591531872749329 C 11.32119560241699 1.591531872749329 11.18173599243164 1.60275137424469 11.04318237304688 1.625192642211914 C 10.90463066101074 1.64763355255127 10.76698684692383 1.681295990943909 10.63169574737549 1.726181983947754 C 10.49640846252441 1.771066784858704 10.3634729385376 1.827173590660095 10.23433399200439 1.894504547119141 C 10.10520076751709 1.961832642555237 9.979865074157715 2.040382623672485 9.859771728515625 2.13015604019165 L 2.840150594711304 7.440366744995117 C 2.838741302490234 7.441432952880859 2.837328672409058 7.442493915557861 2.835912466049194 7.443551063537598 C 2.834496259689331 7.444607257843018 2.833076477050781 7.445658206939697 2.831652879714966 7.446705341339111 C 2.830229759216309 7.447752952575684 2.828802108764648 7.448794841766357 2.827372074127197 7.449833393096924 C 2.825941324234009 7.450871467590332 2.824507236480713 7.451904773712158 2.82306981086731 7.452934741973877 C 2.710414886474609 7.53355598449707 2.60872483253479 7.624520778656006 2.51909613609314 7.723878383636475 C 2.429473400115967 7.823230743408203 2.351910829544067 7.930973529815674 2.287504196166992 8.045157432556152 C 2.223102331161499 8.159333229064941 2.171854496002197 8.279949188232422 2.134855985641479 8.405055046081543 C 2.09786057472229 8.5301513671875 2.075111627578735 8.659736633300781 2.06770396232605 8.791861534118652 L 1.683970928192139 17.54928970336914 C 1.667564392089844 17.9237174987793 1.731259942054749 18.28061294555664 1.860389113426208 18.60531806945801 C 1.989492535591125 18.92995643615723 2.184008359909058 19.22243118286133 2.429288625717163 19.46810340881348 C 2.674531221389771 19.71373558044434 2.970536708831787 19.9125919342041 3.302679300308228 20.05003356933594 C 3.634793043136597 20.18746566772461 4.003063201904297 20.26350402832031 4.392883777618408 20.26350402832031 L 6.375611305236816 20.26350402832031 C 6.448379039764404 20.26350402832031 6.518391132354736 20.24947929382324 6.582674026489258 20.2241268157959 C 6.646957397460938 20.19877243041992 6.705512046813965 20.16209602355957 6.755363464355469 20.11679458618164 C 6.805216789245605 20.07149696350098 6.846366882324219 20.0175724029541 6.875837326049805 19.95773124694824 C 6.905309200286865 19.89788436889648 6.923102378845215 19.83211708068848 6.926239967346191 19.76313209533691 C 6.926894187927246 19.74874305725098 6.927972316741943 19.73444938659668 6.929462909698486 19.72026443481445 C 6.930953979492188 19.70608139038086 6.932857990264893 19.69200897216797 6.935160636901855 19.67805099487305 C 6.93746280670166 19.66409492492676 6.940165996551514 19.65026092529297 6.943256378173828 19.63655853271484 C 6.946345806121826 19.62285423278809 6.949824810028076 19.60928153991699 6.953677177429199 19.59585189819336 L 7.085869312286377 16.68964576721191 C 7.099286079406738 16.39458465576172 7.174231052398682 16.11281967163086 7.298215866088867 15.85601139068604 C 7.422219753265381 15.59916114807129 7.595276355743408 15.36728286743164 7.804881572723389 15.17203998565674 C 8.014511108398438 14.97677040100098 8.260687828063965 14.81815528869629 8.530898094177246 14.70785713195801 C 8.801125526428223 14.59755325317383 9.095372200012207 14.5355806350708 9.401106834411621 14.53360462188721 L 12.38550472259521 14.53358554840088 C 12.69319915771484 14.53358554840088 12.98369312286377 14.59407424926758 13.24546146392822 14.70339202880859 C 13.50721168518066 14.81270122528076 13.74022579193115 14.9708251953125 13.93299198150635 15.16609382629395 C 14.12573528289795 15.36134052276611 14.27823352813721 15.59371662139893 14.37898921966553 15.85155487060547 C 14.4797306060791 16.10935592651367 14.5287446975708 16.39260482788086 14.51454639434814 16.68964576721191 L 14.36718845367432 19.77266502380371 C 14.36403274536133 19.83828353881836 14.37496376037598 19.90116882324219 14.39743423461914 19.95873641967773 C 14.41990566253662 20.01630210876465 14.45391654968262 20.06855010986328 14.49692630767822 20.1128978729248 C 14.53993606567383 20.1572437286377 14.59194183349609 20.19368934631348 14.65040493011475 20.21965408325195 C 14.7088680267334 20.2456169128418 14.77378559112549 20.26109313964844 14.84261894226074 20.26350402832031 Z" stroke="none" fill="#747472"/>
    </g>
  </g>
</svg>
