<svg xmlns="http://www.w3.org/2000/svg" width="33" height="33" viewBox="0 0 33 33">
  <g id="ic-cart" transform="translate(-0.063 0.352)">
    <rect id="Rectangle" width="33" height="33" transform="translate(0.063 -0.352)" fill="none"/>
    <path id="Shape" d="M0,2.671A2.659,2.659,0,1,1,2.666,5.319,2.66,2.66,0,0,1,0,2.671Z" transform="translate(11.625 22.666)" fill="#fff"/>
    <path id="Shape-2" data-name="Shape" d="M0,2.671A2.659,2.659,0,1,1,2.666,5.319,2.66,2.66,0,0,1,0,2.671Z" transform="translate(18.716 22.666)" fill="#fff"/>
    <path id="Shape-3" data-name="Shape" d="M5.62,16.735,2.837,1.773H.886A.887.887,0,0,1,.886,0H4.307l.5,2.659H25.031l-1.56,9.166A1.77,1.77,0,0,1,21.7,13.3H6.789l.3,1.667H19.8a.887.887,0,0,1,0,1.773Z" transform="translate(4.428 4.938)" fill="#fff"/>
  </g>
</svg>
