<svg xmlns="http://www.w3.org/2000/svg" width="24.565" height="16.988" viewBox="0 0 24.565 16.988">
  <path id="Icon_ionic-md-arrow-round-forward" data-name="Icon ionic-md-arrow-round-forward" d="M13.662,22.838l7.067-6.858a1.559,1.559,0,0,0,.461-1.146v-.02a1.559,1.559,0,0,0-.461-1.146L13.662,6.81a1.513,1.513,0,0,0-2.211,0,1.693,1.693,0,0,0,0,2.313L15.7,13.186H-1.8a1.6,1.6,0,0,0-1.571,1.638,1.592,1.592,0,0,0,1.566,1.638h17.5l-4.248,4.063a1.693,1.693,0,0,0,0,2.313A1.519,1.519,0,0,0,13.662,22.838Z" transform="translate(3.375 -6.33)" fill="#fff"/>
</svg>
