<svg xmlns="http://www.w3.org/2000/svg" width="17.852" height="28.563" viewBox="0 0 17.852 28.563">
  <path id="Icon_metro-location" data-name="Icon metro-location" d="M17.281,1.928a8.926,8.926,0,0,0-8.926,8.926c0,8.926,8.926,19.637,8.926,19.637s8.926-10.711,8.926-19.637a8.926,8.926,0,0,0-8.926-8.926Zm0,14.393a5.467,5.467,0,1,1,5.467-5.467A5.467,5.467,0,0,1,17.281,16.321Zm-3.459-5.467a3.459,3.459,0,1,1,3.459,3.459A3.459,3.459,0,0,1,13.822,10.854Z" transform="translate(-8.355 -1.928)" fill="#fff"/>
</svg>
