<svg xmlns="http://www.w3.org/2000/svg" width="26.786" height="26.785" viewBox="0 0 26.786 26.785">
  <path id="Icon_material-my-location" data-name="Icon material-my-location" d="M14.893,10.023a4.87,4.87,0,1,0,4.87,4.87A4.869,4.869,0,0,0,14.893,10.023Zm10.885,3.653A10.951,10.951,0,0,0,16.11,4.008V1.5H13.675V4.008a10.951,10.951,0,0,0-9.667,9.667H1.5V16.11H4.008a10.951,10.951,0,0,0,9.667,9.667v2.508H16.11V25.777a10.951,10.951,0,0,0,9.667-9.667h2.508V13.675Zm-10.885,9.74a8.523,8.523,0,1,1,8.523-8.523A8.516,8.516,0,0,1,14.893,23.415Z" transform="translate(-1.5 -1.5)" fill="#9d9d9c"/>
</svg>
