<svg id="Group_12596" data-name="Group 12596" xmlns="http://www.w3.org/2000/svg" width="21.333" height="21.333" viewBox="0 0 21.333 21.333">
  <path id="Path_5411" data-name="Path 5411" d="M382.044,101.447h0a10.666,10.666,0,0,1-10.666-10.666h0a10.666,10.666,0,0,1,10.666-10.667h0a10.667,10.667,0,0,1,10.667,10.667h0A10.667,10.667,0,0,1,382.044,101.447Z" transform="translate(-371.378 -80.114)" fill="#557dbe"/>
  <g id="Group_4200" data-name="Group 4200" transform="translate(4.818 4.818)">
    <path id="Path_5412" data-name="Path 5412" d="M393.425,97.368c1.562,0,1.747.006,2.363.034a3.236,3.236,0,0,1,1.086.2,1.938,1.938,0,0,1,1.11,1.11,3.236,3.236,0,0,1,.2,1.086c.028.617.034.8.034,2.363s-.006,1.746-.034,2.363a3.232,3.232,0,0,1-.2,1.086,1.937,1.937,0,0,1-1.11,1.11,3.23,3.23,0,0,1-1.086.2c-.617.028-.8.034-2.363.034s-1.746-.006-2.363-.034a3.226,3.226,0,0,1-1.086-.2,1.937,1.937,0,0,1-1.11-1.11,3.244,3.244,0,0,1-.2-1.086c-.028-.617-.034-.8-.034-2.363s.006-1.747.034-2.363a3.248,3.248,0,0,1,.2-1.086,1.938,1.938,0,0,1,1.11-1.11,3.232,3.232,0,0,1,1.086-.2c.617-.028.8-.034,2.363-.034m0-1.054c-1.588,0-1.787.007-2.411.035a4.3,4.3,0,0,0-1.42.272,2.99,2.99,0,0,0-1.71,1.71,4.292,4.292,0,0,0-.272,1.42c-.029.624-.035.823-.035,2.411s.007,1.787.035,2.411a4.294,4.294,0,0,0,.272,1.42,2.991,2.991,0,0,0,1.71,1.71,4.3,4.3,0,0,0,1.42.272c.624.028.823.035,2.411.035s1.787-.007,2.411-.035a4.3,4.3,0,0,0,1.42-.272,2.991,2.991,0,0,0,1.71-1.71,4.3,4.3,0,0,0,.272-1.42c.028-.624.035-.823.035-2.411s-.007-1.787-.035-2.411a4.3,4.3,0,0,0-.272-1.42,2.99,2.99,0,0,0-1.71-1.71,4.3,4.3,0,0,0-1.42-.272c-.624-.028-.823-.035-2.411-.035" transform="translate(-387.577 -96.314)" fill="#fff"/>
    <path id="Path_5413" data-name="Path 5413" d="M400.147,105.88a3,3,0,1,0,3,3,3,3,0,0,0-3-3m0,4.953a1.95,1.95,0,1,1,1.95-1.95,1.949,1.949,0,0,1-1.95,1.95" transform="translate(-394.299 -103.035)" fill="#fff"/>
    <path id="Path_5414" data-name="Path 5414" d="M416.782,103.824a.7.7,0,1,1-.7-.7.7.7,0,0,1,.7.7" transform="translate(-407.109 -101.097)" fill="#fff"/>
  </g>
</svg>
