<svg xmlns="http://www.w3.org/2000/svg" width="36.158" height="36.253" viewBox="0 0 36.158 36.253">
  <path id="invite" d="M35.073,13.416l-4.5-3.76V7.669a2.747,2.747,0,0,0-2.744-2.744h-2.92L20.318,1.093a3.509,3.509,0,0,0-4.579,0L11.151,4.926H8.231A2.747,2.747,0,0,0,5.487,7.669V9.656l-4.5,3.76A2.745,2.745,0,0,0,0,15.522V32.74a3.531,3.531,0,0,0,3.527,3.527h29a3.531,3.531,0,0,0,3.527-3.527V15.522A2.746,2.746,0,0,0,35.073,13.416Zm-4.5-.7,2.477,2.069-2.477,2.069ZM17.252,2.894l.011-.01a1.17,1.17,0,0,1,1.53,0l.011.01,2.433,2.032H14.819ZM7.839,10.2h0V7.669a.392.392,0,0,1,.392-.392h19.6a.392.392,0,0,1,.392.392V10.2h0v8.624l-9.414,7.862-.011.01a1.17,1.17,0,0,1-1.53,0l-.011-.01L7.839,18.822ZM5.487,12.72v4.138L3.01,14.789ZM33.706,32.74a1.177,1.177,0,0,1-1.176,1.176h-29A1.177,1.177,0,0,1,2.352,32.74V17.3L15.739,28.485a3.509,3.509,0,0,0,4.579,0l9.825-8.206h0L33.706,17.3Z" transform="translate(0.05 -0.064)" fill="#557dbe" stroke="#557dbe" stroke-width="0.1"/>
</svg>
