<svg id="Iconly_Light_Heart" data-name="Iconly/Light/Heart" xmlns="http://www.w3.org/2000/svg" width="21.247" height="19.625" viewBox="0 0 21.247 19.625">
  <g id="Heart">
    <g id="Path_33961" fill="none" stroke-linecap="round" stroke-linejoin="round" stroke-miterlimit="10">
      <path d="M10.371,18.75q-.839-.5-1.648-1.047T7.135,16.568q-.778-.589-1.523-1.219t-1.455-1.3a12.1,12.1,0,0,1-1.751-2.129A12,12,0,0,1,1.187,9.453,7.6,7.6,0,0,1,.8,6.884,6.814,6.814,0,0,1,1.3,4.427,5.794,5.794,0,0,1,5,1.066a6.307,6.307,0,0,1,5.622.925h0a6.328,6.328,0,0,1,5.622-.925,5.8,5.8,0,0,1,3.695,3.362,6.808,6.808,0,0,1,.51,2.456,7.577,7.577,0,0,1-.39,2.57,12.044,12.044,0,0,1-2.034,3.578,12.143,12.143,0,0,1-.939,1.017q-.71.67-1.456,1.3T14.1,16.568q-.778.588-1.588,1.134T10.865,18.75l-.242.146Z" stroke="none"/>
      <path d="M 10.6223611831665 19.62538909912109 C 10.58899593353271 19.62538909912109 10.55562591552734 19.62322998046875 10.52248477935791 19.6189136505127 C 10.48934268951416 19.61460304260254 10.45642852783203 19.60812950134277 10.42397212982178 19.59949493408203 C 10.39151287078857 19.59086036682129 10.35951232910156 19.58006477355957 10.32819938659668 19.56711006164551 C 10.29688739776611 19.55415153503418 10.26625919342041 19.53903007507324 10.23655223846436 19.52174758911133 L 9.985029220581055 19.37541198730469 C 9.984383583068848 19.37503433227539 9.983737945556641 19.37465858459473 9.98309326171875 19.37428283691406 C 9.982449531555176 19.37390327453613 9.981805801391602 19.37352561950684 9.981162071228027 19.37314605712891 C 9.980518341064453 19.37276649475098 9.979875564575195 19.37238693237305 9.979233741760254 19.37200736999512 C 9.978591918945312 19.37162780761719 9.977951049804688 19.37124252319336 9.977310180664062 19.3708610534668 C 9.407371520996094 19.0301570892334 8.84658145904541 18.67380523681641 8.295864105224609 18.30249786376953 C 7.745019435882568 17.93110847473145 7.204237937927246 17.54474258422852 6.674445152282715 17.14409637451172 C 6.144519805908203 16.74335098266602 5.625577449798584 16.32830810546875 5.118543148040771 15.89966011047363 C 4.611374378204346 15.47089862823486 4.116110801696777 15.02851676940918 3.633679389953613 14.57320404052734 C 3.633139848709106 14.5726957321167 3.632600069046021 14.57218742370605 3.632060289382935 14.57167339324951 C 3.631520509719849 14.5711612701416 3.6309814453125 14.57064914703369 3.63044285774231 14.57013511657715 C 3.629903793334961 14.56962108612061 3.629366159439087 14.56910705566406 3.628829002380371 14.56859111785889 C 3.628291368484497 14.56807422637939 3.627755880355835 14.56755924224854 3.627220392227173 14.56704044342041 C 3.276058912277222 14.22756767272949 2.944594144821167 13.86770915985107 2.634668588638306 13.49030113220215 C 2.324670314788818 13.1128044128418 2.036213636398315 12.71773815155029 1.771142959594727 12.30793571472168 C 1.506004810333252 11.89802932739258 1.264259934425354 11.47336959838867 1.047757148742676 11.03679847717285 C 0.831195592880249 10.60010623931885 0.6398863792419434 10.15148735046387 0.4756821691989899 9.693781852722168 C 0.4752140045166016 9.692478179931641 0.4747496247291565 9.691173553466797 0.4742890000343323 9.689866065979004 C 0.4738284051418304 9.68856143951416 0.4733714759349823 9.687253952026367 0.4729183912277222 9.685945510864258 C 0.4724652469158173 9.684636116027832 0.4720158874988556 9.68332576751709 0.4715703427791595 9.682016372680664 C 0.4711247384548187 9.680704116821289 0.4706829190254211 9.67939281463623 0.4702448546886444 9.678078651428223 C 0.3152765929698944 9.212712287902832 0.2020063996315002 8.741020202636719 0.1303144097328186 8.268646240234375 C 0.05860142409801483 7.79613208770752 0.02849102579057217 7.322933673858643 0.03986410796642303 6.854701995849609 C 0.05124050006270409 6.386334419250488 0.1041244789958 5.922939777374268 0.1983959525823593 5.470178127288818 C 0.2926939129829407 5.017289638519287 0.428401380777359 4.575047492980957 0.6053955554962158 4.149121284484863 C 0.7960958480834961 3.690213203430176 1.031398057937622 3.261971473693848 1.307064533233643 2.868288278579712 C 1.58279812335968 2.474509477615356 1.898903965950012 2.115323305130005 2.25113320350647 1.794623732566833 C 2.603432893753052 1.473860502243042 2.991853952407837 1.191614866256714 3.412137985229492 0.9517799019813538 C 3.832484006881714 0.7119093537330627 4.284681797027588 0.5144748687744141 4.764460563659668 0.3633663952350616 C 4.93672513961792 0.3091593384742737 5.110666751861572 0.2616334557533264 5.285975933074951 0.220835953950882 C 5.461290836334229 0.1800374537706375 5.6379714012146 0.1459679901599884 5.81571102142334 0.118674710392952 C 5.993451595306396 0.09138089418411255 6.172250747680664 0.07086372375488281 6.351796627044678 0.05716985464096069 C 6.531343936920166 0.04347587004303932 6.711636066436768 0.0366055928170681 6.892366886138916 0.0366055928170681 C 7.220490455627441 0.0366055928170681 7.548102855682373 0.05993394553661346 7.872306823730469 0.1056466698646545 C 8.196502685546875 0.1513580530881882 8.517277717590332 0.2194512337446213 8.831744194030762 0.3089807033538818 C 9.14619255065918 0.3985051512718201 9.454322814941406 0.5094610452651978 9.753238677978516 0.6409013271331787 C 10.05213260650635 0.7723310589790344 10.34180641174316 0.9242382645606995 10.61937046051025 1.095675110816956 C 10.89719104766846 0.9244068264961243 11.18710041046143 0.772645890712738 11.4862003326416 0.6413410902023315 C 11.78532314300537 0.5100255608558655 12.0936336517334 0.3991728127002716 12.40823364257812 0.3097304999828339 C 12.72285079956055 0.2202832102775574 13.04374980926514 0.1522510349750519 13.36802959442139 0.1065801456570625 C 13.69231986999512 0.06090798601508141 14.01998329162598 0.03759963810443878 14.34812068939209 0.03759963810443878 C 14.52863597869873 0.03759963810443878 14.70871639251709 0.04444589093327522 14.88804912567139 0.05809081718325615 C 15.06738185882568 0.07173563539981842 15.24596309661865 0.09217876940965652 15.42348480224609 0.1193722486495972 C 15.6010046005249 0.1465652734041214 15.77746200561523 0.1805082857608795 15.95254707336426 0.2211531847715378 C 16.12762451171875 0.2617970705032349 16.30133247375488 0.3091421127319336 16.47335052490234 0.3631401062011719 C 16.95327949523926 0.5143248438835144 17.40563201904297 0.7117968797683716 17.82614707946777 0.9516708254814148 C 18.2465991973877 1.191509127616882 18.63520240783691 1.473724126815796 18.98770713806152 1.794427275657654 C 19.34014129638672 2.115066528320312 19.65647315979004 2.474163293838501 19.93247413635254 2.867827892303467 C 20.20839881896973 3.261396169662476 20.44399452209473 3.689498901367188 20.63503265380859 4.148247241973877 C 20.8125171661377 4.574455738067627 20.94862937927246 5.016929626464844 21.04323577880859 5.469995975494385 C 21.1378173828125 5.922935962677002 21.19091987609863 6.386457443237305 21.20241737365723 6.854898452758789 C 21.21391296386719 7.323203086853027 21.1838321685791 7.796422958374023 21.11205101013184 8.268903732299805 C 21.04029273986816 8.741247177124023 20.9268627166748 9.212852478027344 20.77163124084473 9.678078651428223 C 20.77119636535645 9.67939281463623 20.77075386047363 9.680704116821289 20.77031135559082 9.682016372680664 C 20.76986503601074 9.68332576751709 20.76941680908203 9.684636116027832 20.76896476745605 9.685945510864258 C 20.76851081848145 9.687253952026367 20.76805305480957 9.68856143951416 20.7675895690918 9.689866065979004 C 20.76712989807129 9.691173553466797 20.76666450500488 9.692478179931641 20.76619720458984 9.693781852722168 C 20.60169982910156 10.1514778137207 20.41010475158691 10.60008907318115 20.19326210021973 11.03677654266357 C 19.97647857666016 11.47334289550781 19.73446083068848 11.89799880981445 19.46905899047852 12.30790710449219 C 19.2037239074707 12.7177095413208 18.91500854492188 13.11277866363525 18.60476493835449 13.4902811050415 C 18.29458999633789 13.8676929473877 17.962890625 14.22755813598633 17.61150550842285 14.56704044342041 C 17.61096954345703 14.56755924224854 17.61043167114258 14.56807422637939 17.60989570617676 14.56859111785889 C 17.6093578338623 14.56910705566406 17.60881805419922 14.56962108612061 17.60827827453613 14.57013702392578 C 17.60774040222168 14.57065200805664 17.60720062255859 14.57116508483887 17.60666275024414 14.57167911529541 C 17.60612487792969 14.57219314575195 17.60558128356934 14.57270336151123 17.60503959655762 14.57321357727051 C 17.1223087310791 15.02852630615234 16.62675666809082 15.47090721130371 16.11930656433105 15.89966869354248 C 15.61198997497559 16.32831573486328 15.0927791595459 16.74335670471191 14.56259250640869 17.14410018920898 C 14.03253841400146 17.54474449157715 13.49150657653809 17.93111038208008 12.94042015075684 18.3025016784668 C 12.38946151733398 18.67380714416504 11.828444480896 19.0301570892334 11.25828838348389 19.3708610534668 L 11.01901531219482 19.51537132263184 C 10.98867225646973 19.5336971282959 10.95731163024902 19.54973411560059 10.92519283294678 19.56348609924316 C 10.89307308197021 19.57723426818848 10.86018848419189 19.58869743347168 10.82679748535156 19.59786605834961 C 10.79340553283691 19.60703659057617 10.7595043182373 19.61391830444336 10.7253475189209 19.61850547790527 C 10.69118976593018 19.62309265136719 10.65677738189697 19.62538909912109 10.6223611831665 19.62538909912109 Z M 4.683958053588867 13.52706909179688 C 5.136067867279053 13.95391941070557 5.59991979598999 14.36891651153564 6.074689865112305 14.77144432067871 C 6.549342632293701 15.17387390136719 7.034914493560791 15.56384563446045 7.530583381652832 15.94074821472168 C 8.026137351989746 16.31756401062012 8.531791687011719 16.68132019042969 9.046724319458008 17.03141021728516 C 9.56154727935791 17.38142395019531 10.08565330505371 17.7177791595459 10.61822509765625 18.03985786437988 C 11.15148258209229 17.71742057800293 11.67611598968506 17.38083076477051 12.19134712219238 17.03066444396973 C 12.70669078826904 16.68042755126953 13.21263980865479 16.31660842895508 13.70841312408447 15.93979454040527 C 14.20430374145508 15.56289482116699 14.69002342224121 15.17298698425293 15.164794921875 14.77066135406494 C 15.63968563079834 14.36823749542236 16.1036262512207 13.95338249206543 16.55584144592285 13.52668285369873 C 16.86596870422363 13.22661781311035 17.15874862670898 12.90857601165771 17.43255233764648 12.57505226135254 C 17.70641899108887 12.24145984649658 17.96131324768066 11.89236927032471 18.19560813903809 11.53027534484863 C 18.42996215820312 11.1681022644043 18.64370918273926 10.79291343688965 18.83522987365723 10.40720558166504 C 19.02679634094238 10.02140617370605 19.19612884521484 9.625078201293945 19.34159851074219 9.220723152160645 C 19.57452774047852 8.518789291381836 19.69626998901367 7.769608497619629 19.69453620910645 7.023757457733154 C 19.69280433654785 6.277562618255615 19.5674877166748 5.534703254699707 19.30628204345703 4.845895767211914 C 19.04496574401855 4.156794548034668 18.64766502380371 3.52183723449707 18.10211944580078 2.991857767105103 C 17.55639457702637 2.461704015731812 16.86239433288574 2.03666615486145 16.00795745849609 1.767634153366089 C 15.87351989746094 1.725454092025757 15.73772811889648 1.688463807106018 15.600830078125 1.656704068183899 C 15.46393585205078 1.624944090843201 15.32593822479248 1.598415374755859 15.18709659576416 1.577159404754639 C 15.04825210571289 1.555902719497681 14.90856456756592 1.539919137954712 14.76828670501709 1.529249906539917 C 14.62800788879395 1.518580317497253 14.48714065551758 1.513224959373474 14.34593963623047 1.513224959373474 C 14.05328369140625 1.513224959373474 13.76108551025391 1.536921143531799 13.47269821166992 1.583220958709717 C 13.18431854248047 1.629519462585449 12.89975833892822 1.698418974876404 12.62237167358398 1.788825631141663 C 12.34500217437744 1.87922728061676 12.07480907440186 1.991130709648132 11.81514930725098 2.123440980911255 C 11.55551052093506 2.255740404129028 11.3064079284668 2.408439636230469 11.07119178771973 2.580441951751709 C 11.0376501083374 2.60496973991394 11.00253677368164 2.626430511474609 10.96624946594238 2.64482593536377 C 10.92995929718018 2.663220643997192 10.89249420166016 2.678550004959106 10.85424900054932 2.690814256668091 C 10.81600093841553 2.703077554702759 10.77697086334229 2.712275981903076 10.73755168914795 2.718409061431885 C 10.69813346862793 2.724542140960693 10.65832614898682 2.727610349655151 10.61852359771729 2.727613210678101 C 10.57866287231445 2.727616310119629 10.53880500793457 2.724545001983643 10.49934482574463 2.718400239944458 C 10.45988464355469 2.712255001068115 10.42082214355469 2.703036546707153 10.38254642486572 2.690743923187256 C 10.34426879882812 2.678450584411621 10.30678081512451 2.663083791732788 10.27047252655029 2.644643068313599 C 10.23416328430176 2.62620210647583 10.19903469085693 2.604686975479126 10.16547870635986 2.580098152160645 C 9.927201271057129 2.40549635887146 9.677774429321289 2.251456260681152 9.419116973876953 2.118608236312866 C 9.16043758392334 1.985749363899231 8.892531394958496 1.874089241027832 8.617313385009766 1.78425657749176 C 8.342081069946289 1.694418907165527 8.059543609619141 1.626413226127625 7.771617412567139 1.580866456031799 C 7.483683109283447 1.535318493843079 7.190370082855225 1.512231945991516 6.893593788146973 1.512231945991516 C 6.75227689743042 1.512231945991516 6.611293792724609 1.517603635787964 6.470890045166016 1.528310418128967 C 6.330487728118896 1.539017200469971 6.190663814544678 1.555058360099792 6.051661968231201 1.576397299766541 C 5.912662029266357 1.597735643386841 5.774485111236572 1.624371290206909 5.637375354766846 1.656266927719116 C 5.500267505645752 1.688161969184875 5.364228248596191 1.725316524505615 5.229499340057373 1.767693161964417 C 4.376314640045166 2.036278247833252 3.683332443237305 2.461031198501587 3.138405323028564 2.991029262542725 C 2.59365701675415 3.520853281021118 2.196937561035156 4.155783653259277 1.936002850532532 4.844954490661621 C 1.675179600715637 5.533831596374512 1.550041913986206 6.276856422424316 1.548308730125427 7.023280620574951 C 1.546576976776123 7.769360542297363 1.668135166168213 8.518833160400391 1.90071713924408 9.221088409423828 C 2.045947790145874 9.625472068786621 2.215044498443604 10.02181625366211 2.406382322311401 10.40762519836426 C 2.597674608230591 10.79334259033203 2.811199426651001 11.168532371521 3.045334339141846 11.5307035446167 C 3.279416799545288 11.89279270172119 3.534103870391846 12.24187564849854 3.807776689529419 12.57546234130859 C 4.081392765045166 12.90897846221924 4.373991966247559 13.22701072692871 4.683958053588867 13.52706909179688 Z" stroke="none" fill="#747472"/>
    </g>
    <g id="Path_33964" transform="translate(13.54 3.948)" fill="none" stroke-linecap="round" stroke-linejoin="round" stroke-miterlimit="10">
      <path d="M.952.925a2.862,2.862,0,0,1,.761.367,2.832,2.832,0,0,1,.606.558,2.8,2.8,0,0,1,.417.706,2.771,2.771,0,0,1,.194.812" stroke="none"/>
      <path d="M 2.928659200668335 4.103933811187744 C 2.831753730773926 4.103933811187744 2.738524198532104 4.085826396942139 2.652684926986694 4.052676677703857 C 2.566843271255493 4.019526481628418 2.488389730453491 3.971332311630249 2.421038389205933 3.911157369613647 C 2.353684425354004 3.850980281829834 2.297432661056519 3.778820276260376 2.255997657775879 3.697741031646729 C 2.214560747146606 3.616657972335815 2.187941789627075 3.52665376663208 2.179857969284058 3.430793046951294 C 2.162107944488525 3.220293283462524 2.113035917282104 3.018141031265259 2.036680698394775 2.829344749450684 C 1.960317134857178 2.640527248382568 1.856664896011353 2.465071678161621 1.729766964912415 2.307991743087769 C 1.602856755256653 2.150896549224854 1.452699065208435 2.012183427810669 1.283340334892273 1.896866679191589 C 1.113969326019287 1.781541705131531 0.9253994822502136 1.689619779586792 0.7216809391975403 1.626114726066589 C 0.6225349903106689 1.595208406448364 0.5345295667648315 1.546155452728271 0.460278332233429 1.483911871910095 C 0.3860242068767548 1.421665787696838 0.3255240619182587 1.346227169036865 0.2813930809497833 1.262552380561829 C 0.2372598350048065 1.178873181343079 0.2094970047473907 1.086956381797791 0.2007209807634354 0.9917596578598022 C 0.1919445097446442 0.8965572714805603 0.2021570950746536 0.7980742454528809 0.2339761257171631 0.7012701630592346 C 0.2596750259399414 0.6230852007865906 0.2975073754787445 0.551971971988678 0.3447919487953186 0.489280492067337 C 0.392078310251236 0.4265865385532379 0.4488170742988586 0.3723157346248627 0.5123260021209717 0.3278182148933411 C 0.5758367776870728 0.2833195328712463 0.6461175084114075 0.248595267534256 0.7204852700233459 0.2249954491853714 C 0.7948542237281799 0.2013953775167465 0.8733093738555908 0.1889204829931259 0.9531676769256592 0.1889204829931259 C 0.9721907377243042 0.1889204829931259 0.9912896156311035 0.189627394080162 1.010430097579956 0.1910597085952759 C 1.029570579528809 0.1924920529127121 1.048752546310425 0.1946497857570648 1.067941784858704 0.1975514590740204 C 1.087131023406982 0.2004530876874924 1.106327533721924 0.204098716378212 1.125496864318848 0.2085067480802536 C 1.14466655254364 0.2129148095846176 1.163808941841125 0.2180852442979813 1.182890295982361 0.224036693572998 C 1.532413005828857 0.3330439925193787 1.855897426605225 0.4905066192150116 2.146394729614258 0.6878488063812256 C 2.436855792999268 0.8851668238639832 2.694323778152466 1.122344970703125 2.911860704421997 1.390807271003723 C 3.129361629486084 1.659225225448608 3.306937456130981 1.958907008171082 3.43766188621521 2.281281709671021 C 3.568360090255737 2.603592157363892 3.652222633361816 2.948577404022217 3.682333946228027 3.307675123214722 C 3.690812110900879 3.408778190612793 3.677868127822876 3.506812334060669 3.647201538085938 3.597522020339966 C 3.616535902023315 3.688226461410522 3.568150281906128 3.771608829498291 3.505743265151978 3.843414783477783 C 3.443338394165039 3.915217161178589 3.366912126541138 3.975444793701172 3.280162334442139 4.019845008850098 C 3.19341516494751 4.064243793487549 3.096342325210571 4.092816352844238 2.992640972137451 4.101310253143311 C 2.987273454666138 4.101749420166016 2.981913328170776 4.102133274078369 2.976561784744263 4.102461338043213 C 2.97121000289917 4.102789878845215 2.965866804122925 4.103063106536865 2.960533142089844 4.103281021118164 C 2.955199718475342 4.103498935699463 2.949875831604004 4.103662014007568 2.944562911987305 4.103770732879639 C 2.939250469207764 4.103879451751709 2.933948755264282 4.103933811187744 2.928659200668335 4.103933811187744 Z" stroke="none" fill="#747472"/>
    </g>
  </g>
</svg>
