<svg id="Iconly_Light_Heart" data-name="Iconly/Light/Heart" xmlns="http://www.w3.org/2000/svg" width="45.896" height="42.233" viewBox="0 0 45.896 42.233">
  <g id="Heart">
    <g id="Path_33961" fill="none" stroke-linecap="round" stroke-linejoin="round" stroke-miterlimit="10">
      <path d="M22.4,40.474q-1.81-1.079-3.558-2.254t-3.43-2.442q-1.682-1.268-3.294-2.627T8.971,30.346a26.25,26.25,0,0,1-3.8-4.6,26.062,26.062,0,0,1-2.656-5.335,16.5,16.5,0,0,1-.865-5.57A14.784,14.784,0,0,1,2.736,9.509,12.537,12.537,0,0,1,10.73,2.195,13.669,13.669,0,0,1,22.938,4.209h0A13.7,13.7,0,0,1,35.147,2.195a12.555,12.555,0,0,1,8,7.315,14.771,14.771,0,0,1,1.087,5.333,16.457,16.457,0,0,1-.865,5.57,26.143,26.143,0,0,1-4.425,7.738,26.328,26.328,0,0,1-2.035,2.2q-1.539,1.446-3.152,2.806t-3.3,2.627q-1.682,1.267-3.431,2.442t-3.56,2.254l-.523.315Z" stroke="none"/>
      <path d="M 22.94600677490234 42.23293304443359 C 22.87972259521484 42.23293304443359 22.81343078613281 42.22866439819336 22.74759674072266 42.22012329101562 C 22.68175506591797 42.21157455444336 22.61636734008789 42.19876098632812 22.55188751220703 42.18167114257812 C 22.48740577697754 42.16457366943359 22.42383193969727 42.1431999206543 22.36162567138672 42.11754989624023 C 22.29941558837891 42.09189605712891 22.23857307434082 42.06196594238281 22.1795482635498 42.02774047851562 L 21.63688087463379 41.71311569213867 C 21.63559722900391 41.71237182617188 21.63431739807129 41.71162414550781 21.6330394744873 41.71088027954102 C 21.63176345825195 41.71013259887695 21.63048553466797 41.70938110351562 21.62920951843262 41.70863342285156 C 21.62793731689453 41.7078857421875 21.62666320800781 41.70713806152344 21.62539100646973 41.70638656616211 C 21.62412261962891 41.70563507080078 21.62285232543945 41.70488357543945 21.62158393859863 41.70412445068359 C 20.39370727539062 40.97270965576172 19.18522071838379 40.20751571655273 17.99809455871582 39.40998840332031 C 16.81037902832031 38.6120719909668 15.64400005340576 37.78176116943359 14.50093364715576 36.92050552368164 C 13.35725021362305 36.05878448486328 12.23686695098877 35.16606521606445 11.14176750183105 34.24379348754883 C 10.04603862762451 33.32099914550781 8.975584030151367 32.36858367919922 7.932403564453125 31.38801574707031 C 7.931324005126953 31.38700294494629 7.930246353149414 31.38598442077637 7.929170608520508 31.38496589660645 C 7.92809534072876 31.38394737243652 7.927020072937012 31.38292503356934 7.925947666168213 31.38190460205078 C 7.924875736236572 31.38088607788086 7.923803806304932 31.37985992431641 7.922734260559082 31.37883758544922 C 7.921665191650391 31.3778133392334 7.920596122741699 31.37678527832031 7.919528484344482 31.37575912475586 C 7.162157535552979 30.64659118652344 6.446868896484375 29.87344360351562 5.777642250061035 29.0623722076416 C 5.108077526092529 28.25089263916016 4.484590530395508 27.40141296386719 3.911177158355713 26.51999092102051 C 3.337449789047241 25.63808441162109 2.81382942199707 24.72416877746582 2.344332933425903 23.78432273864746 C 1.874561786651611 22.84392929077148 1.45896303653717 21.87754440307617 1.101571202278137 20.89126586914062 C 1.10062849521637 20.88866806030273 1.099693655967712 20.88606643676758 1.098766922950745 20.88346481323242 C 1.097840189933777 20.88086128234863 1.09692120552063 20.87825584411621 1.096009731292725 20.87564659118652 C 1.09509801864624 20.8730354309082 1.094194054603577 20.87042427062988 1.093297243118286 20.86781120300293 C 1.092400431632996 20.86520195007324 1.091510534286499 20.86258316040039 1.090627789497375 20.8599681854248 C 0.924675464630127 20.36697196960449 0.7803915143013 19.86997032165527 0.6579223871231079 19.36983871459961 C 0.5354153513908386 18.86955261230469 0.4347363710403442 18.36613464355469 0.3560328185558319 17.86046981811523 C 0.277304470539093 17.35465049743652 0.2205649465322495 16.84657287597656 0.1859619468450546 16.33712768554688 C 0.1513480097055435 15.82752323150635 0.1388846188783646 15.31654453277588 0.1487195193767548 14.80508327484131 C 0.1586226373910904 14.29010486602783 0.191010594367981 13.780837059021 0.2457203567028046 13.27814292907715 C 0.3004470467567444 12.77529430389404 0.3775090277194977 12.27902603149414 0.4767422676086426 11.79019832611084 C 0.5760056376457214 11.3012228012085 0.6974530816078186 10.81970024108887 0.8409196138381958 10.34648990631104 C 0.9844282269477844 9.873140335083008 1.149967312812805 9.408114433288574 1.337371110916138 8.952273368835449 C 1.7439044713974 7.963433265686035 2.24671459197998 7.040384292602539 2.836741209030151 6.19157886505127 C 3.427077054977417 5.342328548431396 4.104667186737061 4.567479610443115 4.860404014587402 3.875493288040161 C 5.616464138031006 3.183211088180542 6.450658798217773 2.573931694030762 7.353835105895996 2.056113719940186 C 8.25730037689209 1.538130164146423 9.22968864440918 1.111724138259888 10.26179790496826 0.7853372097015381 C 10.6325101852417 0.6682112216949463 11.00687599182129 0.565516471862793 11.3842306137085 0.4773572385311127 C 11.7616081237793 0.3891931176185608 12.14196491241455 0.3155674338340759 12.52463436126709 0.2565834522247314 C 12.90731716156006 0.197597324848175 13.29230690002441 0.1532551497220993 13.67893409729004 0.1236593499779701 C 14.06556797027588 0.09406289458274841 14.45383358001709 0.07921390235424042 14.84306049346924 0.07921390235424042 C 15.24422645568848 0.07921390235424042 15.64428901672363 0.09493662416934967 16.04255294799805 0.1262726783752441 C 16.44080924987793 0.1576082557439804 16.83725929260254 0.2045560628175735 17.2312126159668 0.2670057415962219 C 17.62514877319336 0.3294530212879181 18.01657485961914 0.4074002206325531 18.4047966003418 0.5007358193397522 C 18.79300308227539 0.5940661430358887 19.17799949645996 0.7027815580368042 19.55909156799316 0.8267701864242554 C 19.85723686218262 0.9237703680992126 20.15166854858398 1.029699206352234 20.44209671020508 1.144405007362366 C 20.73250389099121 1.259102821350098 21.01890182495117 1.382575154304504 21.30099678039551 1.514670610427856 C 21.58306884765625 1.64675509929657 21.86083793640137 1.787460327148438 22.13400840759277 1.936633348464966 C 22.40715408325195 2.085793018341064 22.67569923400879 2.243417739868164 22.93935394287109 2.409355878829956 C 23.20324325561523 2.243591785430908 23.47202110290527 2.086127996444702 23.74539184570312 1.937117576599121 C 24.01878929138184 1.788093686103821 24.29677581787109 1.647526025772095 24.57905769348145 1.515567660331726 C 24.86136436462402 1.383598566055298 25.1479663848877 1.260241627693176 25.43856239318848 1.145648956298828 C 25.72918128967285 1.03104841709137 26.02379989624023 0.9252148866653442 26.32211494445801 0.8283007144927979 C 26.70343971252441 0.7044208645820618 27.08863639831543 0.5958006381988525 27.47701454162598 0.5025518536567688 C 27.86541557312012 0.4092976748943329 28.25698852539062 0.3314187824726105 28.65104103088379 0.2690257132053375 C 29.04511070251465 0.2066304087638855 29.441650390625 0.1597234904766083 29.8399715423584 0.1284151077270508 C 30.23829460144043 0.09710622578859329 30.63839149475098 0.08139710128307343 31.03956413269043 0.08139710128307343 C 31.42832946777344 0.08139710128307343 31.81613922119141 0.09619238972663879 32.20231246948242 0.1256801187992096 C 32.58848190307617 0.1551673114299774 32.97300338745117 0.1993458718061447 33.35521697998047 0.2581120729446411 C 33.73741912841797 0.3168761134147644 34.11729431152344 0.3902256786823273 34.49418258666992 0.4780564606189728 C 34.87104415893555 0.5658823251724243 35.24491882324219 0.6681864857673645 35.61511611938477 0.7848632335662842 C 36.64753723144531 1.111415505409241 37.62026214599609 1.537906885147095 38.52408981323242 2.055904865264893 C 39.42762756347656 2.573737144470215 40.26222229003906 3.182959318161011 41.01873016357422 3.875123500823975 C 41.77490997314453 4.566991806030273 42.4530029296875 5.34166145324707 43.04391479492188 6.190680027008057 C 43.63451766967773 7.039253711700439 44.13796997070312 7.962019443511963 44.54523849487305 8.950535774230957 C 44.73309326171875 9.406495094299316 44.89905548095703 9.871620178222656 45.04295349121094 10.34504127502441 C 45.18680953979492 10.81832408905029 45.30861663818359 11.29989624023438 45.408203125 11.78889274597168 C 45.50775909423828 12.27774333953857 45.58511734008789 12.77401065826416 45.64009857177734 13.27683258056641 C 45.69506454467773 13.77950096130371 45.72768020629883 14.2887134552002 45.7377815246582 14.80361557006836 C 45.74781799316406 15.31532573699951 45.73548889160156 15.82651615142822 45.7009391784668 16.33630561828613 C 45.66641235351562 16.84593772888184 45.60967254638672 17.35416603088379 45.53087997436523 17.86011123657227 C 45.45211029052734 18.36590003967285 45.35131454467773 18.86940956115723 45.22861862182617 19.36975479125977 C 45.10595703125 19.86994361877441 44.96142196655273 20.36697387695312 44.7951545715332 20.8599681854248 C 44.79426956176758 20.86258316040039 44.79338073730469 20.86520195007324 44.79248428344727 20.86781120300293 C 44.79158401489258 20.87042427062988 44.79067230224609 20.8730354309082 44.78976440429688 20.87564659118652 C 44.78884887695312 20.87825584411621 44.78792953491211 20.88086128234863 44.78700256347656 20.88346481323242 C 44.78606796264648 20.88606643676758 44.78513336181641 20.88866806030273 44.7841911315918 20.89126586914062 C 44.4261589050293 21.87754440307617 44.00993728637695 22.84392929077148 43.53955459594727 23.78432273864746 C 43.06945419311523 24.72416877746582 42.54523468017578 25.63808441162109 41.97093963623047 26.51999092102051 C 41.39695739746094 27.40141296386719 40.77291488647461 28.25089263916016 40.10282897949219 29.0623722076416 C 39.43307876586914 29.87344360351562 38.7172966003418 30.64659118652344 37.95944976806641 31.37575912475586 C 37.95838165283203 31.37678527832031 37.95731353759766 31.3778133392334 37.95624160766602 31.37883758544922 C 37.95516967773438 31.37985992431641 37.9541015625 31.38088607788086 37.95302581787109 31.38190460205078 C 37.95195007324219 31.38292503356934 37.95087814331055 31.38394737243652 37.94980239868164 31.38496589660645 C 37.9487190246582 31.38598442077637 37.9476432800293 31.38700294494629 37.94656753540039 31.38801574707031 C 36.90293502807617 32.36840438842773 35.83206558227539 33.32065200805664 34.73594665527344 34.24330139160156 C 33.64044570922852 35.16540908813477 32.51969528198242 36.05798721313477 31.37567329406738 36.91957473754883 C 30.23226165771484 37.78070068359375 29.06557083129883 38.61090087890625 27.87757301330566 39.40871810913086 C 26.69016456604004 40.20613479614258 25.48142623901367 40.97123336791992 24.25333404541016 41.70256423950195 L 23.73403358459473 42.01510238647461 C 23.67374610900879 42.05138397216797 23.61144638061523 42.08314514160156 23.54763031005859 42.11037063598633 C 23.48381423950195 42.13759231567383 23.41848564147949 42.16028594970703 23.35214805603027 42.17844772338867 C 23.28581237792969 42.19660949707031 23.21846008300781 42.21022415161133 23.15060424804688 42.21930694580078 C 23.08274459838867 42.22838592529297 23.01437950134277 42.23293304443359 22.94600677490234 42.23293304443359 Z M 10.01716613769531 29.30811500549316 C 11.00298309326172 30.2357292175293 12.01409816741943 31.13716697692871 13.04871273040771 32.01110458374023 C 14.08276557922363 32.88456726074219 15.14032554626465 33.7305908203125 16.2196044921875 34.54786682128906 C 17.29833221435547 35.36472320556641 18.3987922668457 36.15288543701172 19.51920509338379 36.91104125976562 C 20.63908576965332 37.66883850097656 21.77894020080566 38.39668655395508 22.93699264526367 39.09326934814453 C 24.09549331665039 38.39668655395508 25.23581886291504 37.66883850097656 26.3561897277832 36.91104125976562 C 27.47709083557129 36.15288543701172 28.57806205749512 35.36472320556641 29.65732192993164 34.54786682128906 C 30.73712539672852 33.7305908203125 31.79523849487305 32.88456726074219 32.82985305786133 32.01110458374023 C 33.86503601074219 31.13716697692871 34.87673187255859 30.2357292175293 35.86315155029297 29.30811500549316 C 36.53860473632812 28.65686988830566 37.17660140991211 27.96643257141113 37.77358627319336 27.2421932220459 C 38.37083435058594 26.51762962341309 38.92707824707031 25.75920677185059 39.43873977661133 24.97232437133789 C 39.95065689086914 24.18506050109863 40.41796875 23.36928367614746 40.83710861206055 22.53041076660156 C 41.2564697265625 21.69110679626465 41.62762069702148 20.82865524291992 41.94697952270508 19.9484977722168 C 42.46129608154297 18.41342353820801 42.73274612426758 16.77395820617676 42.73390960693359 15.14073753356934 C 42.73506546020508 13.50586223602295 42.46537780761719 11.87725830078125 41.89733123779297 10.36623096466064 C 41.3287467956543 8.853789329528809 40.46133422851562 7.459362506866455 39.26776123046875 6.294823169708252 C 38.07332611083984 5.129442691802979 36.55259323120117 4.194612503051758 34.6787109375 3.602479457855225 C 34.38376617431641 3.509610652923584 34.08581924438477 3.428167343139648 33.78543853759766 3.358241558074951 C 33.48504638671875 3.288313150405884 33.18222045898438 3.229902982711792 32.87750625610352 3.183102607727051 C 32.57279586791992 3.136300325393677 32.26620483398438 3.10110878944397 31.95830345153809 3.077617645263672 C 31.65040016174316 3.054126024246216 31.3411865234375 3.042335987091064 31.03122138977051 3.042335987091064 C 30.3887882232666 3.042335987091064 29.74730491638184 3.094507932662964 29.11415100097656 3.196444511413574 C 28.48103713989258 3.29837441444397 27.85629272460938 3.450056314468384 27.24729347229004 3.649074554443359 C 26.63837432861328 3.848068714141846 26.04522705078125 4.094374656677246 25.4752311706543 4.385572910308838 C 24.90533256530762 4.676717758178711 24.35861015319824 5.012721538543701 23.8424129486084 5.391156196594238 C 23.77536201477051 5.440311431884766 23.70517539978027 5.483320713043213 23.63264083862305 5.520185470581055 C 23.56010627746582 5.557049751281738 23.4852237701416 5.587769985198975 23.40877532958984 5.612346172332764 C 23.33233070373535 5.636923313140869 23.25432014465332 5.655355453491211 23.175537109375 5.667646884918213 C 23.09675216674805 5.679937362670898 23.01718902587891 5.686084747314453 22.93763732910156 5.68609094619751 C 22.85796737670898 5.686096668243408 22.77830696105957 5.679942607879639 22.69944000244141 5.667628765106201 C 22.62057113647461 5.655313968658447 22.5424919128418 5.636839866638184 22.46598625183105 5.612205505371094 C 22.38948822021484 5.587571144104004 22.31455230712891 5.556775093078613 22.24198341369629 5.519820213317871 C 22.16940689086914 5.482863426208496 22.09919166564941 5.439745903015137 22.03211212158203 5.390466690063477 C 21.50919151306152 5.006302833557129 20.96174621582031 4.667339324951172 20.39399528503418 4.374978065490723 C 19.82613754272461 4.082563877105713 19.23799896240234 3.836786508560181 18.63379669189453 3.639038562774658 C 18.02952003479004 3.441267013549805 17.40920639038086 3.29154896736145 16.7770824432373 3.191271305084229 C 16.14492225646973 3.090987682342529 15.5009880065918 3.040156364440918 14.84950542449951 3.040156364440918 C 14.53928089141846 3.040156364440918 14.22980785369873 3.0519859790802 13.9216194152832 3.075561761856079 C 13.61343765258789 3.0991370677948 13.30655002593994 3.134459018707275 13.00148773193359 3.181443452835083 C 12.69643592834473 3.228426694869995 12.39321517944336 3.287071228027344 12.09236431121826 3.357294321060181 C 11.79152679443359 3.42751407623291 11.49306392669678 3.509310007095337 11.19750690460205 3.60259747505188 C 9.326323509216309 4.193758487701416 7.807770252227783 5.127921104431152 6.615032196044922 6.292888641357422 C 5.423150539398193 7.457018375396729 4.556954860687256 8.851288795471191 3.989157676696777 10.36378574371338 C 3.421891927719116 11.87486839294434 3.152549743652344 13.50373363494873 3.153671741485596 15.13903427124023 C 3.154792070388794 16.77267646789551 3.425828695297241 18.41272735595703 3.939395189285278 19.9484977722168 C 4.258180141448975 20.82865524291992 4.628772258758545 21.69110679626465 5.047590255737305 22.53041076660156 C 5.466189384460449 23.36928367614746 5.932975769042969 24.18506050109863 6.444380283355713 24.97232437133789 C 6.9555344581604 25.75920677185059 7.511281490325928 26.51762962341309 8.108067512512207 27.2421932220459 C 8.704586029052734 27.96643257141113 9.342130661010742 28.65686988830566 10.01716613769531 29.30811500549316 Z" stroke="none" fill="#557dbe"/>
    </g>
    <g id="Path_33964" transform="translate(29.429 8.625)" fill="none" stroke-linecap="round" stroke-linejoin="round" stroke-miterlimit="10">
      <path d="M1.909,1.852a6.191,6.191,0,0,1,1.649.8A6.127,6.127,0,0,1,4.87,3.861a6.059,6.059,0,0,1,.9,1.533,6.008,6.008,0,0,1,.418,1.762" stroke="none"/>
      <path d="M 6.181496143341064 8.623510360717773 C 5.988189697265625 8.623510360717773 5.802289485931396 8.587367057800293 5.631186962127686 8.521190643310547 C 5.460078239440918 8.455015182495117 5.303761959075928 8.35880184173584 5.16963529586792 8.238668441772461 C 5.035499572753906 8.118526458740234 4.9235520362854 7.9744553565979 4.841194629669189 7.812569141387939 C 4.758830070495605 7.650666236877441 4.706060409545898 7.47094202041626 4.690290927886963 7.279511451721191 C 4.65164041519165 6.810238361358643 4.543151378631592 6.359497547149658 4.373789310455322 5.938467025756836 C 4.204383850097656 5.517326831817627 3.974078893661499 5.125929832458496 3.691858291625977 4.775470733642578 C 3.409576177597046 4.424934864044189 3.075370073318481 4.115372657775879 2.698241710662842 3.857986688613892 C 2.321053266525269 3.600559949874878 1.90095317363739 3.395342826843262 1.446964144706726 3.253539085388184 C 1.249089479446411 3.191733598709106 1.073500514030457 3.093636512756348 0.9254013895988464 2.969156980514526 C 0.7772907018661499 2.844666957855225 0.6566691398620605 2.693786382675171 0.568747878074646 2.526424646377563 C 0.4808176159858704 2.359045505523682 0.4255924224853516 2.175179004669189 0.4082888066768646 1.984740734100342 C 0.390982985496521 1.79427969455719 0.4116074442863464 1.597243905067444 0.4753814339637756 1.403555274009705 C 0.5268957614898682 1.247098088264465 0.6026253700256348 1.104790568351746 0.6972153186798096 0.9793342351913452 C 0.7918124794960022 0.8538680076599121 0.9052709937095642 0.7452581524848938 1.032232999801636 0.6562061905860901 C 1.159202098846436 0.5671495199203491 1.299672961235046 0.4976551532745361 1.448285579681396 0.450424462556839 C 1.59690248966217 0.4031922519207001 1.753657460212708 0.3782261908054352 1.913188338279724 0.3782261908054352 C 1.951175332069397 0.3782261908054352 1.989319324493408 0.3796417415142059 2.02754807472229 0.3825092613697052 C 2.065776824951172 0.3853766322135925 2.104090213775635 0.3896959722042084 2.142416000366211 0.3955039083957672 C 2.180741786956787 0.4013118147850037 2.219079732894897 0.4086080491542816 2.257357597351074 0.4174289703369141 C 2.295635223388672 0.4262499809265137 2.333852529525757 0.4365959167480469 2.37193751335144 0.4485028684139252 C 3.117211103439331 0.6815112829208374 3.806706666946411 1.018077850341797 4.425611019134521 1.439841628074646 C 5.044353485107422 1.86149537563324 5.592475414276123 2.36825704574585 6.055218696594238 2.941766977310181 C 6.517797946929932 3.515073299407959 6.89501953125 4.155033111572266 7.172176361083984 4.843308448791504 C 7.449216365814209 5.531290531158447 7.626259326934814 6.267505645751953 7.688647747039795 7.03365421295166 C 7.70508861541748 7.235564231872559 7.6788010597229 7.431333541870117 7.617192268371582 7.612465381622314 C 7.555590152740479 7.793576717376709 7.458672523498535 7.960058689117432 7.333840370178223 8.103420257568359 C 7.209019184112549 8.246768951416016 7.056285858154297 8.367006301879883 6.883033275604248 8.455644607543945 C 6.709790229797363 8.544277191162109 6.5160231590271 8.601317405700684 6.309121131896973 8.61827564239502 C 6.298412799835205 8.619154930114746 6.287720203399658 8.619919776916504 6.277044296264648 8.620574951171875 C 6.266368865966797 8.621230125427246 6.255711078643799 8.62177562713623 6.245072841644287 8.622210502624512 C 6.234434604644775 8.622645378112793 6.223816394805908 8.622970581054688 6.213219165802002 8.623186111450195 C 6.202622890472412 8.623404502868652 6.192047119140625 8.623510360717773 6.181496143341064 8.623510360717773 Z" stroke="none" fill="#557dbe"/>
    </g>
  </g>
</svg>
