<svg id="Iconly_Light_Heart" data-name="Iconly/Light/Heart" xmlns="http://www.w3.org/2000/svg" width="19.691" height="18.121" viewBox="0 0 19.691 18.121">
  <g id="Heart">
    <path id="Path_33961" d="M9.594,17.975q-.839-.5-1.648-1.047T6.358,15.793Q5.58,15.2,4.835,14.575t-1.455-1.3a12.1,12.1,0,0,1-1.751-2.129A12,12,0,0,1,.409,8.679a7.6,7.6,0,0,1-.39-2.57A6.814,6.814,0,0,1,.527,3.653a5.87,5.87,0,0,1,1.4-2.04A5.911,5.911,0,0,1,4.22.291a6.307,6.307,0,0,1,5.622.925h0A6.328,6.328,0,0,1,15.464.291a5.918,5.918,0,0,1,2.291,1.321,5.877,5.877,0,0,1,1.4,2.04,6.808,6.808,0,0,1,.51,2.456,7.577,7.577,0,0,1-.39,2.57,12.012,12.012,0,0,1-1.221,2.466A12.115,12.115,0,0,1,16.3,13.274q-.71.67-1.456,1.3t-1.524,1.219q-.778.588-1.588,1.134t-1.649,1.047l-.242.146Z" fill="#557dbe"/>
    <g id="Path_33964" transform="translate(12.763 3.173)" fill="none" stroke-linecap="round" stroke-linejoin="round" stroke-miterlimit="10">
      <path d="M.952.925a2.862,2.862,0,0,1,.761.367,2.832,2.832,0,0,1,.606.558,2.8,2.8,0,0,1,.417.706,2.771,2.771,0,0,1,.194.812" stroke="none"/>
      <path d="M 2.928659677505493 4.103933811187744 C 2.831753969192505 4.103933811187744 2.738524436950684 4.085826396942139 2.652685165405273 4.052676677703857 C 2.566843509674072 4.019526481628418 2.48838996887207 3.971332311630249 2.421038627624512 3.911157369613647 C 2.353684902191162 3.850980281829834 2.297433137893677 3.778820276260376 2.255998134613037 3.697741031646729 C 2.214560985565186 3.616657972335815 2.187942266464233 3.52665376663208 2.179858446121216 3.430793046951294 C 2.162108182907104 3.220293283462524 2.113036394119263 3.018141031265259 2.036681175231934 2.829344749450684 C 1.960317373275757 2.640527248382568 1.856665015220642 2.465071678161621 1.729767203330994 2.307991743087769 C 1.602856993675232 2.150896549224854 1.452699184417725 2.012183427810669 1.283340454101562 1.896866679191589 C 1.113969445228577 1.781541705131531 0.9253995418548584 1.689619779586792 0.7216810584068298 1.626114726066589 C 0.6225350499153137 1.595208406448364 0.5345296263694763 1.546155452728271 0.4602784216403961 1.483911871910095 C 0.3860242664813995 1.421665787696838 0.3255241215229034 1.346227169036865 0.2813931405544281 1.262552380561829 C 0.2372598350048065 1.178873181343079 0.2094970047473907 1.086956381797791 0.2007209807634354 0.9917596578598022 C 0.1919445097446442 0.8965572714805603 0.2021570950746536 0.7980742454528809 0.2339761257171631 0.7012701630592346 C 0.2596750259399414 0.6230852007865906 0.2975073754787445 0.551971971988678 0.3447918891906738 0.489280492067337 C 0.3920782506465912 0.4265865385532379 0.4488170146942139 0.3723157346248627 0.5123259425163269 0.3278182148933411 C 0.575836718082428 0.2833195328712463 0.6461173892021179 0.248595267534256 0.7204851508140564 0.2249954491853714 C 0.7948541045188904 0.2013953775167465 0.873309314250946 0.1889204829931259 0.9531675577163696 0.1889204829931259 C 0.9721906781196594 0.1889204829931259 0.991289496421814 0.189627394080162 1.010430097579956 0.1910597085952759 C 1.029570460319519 0.1924920529127121 1.048752546310425 0.1946497857570648 1.067941665649414 0.1975514590740204 C 1.087130904197693 0.2004530876874924 1.106327414512634 0.204098716378212 1.125496864318848 0.2085067480802536 C 1.144666433334351 0.2129148095846176 1.163808941841125 0.2180852442979813 1.182890176773071 0.224036693572998 C 1.532412886619568 0.3330439925193787 1.855897426605225 0.4905066192150116 2.146394491195679 0.6878488063812256 C 2.436855792999268 0.8851668238639832 2.694323778152466 1.122344970703125 2.911860704421997 1.390807271003723 C 3.129361629486084 1.659225225448608 3.306937456130981 1.958907008171082 3.43766188621521 2.281281709671021 C 3.568360090255737 2.603592157363892 3.652222871780396 2.948577404022217 3.682334184646606 3.307675123214722 C 3.690812587738037 3.408778190612793 3.677868604660034 3.506812334060669 3.647201776504517 3.597522020339966 C 3.616536378860474 3.688226461410522 3.568150758743286 3.771608829498291 3.505743503570557 3.843414783477783 C 3.443338632583618 3.915217161178589 3.366912364959717 3.975444793701172 3.280162572860718 4.019845008850098 C 3.193415403366089 4.064243793487549 3.096342802047729 4.092816352844238 2.99264121055603 4.101310253143311 C 2.987273931503296 4.101749420166016 2.981913805007935 4.102133274078369 2.976562023162842 4.102461338043213 C 2.971210479736328 4.102789878845215 2.965867042541504 4.103063106536865 2.960533380508423 4.103281021118164 C 2.9552001953125 4.103498935699463 2.949876070022583 4.103662014007568 2.944563388824463 4.103770732879639 C 2.939250707626343 4.103879451751709 2.93394923210144 4.103933811187744 2.928659677505493 4.103933811187744 Z" stroke="none" fill="#fff"/>
    </g>
  </g>
</svg>
