<svg id="noun-maintenance-1285564" xmlns="http://www.w3.org/2000/svg" width="30.877" height="30.924" viewBox="0 0 30.877 30.924">
  <path id="Path_5452" data-name="Path 5452" d="M377.04,303.332a.83.83,0,0,1,0,1.2l-2.576,2.576a.83.83,0,0,1-1.2,0l-9.823-9.892,3.778-3.778Z" transform="translate(-347.172 -277.161)" fill="#557dbe"/>
  <path id="Path_5453" data-name="Path 5453" d="M108.038,38.728l-2.2-3.023,1.546-1.546,3.023,2.2,1.2,1.992-.172.172,5.118,5.186,1.717-1.717,1.511,1.511-.412.412.653.653-3.778,3.778-.653-.687-.412.412-1.511-1.511,1.717-1.717L110.2,39.724l-.172.172Z" transform="translate(-105.374 -33.784)" fill="#557dbe"/>
  <path id="Path_5454" data-name="Path 5454" d="M108.46,57.188a5.955,5.955,0,0,1-5.942,1.511l2.817-2.817-.859-3.16-3.16-.859L98.5,54.681a5.965,5.965,0,0,1,7.591-7.419l11.369-11.369a6,6,0,0,1,1.443-6.114,6.072,6.072,0,0,1,5.976-1.511l-2.851,2.851.859,3.16,3.16.859,2.817-2.817a5.976,5.976,0,0,1-7.591,7.385L109.9,51.074a5.981,5.981,0,0,1-1.443,6.114Z" transform="translate(-98.239 -28.028)" fill="#557dbe"/>
</svg>
