<svg xmlns="http://www.w3.org/2000/svg" width="34.678" height="34.679" viewBox="0 0 34.678 34.679">
  <g id="noun-map-5730435" transform="translate(-79.094 -35)">
    <path id="Path_5683" data-name="Path 5683" d="M113.257,272.1l-7.738,3.1a.824.824,0,0,0-.519.766v13.21a.825.825,0,0,0,1.132.766l7.125-2.849Z" transform="translate(-25.906 -220.32)" fill="#747472" fill-rule="evenodd"/>
    <path id="Path_5684" data-name="Path 5684" d="M478.33,272.1v14.99l7.125,2.849a.825.825,0,0,0,1.132-.766v-13.21a.824.824,0,0,0-.519-.766Z" transform="translate(-372.815 -220.32)" fill="#747472" fill-rule="evenodd"/>
    <path id="Path_5685" data-name="Path 5685" d="M368.273,294.15a50.95,50.95,0,0,1-5.639,7.314,2.471,2.471,0,0,1-.966.625v8.132l6.605-2.642Z" transform="translate(-264.409 -240.809)" fill="#747472" fill-rule="evenodd"/>
    <path id="Path_5686" data-name="Path 5686" d="M245,294.15v13.429l6.605,2.642v-8.132a2.471,2.471,0,0,1-.966-.625A51,51,0,0,1,245,294.151Z" transform="translate(-155.998 -240.809)" fill="#747472" fill-rule="evenodd"/>
    <path id="Path_5687" data-name="Path 5687" d="M230.75,35a9.087,9.087,0,0,1,9.082,9.082c0,2.617-1.36,5.657-3.03,8.348a49.154,49.154,0,0,1-5.454,7.084.826.826,0,0,1-1.2,0,49.134,49.134,0,0,1-5.454-7.084c-1.67-2.692-3.03-5.732-3.03-8.348A9.087,9.087,0,0,1,230.75,35Zm0,6.605a2.477,2.477,0,1,0,2.477,2.477A2.478,2.478,0,0,0,230.75,41.605Z" transform="translate(-134.317)" fill="#747472" fill-rule="evenodd"/>
  </g>
</svg>
