<svg xmlns="http://www.w3.org/2000/svg" width="43.927" height="48.503" viewBox="0 0 43.927 48.503">
  <g id="noun_Policy_3324548" transform="translate(1.5 1.514)">
    <g id="Policy" transform="translate(0 0)">
      <path id="Path_5423" data-name="Path 5423" d="M50.757,15.279a1.354,1.354,0,0,0-.415-.978L43.6,7.757a1.377,1.377,0,0,0-2.271.535c-.009.037-1.2,3.378-4.458,3.378a2.6,2.6,0,0,1-.268-.009,6.038,6.038,0,0,1-5.04-3.443A1.364,1.364,0,0,0,30.3,7.369h-.009a1.393,1.393,0,0,0-1.274.84,6.023,6.023,0,0,1-5.04,3.452c-3.424.231-4.67-3.231-4.726-3.369a1.377,1.377,0,0,0-2.271-.535L10.245,14.3a1.354,1.354,0,0,0-.415.978,1.331,1.331,0,0,0,.406.988c2.926,2.935,2.557,7.024.757,14.021C9.2,37.257,11.03,46.81,29.878,52.782a1.369,1.369,0,0,0,.831,0C49.557,46.81,51.384,37.257,49.594,30.288c-1.8-7-2.169-11.085.757-14.021a1.331,1.331,0,0,0,.406-.988ZM37.705,27.685l-8.981,9.35a1.368,1.368,0,0,1-1,.425h-.092a1.415,1.415,0,0,1-1.025-.554l-3.729-5a1.385,1.385,0,1,1,2.224-1.652l2.751,3.692L35.7,25.765a1.387,1.387,0,1,1,2,1.92Z" transform="translate(-9.83 -7.36)" fill="none" stroke="#557dbe" stroke-width="3"/>
    </g>
  </g>
</svg>
