<svg xmlns="http://www.w3.org/2000/svg" width="37.766" height="33.605" viewBox="0 0 37.766 33.605">
  <path id="Path_5728" data-name="Path 5728" d="M120.21,75.635V58.144l.563-.156a9.838,9.838,0,0,0,.407-2.691,8.777,8.777,0,0,0-.375-2.566l-.939-3.223a9.252,9.252,0,0,0-2.847-4.443l-2.66.751a9.837,9.837,0,0,0-.407,2.691,8.778,8.778,0,0,0,.375,2.566l.031.156-5.413,1.564a4.326,4.326,0,0,0-7.791,2.253L90.516,58.113a.34.34,0,0,0-.219.375v6.54H88.451a.314.314,0,0,0-.313.313v5.476a.314.314,0,0,0,.313.313h5.225a.314.314,0,0,0,.313-.313V65.372a.314.314,0,0,0-.313-.313H91.831v-4.13L102,57.988a3.752,3.752,0,0,0,.688.72L96.712,75.6H85.761V78.67h37.766V75.635ZM105.5,52.982a2.441,2.441,0,1,1-2.441,2.441A2.444,2.444,0,0,1,105.5,52.982ZM99.966,75.635l5.507-15.645,5.507,15.645Zm18.711,0h-4.443l-5.945-16.9a4.273,4.273,0,0,0,1.533-3l5.413-1.564.031.156a9.252,9.252,0,0,0,2.847,4.443l.563-.156Z" transform="translate(-85.761 -45.066)" fill="#557dbe"/>
</svg>
