<svg id="Group_Copy_3" data-name="Group Copy 3" xmlns="http://www.w3.org/2000/svg" width="24.202" height="23.503" viewBox="0 0 24.202 23.503">
  <path id="Oval" d="M12.1,0A12.286,12.286,0,0,1,16.81.93a12.091,12.091,0,0,1,3.838,2.533,11.75,11.75,0,0,1,2.576,3.75,11.515,11.515,0,0,1-.035,9.148,11.767,11.767,0,0,1-2.591,3.72,12.106,12.106,0,0,1-3.827,2.5,12.387,12.387,0,0,1-9.355,0,12.094,12.094,0,0,1-3.825-2.5A11.755,11.755,0,0,1,1,16.362,11.515,11.515,0,0,1,.973,7.214a11.762,11.762,0,0,1,2.579-3.75A12.1,12.1,0,0,1,7.392.93,12.291,12.291,0,0,1,12.1,0Z" fill="rgba(229,229,229,0)"/>
  <g id="ic-list" transform="translate(2.086 1.914)">
    <path id="Shape" d="M19.563,20.673H.453A.384.384,0,0,1,.3,20.641a.4.4,0,0,1-.126-.088.413.413,0,0,1-.085-.13.419.419,0,0,1-.032-.159L0,.414A.425.425,0,0,1,.032.253.415.415,0,0,1,.117.121.4.4,0,0,1,.244.033.383.383,0,0,1,.4,0H19.631a.383.383,0,0,1,.155.033.4.4,0,0,1,.126.089A.415.415,0,0,1,20,.253a.425.425,0,0,1,.031.161l-.069,19.85a.419.419,0,0,1-.032.159.413.413,0,0,1-.085.13.4.4,0,0,1-.126.088A.384.384,0,0,1,19.563,20.673ZM1.255,1.223,1.3,19.464H18.719l.056-18.241Z" fill="#747472"/>
    <path id="Path" d="M.254,1.148a.143.143,0,0,1-.1-.045A.387.387,0,0,1,.075.98.837.837,0,0,1,.021.8,1.226,1.226,0,0,1,0,.574,1.226,1.226,0,0,1,.02.351.836.836,0,0,1,.074.168.386.386,0,0,1,.155.045.143.143,0,0,1,.253,0H9.747a.143.143,0,0,1,.1.045.385.385,0,0,1,.08.123.835.835,0,0,1,.054.182A1.226,1.226,0,0,1,10,.574,1.226,1.226,0,0,1,9.978.8.838.838,0,0,1,9.924.98a.387.387,0,0,1-.081.123.143.143,0,0,1-.1.045Z" transform="translate(5.013 4.924)" fill="#747472"/>
    <path id="Path-2" data-name="Path" d="M9.73,1.216H.254a.139.139,0,0,1-.1-.048.412.412,0,0,1-.08-.13A.928.928,0,0,1,.021.845,1.376,1.376,0,0,1,0,.608,1.375,1.375,0,0,1,.02.371.926.926,0,0,1,.074.178a.411.411,0,0,1,.08-.13A.139.139,0,0,1,.253,0H9.732a.139.139,0,0,1,.1.048.411.411,0,0,1,.08.13.926.926,0,0,1,.054.193,1.375,1.375,0,0,1,.019.237,1.376,1.376,0,0,1-.02.237.928.928,0,0,1-.055.193.413.413,0,0,1-.081.13A.14.14,0,0,1,9.73,1.216Z" transform="translate(5.019 9.761)" fill="#747472"/>
    <path id="Path-3" data-name="Path" d="M9.715,1.212H.254a.139.139,0,0,1-.1-.048.411.411,0,0,1-.08-.13A.924.924,0,0,1,.021.842,1.37,1.37,0,0,1,0,.606,1.369,1.369,0,0,1,.02.37.923.923,0,0,1,.074.178a.41.41,0,0,1,.08-.13A.139.139,0,0,1,.252,0H9.717a.139.139,0,0,1,.1.048.41.41,0,0,1,.08.13A.922.922,0,0,1,9.949.37a1.369,1.369,0,0,1,.019.236,1.37,1.37,0,0,1-.02.236.924.924,0,0,1-.054.193.412.412,0,0,1-.08.13A.139.139,0,0,1,9.715,1.212Z" transform="translate(5.025 14.62)" fill="#747472"/>
  </g>
</svg>
