<svg id="Group_Copy_3" data-name="Group Copy 3" xmlns="http://www.w3.org/2000/svg" width="24.202" height="23.503" viewBox="0 0 24.202 23.503">
  <path id="Oval" d="M12.1,0A12.286,12.286,0,0,1,16.81.93a12.091,12.091,0,0,1,3.838,2.533,11.75,11.75,0,0,1,2.576,3.75,11.515,11.515,0,0,1-.035,9.148,11.767,11.767,0,0,1-2.591,3.72,12.106,12.106,0,0,1-3.827,2.5,12.387,12.387,0,0,1-9.355,0,12.094,12.094,0,0,1-3.825-2.5A11.755,11.755,0,0,1,1,16.362,11.515,11.515,0,0,1,.973,7.214a11.762,11.762,0,0,1,2.579-3.75A12.1,12.1,0,0,1,7.392.93,12.291,12.291,0,0,1,12.1,0Z" fill="rgba(229,229,229,0)"/>
  <g id="ic-list" transform="translate(2.086 1.914)">
    <path id="Shape" d="M19.562,20.673H.453l-.041,0-.039-.006-.038-.01L.3,20.641l-.035-.017L.231,20.6.2,20.579l-.028-.026-.026-.029q-.012-.015-.023-.032T.1,20.459q-.009-.017-.017-.036t-.013-.038q-.006-.019-.01-.039t-.006-.041q0-.021,0-.042L0,.414Q0,.393,0,.372T.009.331q0-.02.01-.04T.032.253Q.04.235.049.217T.069.183Q.079.166.091.151L.117.121.145.095.176.071.209.05.244.033.28.019.319.008.358,0,.4,0H19.631l.041,0,.04.006.038.01.037.014.035.017.033.021.031.024.028.027.026.029q.012.015.023.032t.02.034q.009.018.017.036t.013.038q.006.019.01.04t.006.041q0,.021,0,.042L19.96,20.264q0,.021,0,.042t-.006.041q0,.02-.01.039t-.013.038q-.008.018-.017.036t-.02.034q-.011.016-.023.032l-.026.029-.028.026-.031.024-.033.02-.035.017-.036.014-.038.01-.039.006Z" fill="#557dbe"/>
    <g id="Path" transform="translate(4.761 4.678)" fill="#fff">
      <path d="M.506,1.394a.143.143,0,0,1-.1-.045.387.387,0,0,1-.081-.123.837.837,0,0,1-.054-.182A1.265,1.265,0,0,1,.272.6.836.836,0,0,1,.326.414.386.386,0,0,1,.407.291a.143.143,0,0,1,.1-.045H10a.143.143,0,0,1,.1.045.385.385,0,0,1,.08.123A.836.836,0,0,1,10.231.6a1.265,1.265,0,0,1,0,.447.838.838,0,0,1-.055.182.387.387,0,0,1-.081.123.143.143,0,0,1-.1.045Z" stroke="none"/>
      <path d="M 9.996172904968262 1.638894557952881 L 0.5067389011383057 1.638894557952881 C 0.4324813187122345 1.638894557952881 0.3637982308864594 1.617843866348267 0.3025336861610413 1.578732013702393 C 0.2412676960229874 1.539619445800781 0.1874191761016846 1.482443690299988 0.1428331285715103 1.410193920135498 C 0.09824507683515549 1.33794105052948 0.0629194974899292 1.250611424446106 0.0387023463845253 1.151193857192993 C 0.01448369584977627 1.051770091056824 0.001374471466988325 0.9402554631233215 0.001221616519615054 0.8196390867233276 C 0.001068735145963728 0.6990138292312622 0.01389712654054165 0.5874747633934021 0.03786947578191757 0.4880163073539734 C 0.06184330582618713 0.388551652431488 0.09696207195520401 0.3011706173419952 0.1413875222206116 0.2288680374622345 C 0.1858149617910385 0.1565622389316559 0.2395490407943726 0.09933760017156601 0.3007504642009735 0.06018894165754318 C 0.3619534373283386 0.02103935368359089 0.4306226968765259 -3.246654523536563e-05 0.5049180388450623 -3.246654523536563e-05 L 9.999172210693359 -3.246654523536563e-05 C 10.07346630096436 -3.246654523536563e-05 10.14211654663086 0.02103935368359089 10.20328903198242 0.06018894165754318 C 10.2644624710083 0.09933760017156601 10.31815528869629 0.1565622538328171 10.36252880096436 0.2288680523633957 C 10.40690135955811 0.3011706173419952 10.44195747375488 0.3885516822338104 10.46585941314697 0.4880163073539734 C 10.48976039886475 0.5874747633934021 10.50250816345215 0.6990138292312622 10.50226783752441 0.8196390867233276 C 10.50202941894531 0.9402554631233215 10.48883819580078 1.051770091056824 10.46454811096191 1.151193857192993 C 10.440260887146 1.250611424446106 10.40487289428711 1.33794105052948 10.36023426055908 1.410193920135498 C 10.31559658050537 1.482443690299988 10.26170921325684 1.539619445800781 10.20041465759277 1.578732013702393 C 10.13912391662598 1.617843866348267 10.0704288482666 1.638894557952881 9.996172904968262 1.638894557952881 Z M 0.5672255158424377 1.148101925849915 L 9.936027526855469 1.148101925849915 C 9.942767143249512 1.135385870933533 9.950066566467285 1.118781089782715 9.957229614257812 1.098456740379333 C 9.964391708374023 1.078131914138794 9.971417427062988 1.054087281227112 9.97761344909668 1.026491165161133 C 9.983807563781738 0.9988947510719299 9.989169120788574 0.9677465558052063 9.993000984191895 0.9332154989242554 C 9.996834754943848 0.8986838459968567 9.999135971069336 0.860768735408783 9.999210357666016 0.8196390867233276 C 9.999286651611328 0.7785084247589111 9.997122764587402 0.740590512752533 9.993416786193848 0.7060546278953552 C 9.989710807800293 0.6715179681777954 9.984462738037109 0.6403636336326599 9.978366851806641 0.6127604842185974 C 9.972272872924805 0.5851569771766663 9.965332984924316 0.561104953289032 9.958242416381836 0.5407734513282776 C 9.951152801513672 0.5204417109489441 9.943911552429199 0.5038306713104248 9.93721866607666 0.4911094009876251 L 0.5665080547332764 0.4911094009876251 C 0.5598059892654419 0.5038306713104248 0.552554190158844 0.5204417109489441 0.5454492568969727 0.5407734513282776 C 0.5383443236351013 0.561104953289032 0.5313862562179565 0.5851569771766663 0.5252716541290283 0.6127604842185974 C 0.5191572308540344 0.6403636336326599 0.5138862133026123 0.6715179681777954 0.5101552605628967 0.7060546278953552 C 0.5064243674278259 0.740590512752533 0.5042336583137512 0.7785084247589111 0.5042793154716492 0.8196390867233276 C 0.5043250322341919 0.860768735408783 0.506600022315979 0.8986838459968567 0.5104073286056519 0.9332154989242554 C 0.5142145752906799 0.9677465558052063 0.519554078578949 0.9988947510719299 0.5257288217544556 1.026491165161133 C 0.5319033861160278 1.054087281227112 0.5389135479927063 1.078131914138794 0.5460619330406189 1.098456740379333 C 0.5532102584838867 1.118781089782715 0.5604971051216125 1.135385870933533 0.5672255158424377 1.148101925849915 Z" stroke="none" fill="#fff"/>
    </g>
    <g id="Path-2" data-name="Path" transform="translate(4.767 9.516)" fill="#fff">
      <path d="M9.982,1.461H.506a.139.139,0,0,1-.1-.048.412.412,0,0,1-.08-.13A.928.928,0,0,1,.273,1.09a1.42,1.42,0,0,1,0-.473A.926.926,0,0,1,.326.423a.411.411,0,0,1,.08-.13A.139.139,0,0,1,.5.245H9.984a.139.139,0,0,1,.1.048.411.411,0,0,1,.08.13.926.926,0,0,1,.054.193,1.42,1.42,0,0,1,0,.473.928.928,0,0,1-.055.193.413.413,0,0,1-.081.13A.14.14,0,0,1,9.982,1.461Z" stroke="none"/>
      <path d="M 9.98106575012207 1.705487728118896 L 0.5060566067695618 1.705487728118896 C 0.4307342767715454 1.705487728118896 0.3615663647651672 1.684080123901367 0.3001729249954224 1.644002676010132 C 0.2387779355049133 1.603923916816711 0.1851564198732376 1.545173406600952 0.1409293562173843 1.470487475395203 C 0.09670021384954453 1.395797967910767 0.06186557188630104 1.305170059204102 0.03804740682244301 1.201339960098267 C 0.01422773022204638 1.097503304481506 0.001425578957423568 0.980461061000824 0.001263992977328598 0.8529500961303711 C 0.001102379290387034 0.7254289984703064 0.01360975485295057 0.6083598136901855 0.03717213869094849 0.5044848918914795 C 0.06073605269193649 0.400603175163269 0.09535601735115051 0.3099192976951599 0.1394170671701431 0.2351759821176529 C 0.1834801733493805 0.1604291945695877 0.2369843870401382 0.1016259714961052 0.2983137369155884 0.06150899082422256 C 0.3596446216106415 0.02139100804924965 0.4287996292114258 -3.8871519791428e-05 0.5041617751121521 -3.8871519791428e-05 L 9.984187126159668 -3.8871519791428e-05 C 10.05954647064209 -3.8871519791428e-05 10.12868404388428 0.02139100804924965 10.18998527526855 0.06150899082422256 C 10.25128364562988 0.1016259714961052 10.30474472045898 0.1604292094707489 10.34875392913818 0.2351759970188141 C 10.39276123046875 0.3099193274974823 10.42731380462646 0.4006032049655914 10.45080375671387 0.5044848918914795 C 10.47429084777832 0.6083598136901855 10.48671436309814 0.7254289984703064 10.48646068572998 0.8529500961303711 C 10.48620796203613 0.980461061000824 10.47332096099854 1.097503304481506 10.44942760467529 1.201339960098267 C 10.42553520202637 1.305170059204102 10.39063549041748 1.395797967910767 10.34635448455811 1.470487475395203 C 10.30207347869873 1.545173406600952 10.24840927124023 1.603923916816711 10.18698883056641 1.644002676010132 C 10.12556743621826 1.684080123901367 10.05638599395752 1.705487728118896 9.98106575012207 1.705487728118896 Z M 0.5711337924003601 1.216186165809631 L 9.916330337524414 1.216186165809631 C 9.923219680786133 1.202510714530945 9.930883407592773 1.184471130371094 9.938507080078125 1.162229061126709 C 9.946130752563477 1.139986634254456 9.953717231750488 1.113541603088379 9.960453033447266 1.083056449890137 C 9.967189788818359 1.052570819854736 9.973074913024902 1.018044590950012 9.977295875549316 0.9796401262283325 C 9.981517791748047 0.9412346482276917 9.984078407287598 0.8989505767822266 9.984162330627441 0.8529500961303711 C 9.984248161315918 0.8069482445716858 9.981842994689941 0.7646605968475342 9.977760314941406 0.7262500524520874 C 9.973677635192871 0.6878385543823242 9.967918395996094 0.6533045768737793 9.961292266845703 0.6228106617927551 C 9.954667091369629 0.5923163294792175 9.947175025939941 0.5658624172210693 9.939629554748535 0.5436117649078369 C 9.932085037231445 0.5213608145713806 9.924487113952637 0.5033133625984192 9.917646408081055 0.4896320998668671 L 0.5703414678573608 0.4896320998668671 C 0.5634908676147461 0.5033122897148132 0.5558788776397705 0.521358847618103 0.5483177900314331 0.5436091423034668 C 0.5407566428184509 0.5658590793609619 0.5332463383674622 0.5923125147819519 0.5265988111495972 0.6228067874908447 C 0.519951343536377 0.6533005237579346 0.514166533946991 0.6878347396850586 0.5100565552711487 0.7262468338012695 C 0.5059466361999512 0.7646580338478088 0.5035113096237183 0.8069466352462769 0.5035623908042908 0.8529500961303711 C 0.5036135315895081 0.8989521861076355 0.5061426758766174 0.9412372708320618 0.5103376507759094 0.9796434044837952 C 0.5145325660705566 1.018048524856567 0.5203930139541626 1.052574753761292 0.5271070003509521 1.083060503005981 C 0.5338208079338074 1.113545417785645 0.5413881540298462 1.139989972114563 0.5489966869354248 1.162231683731079 C 0.5566052198410034 1.184473156929016 0.5642548799514771 1.20251202583313 0.5711337924003601 1.216186165809631 Z" stroke="none" fill="#fff"/>
    </g>
    <g id="Path-3" data-name="Path" transform="translate(4.773 14.376)" fill="#fff">
      <path d="M9.966,1.456H.505a.139.139,0,0,1-.1-.048.411.411,0,0,1-.08-.13.924.924,0,0,1-.054-.193,1.414,1.414,0,0,1,0-.472A.923.923,0,0,1,.325.422a.41.41,0,0,1,.08-.13A.139.139,0,0,1,.5.244H9.969a.139.139,0,0,1,.1.048.41.41,0,0,1,.08.13A.922.922,0,0,1,10.2.614a1.414,1.414,0,0,1,0,.472.924.924,0,0,1-.054.193.412.412,0,0,1-.08.13A.139.139,0,0,1,9.966,1.456Z" stroke="none"/>
      <path d="M 9.966023445129395 1.700351715087891 L 0.5052911639213562 1.700351715087891 C 0.4300823509693146 1.700351715087891 0.3610187470912933 1.679008603096008 0.2997178733348846 1.639051675796509 C 0.2384154796600342 1.599093914031982 0.1848748624324799 1.540520310401917 0.1407145857810974 1.46605920791626 C 0.09655225276947021 1.391594648361206 0.06177027896046638 1.301239609718323 0.03798820078372955 1.197722315788269 C 0.01420462969690561 1.094198346138 0.001421995460987091 0.977508544921875 0.001260892138816416 0.8503816723823547 C 0.001099776127375662 0.723244845867157 0.01358853653073311 0.6065280437469482 0.03711559996008873 0.5029661059379578 C 0.06064420193433762 0.3993974030017853 0.09521214663982391 0.3089866936206818 0.1392069160938263 0.2344685792922974 C 0.1832037270069122 0.1599469780921936 0.2366273999214172 0.1013209223747253 0.2978644073009491 0.06132479757070541 C 0.359102874994278 0.02132767625153065 0.4281536638736725 -3.764673601835966e-05 0.5034022331237793 -3.764673601835966e-05 L 9.969136238098145 -3.764673601835966e-05 C 10.04438209533691 -3.764673601835966e-05 10.1134147644043 0.02132767625153065 10.17462348937988 0.06132479757070541 C 10.23583030700684 0.1013209223747253 10.28921031951904 0.1599469780921936 10.33315372467041 0.2344685941934586 C 10.37709426879883 0.3089867234230042 10.41159629821777 0.3993974328041077 10.43505096435547 0.5029661059379578 C 10.45850086212158 0.6065280437469482 10.47090816497803 0.723244845867157 10.47065448760986 0.8503816723823547 C 10.47040176391602 0.977508544921875 10.45753574371338 1.094198346138 10.43367767333984 1.197722315788269 C 10.40982151031494 1.301239609718323 10.37497615814209 1.391594648361206 10.33076000213623 1.46605920791626 C 10.28654670715332 1.540520310401917 10.23296451568604 1.599093914031982 10.17163467407227 1.639051675796509 C 10.11030673980713 1.679008603096008 10.04122924804688 1.700351715087891 9.966023445129395 1.700351715087891 Z M 0.5702711939811707 1.212523818016052 L 9.901385307312012 1.212523818016052 C 9.908262252807617 1.198889493942261 9.915914535522461 1.180904269218445 9.923526763916016 1.158729076385498 C 9.93113899230957 1.136553525924683 9.938714027404785 1.110188245773315 9.945440292358398 1.079795122146606 C 9.952165603637695 1.04940128326416 9.958041191101074 1.014979004859924 9.962257385253906 0.9766901135444641 C 9.966474533081055 0.9384003877639771 9.969029426574707 0.896243691444397 9.969113349914551 0.8503816723823547 C 9.969198226928711 0.8045183420181274 9.966795921325684 0.7623581290245056 9.96272087097168 0.7240632772445679 C 9.958643913269043 0.6857675909996033 9.95289421081543 0.6513375639915466 9.946277618408203 0.6209354996681213 C 9.939661979675293 0.5905330181121826 9.932181358337402 0.5641588568687439 9.924646377563477 0.5419751405715942 C 9.917113304138184 0.519791305065155 9.909525871276855 0.5017982721328735 9.902695655822754 0.488158106803894 L 0.5694812536239624 0.488158106803894 C 0.5626409649848938 0.5017971992492676 0.5550404787063599 0.5197892189025879 0.547490656375885 0.5419725179672241 C 0.5399410128593445 0.5641555190086365 0.5324419736862183 0.5905292630195618 0.5258042812347412 0.6209316849708557 C 0.5191667675971985 0.6513335704803467 0.5133907794952393 0.6857637763023376 0.5092868208885193 0.7240601778030396 C 0.5051829814910889 0.7623555660247803 0.5027512311935425 0.8045168519020081 0.5028022527694702 0.8503816723823547 C 0.5028532147407532 0.8962452411651611 0.5053785443305969 0.9384030103683472 0.5095670819282532 0.976693332195282 C 0.5137555003166199 1.01498281955719 0.5196070671081543 1.049405217170715 0.526310920715332 1.079799056053162 C 0.5330145955085754 1.110192179679871 0.5405703783035278 1.13655686378479 0.5481675267219543 1.158731818199158 C 0.5557644367218018 1.180906176567078 0.5634025931358337 1.198890686035156 0.5702711939811707 1.212523818016052 Z" stroke="none" fill="#fff"/>
    </g>
  </g>
</svg>
