<svg id="Group_Copy_3" data-name="Group Copy 3" xmlns="http://www.w3.org/2000/svg" width="39.769" height="40.91" viewBox="0 0 39.769 40.91">
  <g id="ic-list" transform="translate(0 0)">
    <path id="Shape" d="M38.721,40.91H1.018a.762.762,0,0,1-.3-.063.79.79,0,0,1-.25-.173.818.818,0,0,1-.233-.568L0,.825A.846.846,0,0,1,.065.5.824.824,0,0,1,.234.242.788.788,0,0,1,.484.065.758.758,0,0,1,.792,0H38.977a.758.758,0,0,1,.308.065.787.787,0,0,1,.251.177A.823.823,0,0,1,39.7.5a.846.846,0,0,1,.06.321l-.255,39.281a.819.819,0,0,1-.233.568.791.791,0,0,1-.25.173A.762.762,0,0,1,38.721,40.91ZM2.5,2.435l.181,36.1H37.063l.207-36.1Z" fill="#557dbe"/>
    <path id="Path" d="M.508,2.278a.284.284,0,0,1-.2-.089.769.769,0,0,1-.16-.244,1.665,1.665,0,0,1-.108-.362A2.438,2.438,0,0,1,0,1.14,2.435,2.435,0,0,1,.041.7,1.659,1.659,0,0,1,.148.334.764.764,0,0,1,.307.09.282.282,0,0,1,.5,0h18.82a.282.282,0,0,1,.2.09.764.764,0,0,1,.159.244A1.658,1.658,0,0,1,19.782.7a2.435,2.435,0,0,1,.038.443,2.438,2.438,0,0,1-.041.443,1.666,1.666,0,0,1-.109.362.77.77,0,0,1-.16.244.284.284,0,0,1-.2.089Z" transform="translate(9.968 9.791)" fill="#557dbe"/>
    <path id="Path-2" data-name="Path" d="M19.257,2.406H.506a.276.276,0,0,1-.195-.094.818.818,0,0,1-.16-.258,1.837,1.837,0,0,1-.108-.382A2.723,2.723,0,0,1,0,1.2,2.721,2.721,0,0,1,.041.735,1.831,1.831,0,0,1,.147.353.813.813,0,0,1,.306.095.275.275,0,0,1,.5,0H19.265a.275.275,0,0,1,.194.095.812.812,0,0,1,.158.258,1.831,1.831,0,0,1,.106.383,2.72,2.72,0,0,1,.038.468,2.723,2.723,0,0,1-.041.468,1.838,1.838,0,0,1-.108.382.818.818,0,0,1-.16.258A.277.277,0,0,1,19.257,2.406Z" transform="translate(9.994 19.381)" fill="#557dbe"/>
    <path id="Path-3" data-name="Path" d="M19.2,2.392H.5A.276.276,0,0,1,.311,2.3a.812.812,0,0,1-.159-.256,1.822,1.822,0,0,1-.108-.38A2.7,2.7,0,0,1,0,1.2,2.7,2.7,0,0,1,.041.731,1.816,1.816,0,0,1,.147.351.808.808,0,0,1,.3.094.274.274,0,0,1,.5,0H19.207A.274.274,0,0,1,19.4.094a.807.807,0,0,1,.158.256,1.815,1.815,0,0,1,.106.38A2.7,2.7,0,0,1,19.7,1.2a2.7,2.7,0,0,1-.041.465,1.823,1.823,0,0,1-.108.38.813.813,0,0,1-.159.256A.276.276,0,0,1,19.2,2.392Z" transform="translate(10.02 28.985)" fill="#557dbe"/>
  </g>
</svg>
