<svg xmlns="http://www.w3.org/2000/svg" width="32.326" height="32.809" viewBox="0 0 32.326 32.809">
  <path id="Path_5727" data-name="Path 5727" d="M76.045,14.96v4.584a6.516,6.516,0,0,0,6.511,6.514H86.42a6.512,6.512,0,0,0,6.511-6.514V14.96Zm8.2,6.755a1.448,1.448,0,1,1,1.448-1.448A1.448,1.448,0,0,1,84.247,21.716Zm2.569,5.78c-.053,0-.106,0-.516.008-.056,0-.626,0-1.917,0a12.064,12.064,0,0,0,22.058-6.755v-.482a.485.485,0,0,0-.487-.483H105a.483.483,0,0,0-.487.484v.481a10.134,10.134,0,0,1-17.7,6.745ZM78.94,7.723h1.93V.487A.484.484,0,0,0,80.383,0h-.956a.482.482,0,0,0-.487.483Zm9.167,0h1.93V.487A.484.484,0,0,0,89.55,0h-.956a.482.482,0,0,0-.487.483Zm-7.237,0H76.045a1.927,1.927,0,0,0-1.93,1.929v1.932a1.927,1.927,0,0,0,1.93,1.929H92.931a1.927,1.927,0,0,0,1.93-1.929V9.652a1.927,1.927,0,0,0-1.93-1.929H80.87Z" transform="translate(-74.115 -0.004)" fill="#557dbe" fill-rule="evenodd"/>
</svg>
