<svg xmlns="http://www.w3.org/2000/svg" width="31.358" height="42.676" viewBox="0 0 31.358 42.676">
  <g id="Group_12587" data-name="Group 12587" transform="translate(0.125 0.125)">
    <path id="Path_5492" data-name="Path 5492" d="M20.554,1A15.554,15.554,0,0,0,5,16.554C5,24.769,18.857,42.147,19.451,42.9a1.414,1.414,0,0,0,2.206,0c.594-.749,14.451-18.128,14.451-26.343A15.554,15.554,0,0,0,20.554,1Zm0,38.715C16.185,34.059,7.828,22.04,7.828,16.554a12.726,12.726,0,1,1,25.452,0C33.28,22.04,24.923,34.031,20.554,39.715Z" transform="translate(-5 -1)" fill="#557dbe" stroke="#557dbe" stroke-width="0.25"/>
    <path id="Path_5493" data-name="Path 5493" d="M17.073,5a7.073,7.073,0,1,0,7.073,7.073A7.073,7.073,0,0,0,17.073,5Zm0,11.788a4.715,4.715,0,1,1,4.715-4.715A4.715,4.715,0,0,1,17.073,16.788Z" transform="translate(-1.519 2.067)" fill="#557dbe" stroke="#557dbe" stroke-width="0.7"/>
  </g>
</svg>
