<svg id="Iconly_Light_Profile" data-name="Iconly/Light/Profile" xmlns="http://www.w3.org/2000/svg" width="16.558" height="19.351" viewBox="0 0 16.558 19.351">
  <g id="Profile" transform="translate(0.652)">
    <path id="Ellipse_736" d="M4.953,0A5.17,5.17,0,0,1,6.9.38,5.285,5.285,0,0,1,8.519,1.417,5.153,5.153,0,0,1,9.65,2.953a4.852,4.852,0,0,1,.474,1.879,4.593,4.593,0,0,1-.3,1.877,4.53,4.53,0,0,1-.99,1.531A4.656,4.656,0,0,1,7.307,9.271a4.905,4.905,0,0,1-1.9.378,5.17,5.17,0,0,1-1.94-.378A5.285,5.285,0,0,1,1.844,8.239,5.154,5.154,0,0,1,.711,6.708,4.854,4.854,0,0,1,.233,4.832a4.594,4.594,0,0,1,.3-1.879,4.529,4.529,0,0,1,.987-1.536A4.655,4.655,0,0,1,3.043.38,4.9,4.9,0,0,1,4.953,0Z" transform="translate(2.251)" fill="#557dbe"/>
    <path id="Path_33945" d="M.148,3.026a2.15,2.15,0,0,1,0-.251A2.119,2.119,0,0,1,.18,2.528a2.087,2.087,0,0,1,.147-.474A1.9,1.9,0,0,1,.8,1.443a3.3,3.3,0,0,1,.7-.464A5.549,5.549,0,0,1,2.314.645,7.834,7.834,0,0,1,3.158.427q.3-.062.594-.114t.6-.093q.3-.041.6-.072T5.561.1Q6.123.048,6.688.024T7.819,0q.566,0,1.133.024T10.086.1q.306.021.611.052t.61.073q.3.041.608.093t.605.113c.279.055.572.124.864.212a5.971,5.971,0,0,1,.852.323,3.523,3.523,0,0,1,.739.462,2.133,2.133,0,0,1,.526.63,2.333,2.333,0,0,1,.191.48,2.255,2.255,0,0,1,.079.5,2.188,2.188,0,0,1-.035.5,2.145,2.145,0,0,1-.149.479,1.872,1.872,0,0,1-.47.629,3.1,3.1,0,0,1-.7.46,5.37,5.37,0,0,1-.822.319,8.4,8.4,0,0,1-.844.206q-.3.064-.593.118t-.6.1q-.3.042-.6.074t-.606.052Q9.9,6,9.44,6.02t-.918.029q-.46.007-.92,0T6.68,6.015H6.469c-.07,0-.14,0-.209-.006S6.12,6,6.05,5.992s-.141-.018-.212-.032q-.3-.02-.608-.051t-.607-.074q-.3-.042-.6-.1t-.6-.118a8.908,8.908,0,0,1-.867-.206A5.875,5.875,0,0,1,1.7,5.1a3.537,3.537,0,0,1-.741-.46,2.183,2.183,0,0,1-.533-.629,2.373,2.373,0,0,1-.11-.235A2.331,2.331,0,0,1,.23,3.53a2.288,2.288,0,0,1-.055-.25A2.248,2.248,0,0,1,.148,3.026Z" transform="translate(0 13.298)" fill="#557dbe"/>
  </g>
</svg>
