<svg id="Iconly_Light_Profile" data-name="Iconly/Light/Profile" xmlns="http://www.w3.org/2000/svg" width="17.493" height="20.818" viewBox="0 0 17.493 20.818">
  <g id="Profile">
    <g id="Ellipse_736" transform="translate(2.249)" fill="none" stroke-linecap="round" stroke-linejoin="round" stroke-miterlimit="10">
      <path d="M5.744.738a5.17,5.17,0,0,1,1.945.38A5.285,5.285,0,0,1,9.31,2.155a5.153,5.153,0,0,1,1.13,1.536,4.852,4.852,0,0,1,.474,1.879,4.593,4.593,0,0,1-.3,1.877,4.53,4.53,0,0,1-.99,1.531A4.656,4.656,0,0,1,8.1,10.009a4.905,4.905,0,0,1-1.9.378,5.17,5.17,0,0,1-1.94-.378A5.285,5.285,0,0,1,2.635,8.978,5.154,5.154,0,0,1,1.5,7.447,4.854,4.854,0,0,1,1.024,5.57a4.594,4.594,0,0,1,.3-1.879,4.529,4.529,0,0,1,.987-1.536A4.655,4.655,0,0,1,3.834,1.118,4.9,4.9,0,0,1,5.744.738Z" stroke="none"/>
      <path d="M 6.227664947509766 11.12059116363525 C 5.443325996398926 11.12059116363525 4.688230037689209 10.96522521972656 3.994435548782349 10.68439197540283 C 3.300519704818726 10.40351009368896 2.667817831039429 9.997076988220215 2.128471851348877 9.494964599609375 C 1.588957667350769 8.992696762084961 1.14279305934906 8.394631385803223 0.8222122192382812 7.730664730072021 C 0.5014992952346802 7.066424369812012 0.3064474761486053 6.336174488067627 0.2693788409233093 5.569867610931396 C 0.2322925925254822 4.803196907043457 0.3567942380905151 4.071920871734619 0.6136245727539062 3.406172275543213 C 0.8705608248710632 2.740149021148682 1.259913921356201 2.13976001739502 1.752342343330383 1.635195970535278 C 2.244924783706665 1.130474209785461 2.840588092803955 0.7216968536376953 3.509899616241455 0.4390751421451569 C 4.179328441619873 0.1564040035009384 4.922326564788818 -2.323846638319083e-05 5.709373950958252 -2.323846638319083e-05 C 6.496421337127686 -2.323846638319083e-05 7.254000663757324 0.1564040035009384 7.949777126312256 0.4390751719474792 C 8.645432472229004 0.7216969132423401 9.279199600219727 1.130474328994751 9.818828582763672 1.635196089744568 C 10.35828876495361 2.139760255813599 10.8036060333252 2.740149021148682 11.12262439727783 3.406172275543213 C 11.44151020050049 4.071920871734619 11.63417720794678 4.803196907043457 11.66855430603027 5.569867610931396 C 11.70291519165039 6.336174488067627 11.57593059539795 7.066424369812012 11.31713390350342 7.730664730072021 C 11.05844306945801 8.394631385803223 10.6680269241333 8.992696762084961 10.17532825469971 9.494964599609375 C 9.682785987854004 9.997076988220215 9.087968826293945 10.40351009368896 8.420235633850098 10.68439197540283 C 7.752618312835693 10.96522521972656 7.012003898620605 11.12059116363525 6.227664947509766 11.12059116363525 Z M 5.77816915512085 1.476065754890442 C 5.199698448181152 1.476065754890442 4.653586387634277 1.590986609458923 4.161516189575195 1.798661470413208 C 3.669508934020996 2.006309747695923 3.231586456298828 2.306664228439331 2.869381904602051 2.677542924880981 C 2.507261753082275 3.048336982727051 2.220857381820679 3.489590167999268 2.031755208969116 3.979132652282715 C 1.842709898948669 4.468526363372803 1.750919342041016 5.00615119934082 1.777924418449402 5.569867610931396 C 1.804920077323914 6.133387088775635 1.948114395141602 6.67045783996582 2.183764696121216 7.159035682678223 C 2.4193434715271 7.647466659545898 2.747336387634277 8.08746337890625 3.144049167633057 8.457016944885254 C 3.540670871734619 8.826484680175781 4.006014347076416 9.125571250915527 4.516436576843262 9.332278251647949 C 5.026792526245117 9.538958549499512 5.582273483276367 9.653306007385254 6.159279823303223 9.653306007385254 C 6.736286163330078 9.653306007385254 7.281108856201172 9.538958549499512 7.772200584411621 9.332278251647949 C 8.263355255126953 9.125571250915527 8.700819969177246 8.826484680175781 9.063002586364746 8.457016944885254 C 9.425268173217773 8.08746337890625 9.712248802185059 7.647466659545898 9.902297973632812 7.159035682678223 C 10.09240627288818 6.67045783996582 10.18553924560547 6.133387088775635 10.16000843048096 5.569867610931396 C 10.13446712493896 5.00615119934082 9.992563247680664 4.468526363372803 9.757901191711426 3.979132652282715 C 9.523167610168457 3.489590167999268 9.195631980895996 3.048336982727051 8.798948287963867 2.677542924880981 C 8.402174949645996 2.306664228439331 7.936254978179932 2.006309747695923 7.424891471862793 1.798661470413208 C 6.913463592529297 1.590986609458923 6.356639862060547 1.476065754890442 5.77816915512085 1.476065754890442 Z" stroke="none" fill="#747472"/>
    </g>
    <g id="Path_33945" transform="translate(0 13.304)" fill="none" stroke-linecap="round" stroke-linejoin="round" stroke-miterlimit="10">
      <path d="M.937,3.759a2.15,2.15,0,0,1,0-.251A2.119,2.119,0,0,1,.969,3.26a2.087,2.087,0,0,1,.147-.474,1.9,1.9,0,0,1,.468-.61,3.3,3.3,0,0,1,.7-.464A5.549,5.549,0,0,1,3.1,1.378a7.834,7.834,0,0,1,.844-.218q.3-.062.594-.114t.6-.093q.3-.041.6-.072T6.349.829Q6.911.781,7.476.757T8.608.733q.566,0,1.133.024t1.134.072q.306.021.611.052t.61.073q.3.041.608.093t.605.113c.279.055.572.124.864.212a5.971,5.971,0,0,1,.852.323,3.523,3.523,0,0,1,.739.462,2.133,2.133,0,0,1,.526.63,2.333,2.333,0,0,1,.191.48,2.255,2.255,0,0,1,.079.5,2.188,2.188,0,0,1-.035.5,2.145,2.145,0,0,1-.149.479,1.872,1.872,0,0,1-.47.629,3.1,3.1,0,0,1-.7.46,5.37,5.37,0,0,1-.822.319,8.4,8.4,0,0,1-.844.206q-.3.064-.593.118t-.6.1q-.3.042-.6.074t-.606.052q-.457.038-.916.06t-.918.029q-.46.007-.92,0t-.921-.033H7.258c-.07,0-.14,0-.209-.006s-.14-.009-.21-.016-.141-.018-.212-.032q-.3-.02-.608-.051t-.607-.074q-.3-.042-.6-.1t-.6-.118a8.908,8.908,0,0,1-.867-.206,5.875,5.875,0,0,1-.853-.319,3.537,3.537,0,0,1-.741-.46,2.183,2.183,0,0,1-.533-.629,2.373,2.373,0,0,1-.11-.235,2.331,2.331,0,0,1-.083-.243,2.288,2.288,0,0,1-.055-.25A2.248,2.248,0,0,1,.937,3.759Z" stroke="none"/>
      <path d="M 8.935035705566406 7.514287948608398 C 8.81464958190918 7.514287948608398 8.693831443786621 7.513502597808838 8.572786331176758 7.511936187744141 C 8.451741218566895 7.51037073135376 8.330469131469727 7.508024215698242 8.209177017211914 7.504904747009277 C 8.087882995605469 7.50178337097168 7.966567516326904 7.497887134552002 7.845436573028564 7.493220806121826 C 7.724306106567383 7.488554000854492 7.603359222412109 7.483118057250977 7.482802391052246 7.47691822052002 C 7.410537719726562 7.476910591125488 7.337669372558594 7.476822853088379 7.263845920562744 7.475784301757812 C 7.190022468566895 7.47474479675293 7.115244388580322 7.472755908966064 7.039158344268799 7.468943119049072 C 6.963072776794434 7.465132236480713 6.885679721832275 7.459498882293701 6.806628704071045 7.451172351837158 C 6.727577209472656 7.442845821380615 6.646865367889404 7.431825637817383 6.56414270401001 7.417242050170898 C 6.356968879699707 7.403111934661865 6.149488925933838 7.385168552398682 5.942051410675049 7.363460540771484 C 5.734611511230469 7.341753482818604 5.527211666107178 7.316280364990234 5.320198535919189 7.287093639373779 C 5.113181114196777 7.257904529571533 4.906548976898193 7.224999904632568 4.700647354125977 7.188426971435547 C 4.494740962982178 7.151853084564209 4.289563655853271 7.111610889434814 4.085462093353271 7.0677490234375 C 3.635592937469482 6.982923984527588 3.223892450332642 6.877100467681885 2.850872993469238 6.750563144683838 C 2.477824211120605 6.624017238616943 2.143452644348145 6.476751327514648 1.848274230957031 6.309053897857666 C 1.553065061569214 6.141337394714355 1.297049522399902 5.953180313110352 1.080747127532959 5.744866847991943 C 0.864416778087616 5.536526679992676 0.6878040432929993 5.308019161224365 0.5514316558837891 5.059628963470459 C 0.5511456727981567 5.059110641479492 0.5508610010147095 5.058592319488525 0.5505772829055786 5.058073997497559 C 0.550293505191803 5.057555198669434 0.5500107407569885 5.057037353515625 0.5497284531593323 5.056518077850342 C 0.5494462847709656 5.055999279022217 0.5491647124290466 5.055480003356934 0.5488833785057068 5.054960250854492 C 0.5486021041870117 5.054440498352051 0.5483211278915405 5.053920745849609 0.5480400919914246 5.053400039672852 C 0.4940559566020966 4.952872753143311 0.4457283914089203 4.8494873046875 0.4032698273658752 4.743998050689697 C 0.3608084917068481 4.63850212097168 0.3242168724536896 4.530902862548828 0.2937074601650238 4.421954154968262 C 0.2631960809230804 4.312999248504639 0.2387676537036896 4.202696323394775 0.2206350564956665 4.091800212860107 C 0.2025012224912643 3.980897188186646 0.1906641274690628 3.869402408599854 0.1853364109992981 3.758071660995483 C 0.1794642359018326 3.64778995513916 0.1801909804344177 3.537131309509277 0.1873816102743149 3.426910638809204 C 0.1945726424455643 3.316681623458862 0.208228588104248 3.206890344619751 0.2282141447067261 3.098351716995239 C 0.2482010424137115 2.989805698394775 0.2745184004306793 2.882511854171753 0.307031124830246 2.777287006378174 C 0.3395459949970245 2.672054290771484 0.3782569169998169 2.568890571594238 0.4230285584926605 2.468610763549805 C 0.4233829975128174 2.467816114425659 0.4237393140792847 2.467022180557251 0.4240973889827728 2.466228723526001 C 0.424455463886261 2.46543550491333 0.42481529712677 2.464642763137817 0.425176739692688 2.463850498199463 C 0.425538182258606 2.463058710098267 0.4259012043476105 2.462267160415649 0.4262656569480896 2.46147608757019 C 0.4266301095485687 2.460685253143311 0.4269960224628448 2.459894895553589 0.4273631572723389 2.459105253219604 C 0.5772068500518799 2.136839628219604 0.7985146641731262 1.862196564674377 1.061633944511414 1.628389835357666 C 1.324791669845581 1.394549012184143 1.629759550094604 1.201568961143494 1.946869254112244 1.042652130126953 C 2.264010190963745 0.8837195038795471 2.593281984329224 0.7588636875152588 2.905009508132935 0.6612789034843445 C 3.216755628585815 0.5636882185935974 3.510944843292236 0.493375301361084 3.757902145385742 0.4435290694236755 C 3.962325572967529 0.4006890654563904 4.168169021606445 0.3613182604312897 4.375069618225098 0.3254669606685638 C 4.58197546005249 0.2896148562431335 4.789937019348145 0.2572825849056244 4.998592853546143 0.2285202741622925 C 5.207252025604248 0.1997574716806412 5.416603088378906 0.1745648384094238 5.626282691955566 0.1529926210641861 C 5.835965633392334 0.1314201354980469 6.045976638793945 0.113468125462532 6.255951881408691 0.0991867333650589 C 6.447426795959473 0.08280500769615173 6.639761447906494 0.06844238191843033 6.832618236541748 0.05611307173967361 C 7.025476932525635 0.04378372430801392 7.21885871887207 0.03348787873983383 7.412426948547363 0.02523968182504177 C 7.605997562408447 0.01699144765734673 7.79975414276123 0.01079096551984549 7.993363380432129 0.00665255356580019 C 8.186973571777344 0.00251413113437593 8.380433082580566 0.0004378592420835048 8.573409080505371 0.0004378592420835048 C 8.766445159912109 0.0004378592420835048 8.960163116455078 0.002515745582059026 9.154220581054688 0.006657038815319538 C 9.348280906677246 0.01079838071018457 9.542681694030762 0.01700310781598091 9.737085342407227 0.02525690384209156 C 9.931488990783691 0.03351066261529922 10.12589550018311 0.04381338506937027 10.31996726989746 0.05615062266588211 C 10.51403617858887 0.06848776340484619 10.70777130126953 0.08285942673683167 10.90083122253418 0.09925107657909393 C 11.11209106445312 0.1136933714151382 11.32373428344727 0.13176628947258 11.53538799285889 0.153419554233551 C 11.74704074859619 0.175072506070137 11.95870304107666 0.2003056406974792 12.17000961303711 0.229068785905838 C 12.38131237030029 0.2578314542770386 12.59225749969482 0.2901237905025482 12.80247211456299 0.3258955478668213 C 13.01268577575684 0.3616665601730347 13.22216892242432 0.4009166657924652 13.43055438995361 0.4435955584049225 C 13.88371276855469 0.5333629250526428 14.29771709442139 0.6433553099632263 14.67205333709717 0.7732722163200378 C 15.04636001586914 0.9031786322593689 15.38099479675293 1.053003311157227 15.67544174194336 1.22244393825531 C 15.96985816955566 1.39186704158783 16.22408676147461 1.580897688865662 16.43761825561523 1.789233446121216 C 16.651123046875 1.997542381286621 16.82393646240234 2.225146055221558 16.95554542541504 2.471740007400513 C 17.06500816345215 2.677101612091064 17.14968490600586 2.889958620071411 17.20941352844238 3.106543064117432 C 17.26913642883301 3.323098659515381 17.30392074584961 3.543379068374634 17.3136100769043 3.763617753982544 C 17.32329750061035 3.983826398849487 17.30789566040039 4.203994274139404 17.26724815368652 4.420356273651123 C 17.22660446166992 4.63668966293335 17.16071891784668 4.849220275878906 17.0694408416748 5.05418872833252 C 16.95865058898926 5.302589416503906 16.80530548095703 5.53121280670166 16.60989761352539 5.7397780418396 C 16.41451644897461 5.94831657409668 16.17707824707031 6.136808395385742 15.89807510375977 6.304973125457764 C 15.61909961700439 6.473119735717773 15.29856395721436 6.62094783782959 14.93694972991943 6.748174667358398 C 14.57536506652832 6.875391483306885 14.17270278930664 6.982015609741211 13.72944164276123 7.067760944366455 C 13.52542686462402 7.112158298492432 13.31996250152588 7.152857303619385 13.11340999603271 7.189810276031494 C 12.90686511993408 7.226762771606445 12.6992301940918 7.259969711303711 12.49086570739746 7.289380073547363 C 12.28250503540039 7.318789482116699 12.07341384887695 7.344403266906738 11.86395263671875 7.366170406341553 C 11.6544942855835 7.387937545776367 11.44466495513916 7.405860424041748 11.23481941223145 7.419885635375977 C 11.04475498199463 7.435546398162842 10.85384941101074 7.449277400970459 10.66243457794189 7.461063861846924 C 10.47102069854736 7.472850322723389 10.27910137176514 7.482693195343018 10.08700561523438 7.490578174591064 C 9.894911766052246 7.498463153839111 9.702644348144531 7.504390716552734 9.510537147521973 7.508346557617188 C 9.318432807922363 7.512302875518799 9.126485824584961 7.514287948608398 8.935035705566406 7.514287948608398 Z M 1.873787045478821 4.425068378448486 C 1.948954463005066 4.560877799987793 2.059497117996216 4.68964672088623 2.202929735183716 4.810142517089844 C 2.346352338790894 4.930629253387451 2.522660255432129 5.042843341827393 2.729371309280396 5.14555025100708 C 2.936069488525391 5.248251438140869 3.173168897628784 5.341447830200195 3.438187837600708 5.423903942108154 C 3.703193187713623 5.506356716156006 3.996118545532227 5.578070640563965 4.3144850730896 5.637812614440918 C 4.316230773925781 5.63814115524292 4.317975044250488 5.63847541809082 4.319719314575195 5.638814926147461 C 4.32146167755127 5.639154434204102 4.323203563690186 5.639499187469482 4.324944019317627 5.639850616455078 C 4.326684951782227 5.640201568603516 4.328424453735352 5.640557765960693 4.330163478851318 5.640920639038086 C 4.331902027130127 5.64128303527832 4.333640575408936 5.641651630401611 4.335378646850586 5.642025470733643 C 4.525337219238281 5.68298864364624 4.716326236724854 5.720503807067871 4.90800952911377 5.754525661468506 C 5.099688529968262 5.788546085357666 5.292062282562256 5.81907320022583 5.484794139862061 5.846059322357178 C 5.6775221824646 5.873044967651367 5.870610237121582 5.896490097045898 6.063719272613525 5.916346549987793 C 6.256827354431152 5.936203479766846 6.449957847595215 5.95247220993042 6.64277458190918 5.965106964111328 C 6.650911331176758 5.965639591217041 6.659041881561279 5.966300487518311 6.66716480255127 5.967089176177979 C 6.675286769866943 5.967877388000488 6.683401107788086 5.968793869018555 6.691502094268799 5.969836235046387 C 6.69960355758667 5.970879077911377 6.707694053649902 5.972048282623291 6.715770244598389 5.973343372344971 C 6.723846435546875 5.974638938903809 6.731907844543457 5.976059913635254 6.739952564239502 5.977606773376465 C 6.792957305908203 5.987812042236328 6.846676349639893 5.995465278625488 6.901482582092285 6.001205444335938 C 6.956288814544678 6.006945610046387 7.012182712554932 6.010772228240967 7.069536685943604 6.013322830200195 C 7.126890659332275 6.015873908996582 7.185705661773682 6.017149925231934 7.246352672576904 6.017787456512451 C 7.307000637054443 6.018425464630127 7.369480609893799 6.018425464630127 7.43416690826416 6.018425464630127 C 7.437534332275391 6.018425464630127 7.440902709960938 6.018447399139404 7.444271564483643 6.018491268157959 C 7.447639465332031 6.018534660339355 7.451009750366211 6.018600940704346 7.454380035400391 6.018689155578613 C 7.457750797271729 6.018776893615723 7.461121559143066 6.018887996673584 7.464491844177246 6.019020080566406 C 7.467863082885742 6.019153118133545 7.471232891082764 6.019307613372803 7.474603652954102 6.019485950469971 C 7.590161323547363 6.025514125823975 7.706110954284668 6.030800342559814 7.822247982025146 6.035337924957275 C 7.938383102416992 6.03987455368042 8.054708480834961 6.04366397857666 8.171017646789551 6.046700000762939 C 8.287326812744141 6.049735546112061 8.403619766235352 6.052017211914062 8.519696235656738 6.053540706634521 C 8.635771751403809 6.05506420135498 8.751628875732422 6.055827617645264 8.8670654296875 6.055827617645264 C 9.048576354980469 6.055827617645264 9.230554580688477 6.053940296173096 9.41268253326416 6.050177574157715 C 9.59481143951416 6.046415328979492 9.777092933654785 6.040778160095215 9.959205627441406 6.033279418945312 C 10.14132118225098 6.02578067779541 10.32326889038086 6.016420364379883 10.50473022460938 6.005210876464844 C 10.68619346618652 5.994001388549805 10.86717414855957 5.980944156646729 11.0473518371582 5.966050624847412 C 11.04837226867676 5.965965747833252 11.04939270019531 5.965883255004883 11.0504150390625 5.965803146362305 C 11.05143547058105 5.96572208404541 11.05245685577393 5.965643882751465 11.0534782409668 5.965567588806152 C 11.05450057983398 5.965491771697998 11.05552291870117 5.965418338775635 11.05654430389404 5.965346336364746 C 11.05756568908691 5.965274333953857 11.05858612060547 5.965203762054443 11.05960750579834 5.96513557434082 C 11.25211524963379 5.952333450317383 11.44461250305176 5.935932636260986 11.63676929473877 5.915979385375977 C 11.82892894744873 5.896027088165283 12.02074337005615 5.87252140045166 12.21188449859619 5.845510959625244 C 12.4030294418335 5.81850004196167 12.59349822998047 5.787982940673828 12.782958984375 5.754008293151855 C 12.97242450714111 5.720033645629883 13.16088390350342 5.682599544525146 13.34800052642822 5.641753673553467 C 13.34950256347656 5.641425609588623 13.35100555419922 5.641101837158203 13.35250949859619 5.640782833099365 C 13.35401344299316 5.640463829040527 13.35551929473877 5.640149593353271 13.35702610015869 5.639840602874756 C 13.35853290557861 5.639530658721924 13.36004066467285 5.63922643661499 13.36154937744141 5.638925552368164 C 13.36305809020996 5.638624668121338 13.36456871032715 5.638328552246094 13.36608123779297 5.638036727905273 C 13.67978382110596 5.5776047706604 13.96652030944824 5.50540018081665 14.2239236831665 5.422660827636719 C 14.48134136199951 5.339916229248047 14.70942687988281 5.246634006500244 14.9058084487915 5.144050121307373 C 15.10220432281494 5.041460514068604 15.2668924331665 4.929565906524658 15.39750671386719 4.809604167938232 C 15.52812671661377 4.689632415771484 15.62467098236084 4.561592578887939 15.68475532531738 4.426718235015869 C 15.73159217834473 4.321422576904297 15.765380859375 4.212224006652832 15.78620147705078 4.101064205169678 C 15.80702209472656 3.989896059036255 15.81487369537354 3.876767158508301 15.80983924865723 3.763618946075439 C 15.80480289459229 3.650462627410889 15.78687763214111 3.537287712097168 15.75614738464355 3.426037549972534 C 15.72541236877441 3.31477952003479 15.68186950683594 3.205446481704712 15.62559986114502 3.099982738494873 C 15.55317687988281 2.964416265487671 15.44622707366943 2.836294412612915 15.30617427825928 2.716340303421021 C 15.16611289978027 2.596376895904541 14.99294185638428 2.484582662582397 14.78808784484863 2.381680488586426 C 14.58322048187256 2.278771638870239 14.3466682434082 2.184756994247437 14.07985591888428 2.100358009338379 C 13.81302833557129 2.015954494476318 13.51593971252441 1.941169261932373 13.19002056121826 1.876724123954773 C 13.18957996368408 1.876636266708374 13.18913841247559 1.876548409461975 13.18869876861572 1.876460671424866 C 13.18825721740723 1.876372814178467 13.18781566619873 1.876284599304199 13.18737506866455 1.876196146011353 C 13.18693256378174 1.876107811927795 13.18649196624756 1.876019239425659 13.18605136871338 1.875930070877075 C 13.18560981750488 1.875840783119202 13.18516826629639 1.875751137733459 13.18472862243652 1.875661253929138 C 12.99289131164551 1.836364030838013 12.80004501342773 1.800234079360962 12.60652637481689 1.767317295074463 C 12.41300392150879 1.734400033950806 12.21881103515625 1.7046959400177 12.02428913116455 1.678251981735229 C 11.82976245880127 1.651807427406311 11.63490867614746 1.628622770309448 11.4400634765625 1.608744144439697 C 11.24521923065186 1.588865518569946 11.05038547515869 1.572293043136597 10.85590362548828 1.559072852134705 C 10.85479927062988 1.5589998960495 10.85369300842285 1.558923602104187 10.85258674621582 1.558844447135925 C 10.85148048400879 1.558765411376953 10.85037517547607 1.558683514595032 10.84926986694336 1.558598637580872 C 10.84816455841064 1.558513998985291 10.84705829620361 1.558426380157471 10.84595108032227 1.55833625793457 C 10.84484672546387 1.558246374130249 10.8437385559082 1.558153629302979 10.84263134002686 1.558058381080627 C 10.66007137298584 1.542521595954895 10.47686767578125 1.528899431228638 10.29334354400635 1.517205834388733 C 10.10981750488281 1.505511999130249 9.925971984863281 1.495746970176697 9.742127418518066 1.487923979759216 C 9.558281898498535 1.480100870132446 9.374436378479004 1.474219918251038 9.190914154052734 1.470294833183289 C 9.007393836975098 1.466369867324829 8.824195861816406 1.464400410652161 8.641641616821289 1.464400410652161 C 8.459088325500488 1.464400410652161 8.276074409484863 1.466369867324829 8.092918395996094 1.470294833183289 C 7.909762382507324 1.474219918251038 7.726466655731201 1.480100870132446 7.543350219726562 1.487923979759216 C 7.360233783721924 1.495746970176697 7.177297115325928 1.505511999130249 6.994862079620361 1.517205834388733 C 6.812427997589111 1.528899431228638 6.630495548248291 1.542521595954895 6.44938325881958 1.558058381080627 C 6.448235511779785 1.558158397674561 6.44708776473999 1.558255553245544 6.445939064025879 1.558349251747131 C 6.444791316986084 1.558443546295166 6.443643569946289 1.558534622192383 6.442496299743652 1.558623075485229 C 6.441348075866699 1.558711290359497 6.440199375152588 1.558797001838684 6.439051151275635 1.558880090713501 C 6.437902927398682 1.558963298797607 6.436754703521729 1.559043765068054 6.435604572296143 1.559121608734131 C 6.242434501647949 1.57218325138092 6.049229621887207 1.588633179664612 5.856325626373291 1.608425259590149 C 5.663423538208008 1.628217339515686 5.470823287963867 1.65135133266449 5.278861522674561 1.677781105041504 C 5.086903095245361 1.704210758209229 4.895582675933838 1.733935952186584 4.705237865447998 1.766910552978516 C 4.514896869659424 1.799884796142578 4.325531005859375 1.836107969284058 4.137477874755859 1.875534296035767 C 4.136996746063232 1.875636696815491 4.136514663696289 1.875737905502319 4.136033535003662 1.875838160514832 C 4.135551929473877 1.875938415527344 4.13507080078125 1.876037836074829 4.134588718414307 1.876136422157288 C 4.13410758972168 1.876235127449036 4.133625984191895 1.876333355903625 4.133144378662109 1.876431226730347 C 4.132662773132324 1.876528978347778 4.132181167602539 1.876626491546631 4.131699562072754 1.876724123954773 C 3.829918622970581 1.937516450881958 3.549293518066406 2.01188063621521 3.294206857681274 2.097486734390259 C 3.039133548736572 2.183088302612305 2.809599876403809 2.279928922653198 2.609985828399658 2.385679483413696 C 2.410384654998779 2.491422414779663 2.240701675415039 2.606072664260864 2.105314016342163 2.727300643920898 C 1.969936370849609 2.848519563674927 1.868850588798523 2.976314306259155 1.80643093585968 3.108356237411499 C 1.784186124801636 3.158648014068604 1.764952778816223 3.210362911224365 1.748799085617065 3.263128042221069 C 1.732646107673645 3.315891265869141 1.719572424888611 3.369704484939575 1.709646701812744 3.4241943359375 C 1.699721336364746 3.478682994842529 1.692943215370178 3.533848285675049 1.689381122589111 3.589317560195923 C 1.685819029808044 3.644785165786743 1.68547260761261 3.700556516647339 1.688409686088562 3.756259441375732 C 1.691164612770081 3.814340353012085 1.697232365608215 3.872267961502075 1.706508636474609 3.929719209671021 C 1.715784430503845 3.987167119979858 1.72826886177063 4.04413890838623 1.743856906890869 4.100307464599609 C 1.759444355964661 4.156473636627197 1.778135538101196 4.211837291717529 1.79982578754425 4.266073703765869 C 1.821515321731567 4.320308208465576 1.846203923225403 4.373414993286133 1.873787045478821 4.425068378448486 Z" stroke="none" fill="#747472"/>
    </g>
  </g>
</svg>
