<svg xmlns="http://www.w3.org/2000/svg" width="39.4" height="39.4" viewBox="0 0 39.4 39.4">
  <path id="rate" d="M0,39V19.5A19.5,19.5,0,1,1,19.5,39ZM2.285,19.5V36.715H19.5A17.214,17.214,0,1,0,2.285,19.5ZM19.5,28.56l-8,3.054.432-8.554L6.552,16.393l8.27-2.232L19.5,6.986l4.679,7.174,8.27,2.232L27.071,23.06l.432,8.554Zm5.544-.33-.3-5.925,3.726-4.619L22.742,16.14,19.5,11.17l-3.242,4.97L10.53,17.686l3.726,4.619-.3,5.925L19.5,26.115Z" transform="translate(0.2 0.2)" fill="#557dbe" stroke="#557dbe" stroke-width="0.4"/>
</svg>
