<svg xmlns="http://www.w3.org/2000/svg" width="56.502" height="43.266" viewBox="0 0 56.502 43.266">
  <g id="Group_12593" data-name="Group 12593" transform="translate(-3541 1263.509)">
    <ellipse id="Ellipse_102" data-name="Ellipse 102" cx="20" cy="19.5" rx="20" ry="19.5" transform="translate(3541 -1263)" fill="#e43427" opacity="0.57"/>
    <g id="noun-return-parcel-4375828" transform="translate(3549.929 -1263.159)">
      <path id="Path_5478" data-name="Path 5478" d="M189.084,99.312a.367.367,0,0,0-.017-.083h0a.662.662,0,0,0-.132-.263c-.007-.009-.007-.021-.015-.03L181.6,90.925a.664.664,0,0,0-.489-.215h-31.18a.664.664,0,0,0-.489.215l-7.322,8.012c-.008.009-.008.021-.015.03h0a.663.663,0,0,0-.132.263.611.611,0,0,1-.017.083h0a.572.572,0,0,0-.013.067V132.62a.653.653,0,0,0,.193.464.664.664,0,0,0,.467.192h45.834a.664.664,0,0,0,.467-.192.653.653,0,0,0,.193-.464V99.377a.581.581,0,0,0-.013-.067Zm-2.14-.589H169.606l-1.355-6.7H180.81Zm-21.425,10.153h-2.886l-.011-8.841H168.4v8.841Zm-2.738-10.153,1.355-6.7H166.9l1.367,6.7Zm-12.559-6.7h12.559l-1.344,6.7H144.1Zm-6.959,39.943V100.034h18.049v9.5a.654.654,0,0,0,.194.464.664.664,0,0,0,.467.192h7.091a.664.664,0,0,0,.467-.192.654.654,0,0,0,.194-.464l-.012-9.5h18.061v31.931Zm41.955-27.659a.653.653,0,0,1-.193.464.664.664,0,0,1-.467.192h-5.768a.656.656,0,1,1,0-1.311h5.768a.664.664,0,0,1,.467.192A.653.653,0,0,1,185.218,104.306Zm0,3.115a.653.653,0,0,1-.193.464.664.664,0,0,1-.467.192h-2.881a.656.656,0,1,1,0-1.312h2.881a.662.662,0,0,1,.467.192A.652.652,0,0,1,185.218,107.421Zm-13.58,13.787a6.062,6.062,0,0,1-3.059,5.258,6.16,6.16,0,0,1-6.118,0,6.062,6.062,0,0,1-3.059-5.258.661.661,0,0,1,1.322,0,4.74,4.74,0,0,0,1.4,3.367,4.823,4.823,0,0,0,6.785,0,4.732,4.732,0,0,0,0-6.731,4.815,4.815,0,0,0-3.392-1.394h-.208l1.037,1.352a.652.652,0,0,1-.143.9.665.665,0,0,1-.908-.1l-1.841-2.409a.51.51,0,0,1-.036-.071.635.635,0,0,1-.058-.119.6.6,0,0,1-.027-.131.551.551,0,0,1-.016-.076c0-.014.008-.026.008-.041v-.046h0a.692.692,0,0,1,.031-.088.538.538,0,0,1,.038-.113c.007-.013.007-.026.013-.038s.032-.037.049-.055a.463.463,0,0,1,.09-.108.273.273,0,0,1,.028-.032L166,113.437h0a.668.668,0,0,1,.931.126.656.656,0,0,1-.127.924l-.916.693a6.131,6.131,0,0,1,4.08,1.884,6.035,6.035,0,0,1,1.673,4.145Z" transform="translate(-141.941 -90.71)" fill="#557dbe" stroke="#557dbe" stroke-width="0.7"/>
    </g>
  </g>
</svg>
