<svg id="Iconly_Light_Search" data-name="Iconly/Light/Search" xmlns="http://www.w3.org/2000/svg" width="21.643" height="21.084" viewBox="0 0 21.643 21.084">
  <g id="Search">
    <g id="Ellipse_739" fill="none" stroke-linecap="round" stroke-linejoin="round" stroke-miterlimit="10">
      <path d="M10.076.738A9.58,9.58,0,0,1,16.706,3.4a9.324,9.324,0,0,1,2.048,2.881,8.927,8.927,0,0,1,.8,3.521,8.7,8.7,0,0,1-2.588,6.377,9.031,9.031,0,0,1-2.9,1.928,9.341,9.341,0,0,1-3.585.706,9.581,9.581,0,0,1-6.6-2.634,9.328,9.328,0,0,1-2.055-2.863A8.931,8.931,0,0,1,1,9.8,8.695,8.695,0,0,1,3.563,3.4,9.028,9.028,0,0,1,6.472,1.452,9.339,9.339,0,0,1,10.076.738Z" stroke="none"/>
      <path d="M 10.49409580230713 19.53912544250488 C 9.115825653076172 19.53912544250488 7.79550838470459 19.266845703125 6.588087558746338 18.77463531494141 C 5.380296230316162 18.28227806091309 4.285141468048096 17.56972503662109 3.357827186584473 16.68923950195312 C 2.430005311965942 15.80827331542969 1.670014142990112 14.75900936126709 1.133345127105713 13.59377861022949 C 0.5962872505187988 12.42770576477051 0.282797783613205 11.14533042907715 0.2486357688903809 9.799162864685059 C 0.2144450694322586 8.451868057250977 0.4632269442081451 7.166322231292725 0.9423856735229492 5.995584011077881 C 1.421892285346985 4.823994636535645 2.132042169570923 3.767548084259033 3.019979476928711 2.879483461380005 C 3.908406257629395 1.990930676460266 4.974630355834961 1.271130800247192 6.165512561798096 0.7733924984931946 C 7.356761455535889 0.2755007743835449 8.672418594360352 -5.565777246374637e-05 10.05907249450684 -5.565777246374637e-05 C 11.44572639465332 -5.565777246374637e-05 12.77365112304688 0.2755008041858673 13.98707103729248 0.7733926177024841 C 15.20011615753174 1.271130919456482 16.29839324951172 1.990930795669556 17.22638130187988 2.879483461380005 C 18.15386390686035 3.767548084259033 18.91105651855469 4.823994636535645 19.44273376464844 5.995584011077881 C 19.97402381896973 7.166322231292725 20.28004837036133 8.451868057250977 20.30585098266602 9.799162864685059 C 20.33163070678711 11.14533042907715 20.07524681091309 12.42770576477051 19.59010696411133 13.59377861022949 C 19.10532379150391 14.75900936126709 18.39205360412598 15.80827331542969 17.50345993041992 16.68923950195312 C 16.61535453796387 17.56972503662109 15.55192756652832 18.28227806091309 14.36606121063232 18.77463531494141 C 13.18055820465088 19.266845703125 11.87236499786377 19.53912544250488 10.49409580230713 19.53912544250488 Z M 10.09192848205566 1.475683689117432 C 8.914102554321289 1.475683689117432 7.796550273895264 1.709638476371765 6.784606456756592 2.132376909255981 C 5.772928237915039 2.555004835128784 4.867039203643799 3.166218757629395 4.112081527709961 3.920784711837769 C 3.357477426528931 4.67499828338623 2.753797769546509 5.572297096252441 2.345978260040283 6.567493915557861 C 1.938410043716431 7.562077045440674 1.726510643959045 8.654317855834961 1.755028367042542 9.799162864685059 C 1.783525586128235 10.94319343566895 2.049451351165771 12.03314590454102 2.50547194480896 13.0243616104126 C 2.961211681365967 14.01496601104736 3.606868505477905 14.90707683563232 4.395302772521973 15.65616416931152 C 5.183370113372803 16.40490341186523 6.114221096038818 17.01088523864746 7.140924453735352 17.42962646484375 C 8.167360305786133 17.8482608795166 9.289834976196289 18.0798511505127 10.4616060256958 18.0798511505127 C 11.63337707519531 18.0798511505127 12.74554061889648 17.8482608795166 13.75333404541016 17.42962646484375 C 14.76138973236084 17.01088523864746 15.66525840759277 16.40490341186523 16.41998481750488 15.65616416931152 C 17.1750659942627 14.90707683563232 17.78099632263184 14.01496601104736 18.19262886047363 13.0243616104126 C 18.6045093536377 12.03314590454102 18.82190322875977 10.94319343566895 18.79945945739746 9.799162864685059 C 18.77699661254883 8.654317855834961 18.51646041870117 7.562077045440674 18.06460762023926 6.567493915557861 C 17.61247444152832 5.572297096252441 16.96883964538574 4.67499828338623 16.18064880371094 3.920784711837769 C 15.39209270477295 3.166218757629395 14.45898818969727 2.555004835128784 13.42849063873291 2.132376909255981 C 12.39772319793701 1.709638476371765 11.26975536346436 1.475683689117432 10.09192848205566 1.475683689117432 Z" stroke="none" fill="#9d9d9c"/>
    </g>
    <g id="Line_181" transform="translate(15.781 15.505)" fill="none" stroke-linecap="round" stroke-linejoin="round" stroke-miterlimit="10">
      <path d="M1.084,1.034l3.7,3.515" stroke="none"/>
      <path d="M 4.794435501098633 5.27722692489624 C 4.746485710144043 5.27722692489624 4.6984543800354 5.272796154022217 4.651046752929688 5.263933658599854 C 4.603638172149658 5.25507116317749 4.556853771209717 5.241775989532471 4.511398315429688 5.224047183990479 C 4.4659423828125 5.20631742477417 4.421815395355225 5.18415355682373 4.379723072052002 5.157553195953369 C 4.337630271911621 5.130953788757324 4.297571659088135 5.099916458129883 4.26025390625 5.064441680908203 L 0.5641494393348694 1.550846934318542 C 0.4892289042472839 1.479625701904297 0.4324058294296265 1.397300004959106 0.3938020467758179 1.309407591819763 C 0.3551961183547974 1.221510171890259 0.3348112106323242 1.128044843673706 0.3327697217464447 1.034550666809082 C 0.330728143453598 0.9410508275032043 0.3470322787761688 0.8475222587585449 0.3818045556545258 0.7595059275627136 C 0.4165787100791931 0.671484649181366 0.4698229730129242 0.5889768600463867 0.5416591167449951 0.5175253748893738 C 0.5776353478431702 0.4817428886890411 0.6165732145309448 0.4504291713237762 0.6577544808387756 0.4235861301422119 C 0.6989365816116333 0.3967426419258118 0.742361843585968 0.3743700683116913 0.7873122096061707 0.3564704656600952 C 0.8322630524635315 0.3385706543922424 0.8787385821342468 0.325143963098526 0.9260208010673523 0.3161921501159668 C 0.9733032584190369 0.3072403371334076 1.021391868591309 0.3027634918689728 1.069568514823914 0.3027634918689728 C 1.117592453956604 0.3027634918689728 1.165703535079956 0.3072077333927155 1.213194251060486 0.3160977959632874 C 1.260684609413147 0.3249877989292145 1.307554602622986 0.338323563337326 1.353097081184387 0.3561067283153534 C 1.398638844490051 0.3738896548748016 1.442852973937988 0.3961197733879089 1.485031962394714 0.4227986335754395 C 1.527210235595703 0.4494770169258118 1.567353367805481 0.480603814125061 1.604754328727722 0.5161805152893066 L 5.300909519195557 4.032036781311035 C 5.375664234161377 4.103144645690918 5.432312488555908 4.18533182144165 5.470744132995605 4.273066997528076 C 5.50917387008667 4.36079740524292 5.529387950897217 4.454074859619141 5.531276226043701 4.547369956970215 C 5.533164024353027 4.640660285949707 5.51672887802124 4.733968257904053 5.48185920715332 4.821767807006836 C 5.446990966796875 4.909561157226562 5.393691062927246 4.991847991943359 5.321846961975098 5.063100337982178 C 5.285869598388672 5.098780632019043 5.246942520141602 5.130004405975342 5.205782890319824 5.156768321990967 C 5.164624214172363 5.183532238006592 5.121233463287354 5.205838203430176 5.076327323913574 5.223684787750244 C 5.031421184539795 5.24152946472168 4.984999179840088 5.254915714263916 4.937777996063232 5.263839244842529 C 4.890557765960693 5.272763729095459 4.842537879943848 5.27722692489624 4.794435501098633 5.27722692489624 Z" stroke="none" fill="#9d9d9c"/>
    </g>
  </g>
</svg>
