<?xml version="1.0" encoding="UTF-8"?>
<svg xmlns="http://www.w3.org/2000/svg" xmlns:xlink="http://www.w3.org/1999/xlink" width="375pt" height="375pt" viewBox="0 0 375 375" version="1.1">
<g id="surface873">
<path style=" stroke:none;fill-rule:nonzero;fill:rgb(100%,100%,100%);fill-opacity:1;" d="M 287.5 37.5 C 259.886719 37.5 237.5 59.886719 237.5 87.5 C 237.523438 91.015625 237.914062 94.515625 238.671875 97.949219 L 125.148438 154.710938 C 115.671875 143.804688 101.945312 137.53125 87.5 137.5 C 59.886719 137.5 37.5 159.886719 37.5 187.5 C 37.5 215.113281 59.886719 237.5 87.5 237.5 C 101.949219 237.484375 115.6875 231.214844 125.171875 220.3125 L 238.625 277.050781 C 237.882812 280.484375 237.507812 283.988281 237.5 287.5 C 237.5 315.113281 259.886719 337.5 287.5 337.5 C 315.113281 337.5 337.5 315.113281 337.5 287.5 C 337.5 259.886719 315.113281 237.5 287.5 237.5 C 273.050781 237.515625 259.3125 243.785156 249.828125 254.6875 L 136.375 197.949219 C 137.117188 194.515625 137.492188 191.011719 137.5 187.5 C 137.476562 183.992188 137.082031 180.5 136.328125 177.074219 L 249.851562 120.3125 C 259.332031 131.210938 273.058594 137.476562 287.5 137.5 C 315.113281 137.5 337.5 115.113281 337.5 87.5 C 337.5 59.886719 315.113281 37.5 287.5 37.5 Z M 287.5 37.5 "/>
</g>
</svg>
