<svg xmlns="http://www.w3.org/2000/svg" width="27.159" height="39.054" viewBox="0 0 27.159 39.054">
  <g id="noun-shower-1773985" transform="translate(0.5 0.5)">
    <path id="Path_5455" data-name="Path 5455" d="M276.357,147.77a8.916,8.916,0,0,0-8.729,7.162,9.227,9.227,0,0,0-8.529,9.187v.866h18.443v-.866a9.231,9.231,0,0,0-8.141-9.154,7.165,7.165,0,0,1,14.125,1.708v28.284a.866.866,0,1,0,1.731,0V156.674a8.913,8.913,0,0,0-8.9-8.9Zm-.6,15.484Z" transform="translate(-259.099 -147.77)" fill="#557dbe" stroke="#557dbe" stroke-width="1"/>
    <path id="Path_5456" data-name="Path 5456" d="M280.438,280.33a.933.933,0,0,0-.934.935v1.546a.934.934,0,0,0,1.868,0v-1.546A.933.933,0,0,0,280.438,280.33Z" transform="translate(-277.365 -261.253)" fill="#557dbe" stroke="#557dbe" stroke-width="1"/>
    <path id="Path_5457" data-name="Path 5457" d="M318.1,280.33a.933.933,0,0,0-.934.935v1.546a.934.934,0,0,0,1.868,0v-1.546A.933.933,0,0,0,318.1,280.33Z" transform="translate(-309.186 -261.253)" fill="#557dbe" stroke="#557dbe" stroke-width="1"/>
    <path id="Path_5458" data-name="Path 5458" d="M355.758,280.33a.934.934,0,0,0-.935.935v1.546a.934.934,0,0,0,1.869,0v-1.546A.934.934,0,0,0,355.758,280.33Z" transform="translate(-340.995 -261.253)" fill="#557dbe" stroke="#557dbe" stroke-width="1"/>
    <path id="Path_5459" data-name="Path 5459" d="M280.438,317.98a.933.933,0,0,0-.934.935v1.546a.934.934,0,1,0,1.868,0v-1.546A.934.934,0,0,0,280.438,317.98Z" transform="translate(-277.365 -293.06)" fill="#557dbe" stroke="#557dbe" stroke-width="1"/>
    <path id="Path_5460" data-name="Path 5460" d="M318.1,317.98a.933.933,0,0,0-.934.935v1.546a.934.934,0,1,0,1.868,0v-1.546A.933.933,0,0,0,318.1,317.98Z" transform="translate(-309.186 -293.06)" fill="#557dbe" stroke="#557dbe" stroke-width="1"/>
    <path id="Path_5461" data-name="Path 5461" d="M355.758,317.98a.934.934,0,0,0-.935.935v1.546a.934.934,0,1,0,1.869,0v-1.546A.934.934,0,0,0,355.758,317.98Z" transform="translate(-340.995 -293.06)" fill="#557dbe" stroke="#557dbe" stroke-width="1"/>
  </g>
</svg>
