<svg xmlns="http://www.w3.org/2000/svg" width="21.333" height="21.333" viewBox="0 0 21.333 21.333">
  <g id="Group_12592" data-name="Group 12592" transform="translate(-790.306 -9099.393)">
    <g id="Group_15" data-name="Group 15" transform="translate(790.306 9099.256)">
      <g id="Group_4202" data-name="Group 4202" transform="translate(0 0.137)">
        <path id="Path_5416" data-name="Path 5416" d="M10.666,0A10.666,10.666,0,1,1,0,10.666,10.666,10.666,0,0,1,10.666,0Z" fill="#557dbe"/>
        <path id="Path_5415" data-name="Path 5415" d="M83.415,308.413v0s-.006,0-.012-.009h0a1.557,1.557,0,0,0-.4-.145s-.006,0-.006,0a3.434,3.434,0,0,1-1.643-1.2,3.78,3.78,0,0,1-.562-.982v-.006a.476.476,0,0,1,.02-.42,0,0,0,0,0,0,0,1.172,1.172,0,0,1,.565-.359h0a2.186,2.186,0,0,0,.765-.394s0,0,.006,0a.45.45,0,0,0,.11-.142.219.219,0,0,0,.017-.052.283.283,0,0,0-.014-.2v0a.615.615,0,0,0-.267-.255h0a.552.552,0,0,0-.458-.04h0a2.974,2.974,0,0,1-.406.119.011.011,0,0,0-.009,0,.939.939,0,0,1-.461-.012c0-.018,0-.055-.009-.1h0c-.012-.278.015-.565.018-.864v0a7.945,7.945,0,0,0-.035-1.385v-.006a3.106,3.106,0,0,0-1.3-1.925,3.263,3.263,0,0,0-1.588-.565h0c-.195-.018-.383-.023-.571-.023a3.554,3.554,0,0,0-2.171.69,3.5,3.5,0,0,0-1.058,1.38v0a3.91,3.91,0,0,0-.171,1.684h0A7.922,7.922,0,0,1,73.8,304.3a.173.173,0,0,1-.006.023,1.506,1.506,0,0,1-.545-.015h0a4.072,4.072,0,0,1-.417-.116.011.011,0,0,1-.009,0,.5.5,0,0,0-.406.093s-.006,0-.006,0-.006,0-.006.006a.416.416,0,0,0-.223.333.126.126,0,0,0,0,.032s0,0,0,0a.388.388,0,0,0,.139.226c.058.049.11.081.142.107,0,0,.006,0,.009.006a4.09,4.09,0,0,0,.855.371h0a.615.615,0,0,1,.382.365,1.044,1.044,0,0,1-.151.655v0a4.032,4.032,0,0,1-1.3,1.487,3.124,3.124,0,0,1-.954.435.053.053,0,0,0-.015.006.54.54,0,0,0-.339.2c-.006.012-.012.023-.017.038a.29.29,0,0,0,.055.267.454.454,0,0,0,.145.113s.006,0,.009,0a3.335,3.335,0,0,0,.881.307,0,0,0,0,1,0,0,3.069,3.069,0,0,1,.551.136c.006.012.023.064.058.151.052.156.076.339.133.533a.166.166,0,0,0,.119.107.315.315,0,0,0,.212-.018h.017a3.442,3.442,0,0,1,1.391-.049h0a5.517,5.517,0,0,1,1.307.707v0h0a2.141,2.141,0,0,0,1.043.383h0a7.369,7.369,0,0,0,.884-.02h.006a1.62,1.62,0,0,0,.7-.238.015.015,0,0,1,.009-.006c.473-.27.89-.591,1.351-.794h0a2.238,2.238,0,0,1,.542-.064h.006a7.157,7.157,0,0,1,1.142.058.079.079,0,0,0,.037,0,.215.215,0,0,0,.131-.073.174.174,0,0,0,.04-.081c.012-.038.02-.055,0-.023a.146.146,0,0,0,.015-.032,1.569,1.569,0,0,1,.22-.562.336.336,0,0,1,.235-.073h.02a4.119,4.119,0,0,0,.907-.255.019.019,0,0,1,.012,0,.8.8,0,0,0,.368-.247v0h0a.259.259,0,0,0-.078-.371Z" transform="translate(-66.568 -294.653)" fill="#fff" fill-rule="evenodd"/>
      </g>
    </g>
  </g>
</svg>
