<?xml version="1.0" encoding="UTF-8"?>
<svg xmlns="http://www.w3.org/2000/svg" xmlns:xlink="http://www.w3.org/1999/xlink" width="375pt" height="375pt" viewBox="0 0 375 375" version="1.1">
<defs>
<linearGradient id="linear0" gradientUnits="userSpaceOnUse" x1="10.341" y1="8.312" x2="40.798" y2="38.769001" gradientTransform="matrix(7.8125,0,0,7.8125,0,0)">
<stop offset="0" style="stop-color:rgb(16.470589%,64.313728%,95.686275%);stop-opacity:1;"/>
<stop offset="1" style="stop-color:rgb(0%,47.843137%,85.09804%);stop-opacity:1;"/>
</linearGradient>
</defs>
<g id="surface1344">
<path style=" stroke:none;fill-rule:nonzero;fill:url(#linear0);" d="M 360.195312 86.09375 C 348.078125 91.460938 335.046875 95.039062 321.296875 96.734375 C 335.273438 88.4375 346.03125 75.203125 351.078125 59.5625 C 338 67.226562 323.507812 72.859375 308.09375 75.828125 C 295.78125 62.78125 278.21875 54.6875 258.765625 54.6875 C 221.398438 54.6875 191.101562 84.710938 191.101562 121.734375 C 191.101562 126.976562 191.71875 132.078125 192.867188 137.03125 C 136.648438 134.210938 86.78125 107.484375 53.421875 66.921875 C 47.5625 76.835938 44.265625 88.4375 44.265625 100.6875 C 44.265625 123.960938 56.179688 144.453125 74.351562 156.523438 C 63.257812 156.1875 52.820312 153.101562 43.679688 148.148438 C 43.679688 148.351562 43.679688 148.648438 43.679688 148.9375 C 43.679688 181.460938 67.007812 208.546875 97.929688 214.710938 C 92.28125 216.257812 86.304688 217.117188 80.148438 217.117188 C 75.78125 217.117188 71.523438 216.625 67.398438 215.882812 C 76.007812 242.460938 100.984375 261.890625 130.578125 262.46875 C 107.421875 280.421875 78.257812 291.171875 46.546875 291.171875 C 41.070312 291.171875 35.710938 290.859375 30.414062 290.21875 C 60.390625 309.195312 95.960938 320.3125 134.148438 320.3125 C 258.578125 320.3125 326.65625 218.132812 326.65625 129.484375 C 326.65625 126.578125 326.5625 123.6875 326.429688 120.828125 C 339.710938 111.445312 351.15625 99.617188 360.195312 86.09375 "/>
</g>
</svg>
