<svg id="Group_12599" data-name="Group 12599" xmlns="http://www.w3.org/2000/svg" width="21.333" height="21.333" viewBox="0 0 21.333 21.333">
  <path id="Path_5407" data-name="Path 5407" d="M68.133,101.447h0A10.667,10.667,0,0,1,57.467,90.781h0A10.667,10.667,0,0,1,68.133,80.114h0A10.667,10.667,0,0,1,78.8,90.781h0A10.667,10.667,0,0,1,68.133,101.447Z" transform="translate(-57.467 -80.114)" fill="#557dbe"/>
  <path id="Path_5408" data-name="Path 5408" d="M74.222,108.638a6.632,6.632,0,0,0,10.2-5.889,4.723,4.723,0,0,0,1.163-1.207,4.646,4.646,0,0,1-1.339.367,2.336,2.336,0,0,0,1.025-1.29,4.678,4.678,0,0,1-1.481.566,2.333,2.333,0,0,0-3.974,2.127,6.618,6.618,0,0,1-4.806-2.437,2.335,2.335,0,0,0,.722,3.114,2.33,2.33,0,0,1-1.057-.292,2.335,2.335,0,0,0,1.87,2.316,2.335,2.335,0,0,1-1.053.04,2.333,2.333,0,0,0,2.178,1.619A4.686,4.686,0,0,1,74.222,108.638Z" transform="translate(-69.239 -94.401)" fill="#fff"/>
</svg>
