<svg id="Group_12598" data-name="Group 12598" xmlns="http://www.w3.org/2000/svg" width="21.333" height="21.333" viewBox="0 0 21.333 21.333">
  <path id="Path_5401" data-name="Path 5401" d="M172.525,304.693h0a10.667,10.667,0,0,1-10.666-10.667h0a10.666,10.666,0,0,1,10.666-10.666h0a10.666,10.666,0,0,1,10.667,10.666h0A10.667,10.667,0,0,1,172.525,304.693Z" transform="translate(-161.859 -283.36)" fill="#557dbe"/>
  <g id="Group_4194" data-name="Group 4194" transform="translate(4.816 4.815)">
    <path id="Path_5402" data-name="Path 5402" d="M189.75,305.1a5.746,5.746,0,0,0-11.481-.1c0,.083-.005.167-.005.25a5.658,5.658,0,0,0,.823,2.945l-1.036,3.058,3.181-1.011a5.752,5.752,0,0,0,8.52-4.991C189.752,305.2,189.752,305.152,189.75,305.1Zm-5.742,4.938a4.811,4.811,0,0,1-2.657-.793l-1.856.592.6-1.78a4.745,4.745,0,0,1-.92-2.81,4.544,4.544,0,0,1,.024-.465,4.832,4.832,0,0,1,9.62.091c.011.124.016.247.016.374A4.817,4.817,0,0,1,184.008,310.041Z" transform="translate(-178.051 -299.548)" fill="#fff" fill-rule="evenodd"/>
    <path id="Path_5403" data-name="Path 5403" d="M194.093,313.718c-.142-.07-.834-.409-.963-.454s-.223-.07-.317.07-.366.454-.446.546-.164.1-.307.035a3.81,3.81,0,0,1-1.132-.694,4.182,4.182,0,0,1-.783-.965c-.081-.14-.008-.215.062-.285s.14-.164.212-.244l.051-.067a1.575,1.575,0,0,0,.089-.167.253.253,0,0,0-.011-.245c-.035-.07-.317-.758-.436-1.038s-.234-.231-.317-.231-.175-.013-.269-.013a.521.521,0,0,0-.377.175,1.564,1.564,0,0,0-.492,1.167,1.784,1.784,0,0,0,.073.476,3.173,3.173,0,0,0,.5.968,5.783,5.783,0,0,0,2.4,2.111c1.434.556,1.434.371,1.692.347a1.406,1.406,0,0,0,.949-.664,1.155,1.155,0,0,0,.083-.664C194.327,313.823,194.233,313.788,194.093,313.718Z" transform="translate(-185.503 -306.866)" fill="#fff" fill-rule="evenodd"/>
  </g>
</svg>
