<svg xmlns="http://www.w3.org/2000/svg" xmlns:xlink="http://www.w3.org/1999/xlink" width="23.642" height="23.642" viewBox="0 0 23.642 23.642">
  <defs>
    <linearGradient id="linear-gradient" x1="12.887" y1="0.899" x2="13.733" y2="1.745" gradientUnits="objectBoundingBox">
      <stop offset="0" stop-color="#fff"/>
      <stop offset="1" stop-color="#4ab161"/>
    </linearGradient>
  </defs>
  <g id="Group_12590" data-name="Group 12590" transform="translate(107.857 -102.087)">
    <rect id="Rectangle_17314" data-name="Rectangle 17314" width="23.642" height="23.642" rx="7.649" transform="translate(-84.215 102.087) rotate(90)" fill="url(#linear-gradient)"/>
    <path id="Path_5468" data-name="Path 5468" d="M-101.135,121.725l.986-3.677a6.769,6.769,0,0,1-.852-3.28,6.8,6.8,0,0,1,6.79-6.79,6.8,6.8,0,0,1,6.79,6.79,6.8,6.8,0,0,1-6.79,6.79,6.771,6.771,0,0,1-3.227-.823Zm3.88-2.368.233.139a5.5,5.5,0,0,0,2.811.779,5.513,5.513,0,0,0,5.507-5.507,5.513,5.513,0,0,0-5.507-5.507,5.512,5.512,0,0,0-5.507,5.507,5.487,5.487,0,0,0,.805,2.855l.143.234-.551,2.053Z" transform="translate(-1.287 -1.128)" fill="#58e172"/>
    <path id="Path_5469" data-name="Path 5469" d="M-90.823,116.586a1.14,1.14,0,0,0-.973-.219c-.252.1-.414.5-.577.7a.242.242,0,0,1-.313.068,4.4,4.4,0,0,1-2.2-1.883.269.269,0,0,1,.034-.368,1.481,1.481,0,0,0,.4-.648,1.42,1.42,0,0,0-.179-.767,1.823,1.823,0,0,0-.566-.854.777.777,0,0,0-.843.125,1.712,1.712,0,0,0-.593,1.356,1.915,1.915,0,0,0,.053.43,3.576,3.576,0,0,0,.413.952,7.312,7.312,0,0,0,.431.655,6.638,6.638,0,0,0,1.868,1.735,5.661,5.661,0,0,0,1.165.555,2.6,2.6,0,0,0,1.357.214,1.645,1.645,0,0,0,1.231-.915.8.8,0,0,0,.057-.467C-90.128,116.933-90.563,116.742-90.823,116.586Z" transform="translate(-2.15 -2.002)" fill="#58e172" fill-rule="evenodd"/>
  </g>
</svg>
