<svg id="Group_12597" data-name="Group 12597" xmlns="http://www.w3.org/2000/svg" width="21.333" height="21.333" viewBox="0 0 21.333 21.333">
  <path id="Path_5404" data-name="Path 5404" d="M172.525,406.316h0a10.666,10.666,0,0,1-10.666-10.666h0a10.666,10.666,0,0,1,10.666-10.666h0a10.666,10.666,0,0,1,10.667,10.666h0A10.666,10.666,0,0,1,172.525,406.316Z" transform="translate(-161.859 -384.983)" fill="#557dbe"/>
  <g id="Group_4196" data-name="Group 4196" transform="translate(3.604 5.691)">
    <path id="Path_5405" data-name="Path 5405" d="M182.849,402.178a1.775,1.775,0,0,0-1.249-1.257,51.411,51.411,0,0,0-11.036,0,1.775,1.775,0,0,0-1.249,1.257,19.977,19.977,0,0,0,0,6.843,1.775,1.775,0,0,0,1.249,1.257,51.422,51.422,0,0,0,11.036,0,1.775,1.775,0,0,0,1.249-1.257,19.975,19.975,0,0,0,0-6.843Z" transform="translate(-169.02 -400.624)" fill="#fff"/>
    <path id="Path_5406" data-name="Path 5406" d="M191.852,416.511v-4.2l3.692,2.1Z" transform="translate(-186.234 -409.435)" fill="#557dbe"/>
  </g>
</svg>
